<?xml version="1.0" encoding="UTF-8"?><svg xmlns="http://www.w3.org/2000/svg" xmlns:xlink="http://www.w3.org/1999/xlink" stroke-dasharray="none" shape-rendering="auto" font-family="'Dialog'" width="2073" text-rendering="auto" fill-opacity="1" contentScriptType="text/ecmascript" color-interpolation="auto" color-rendering="auto" preserveAspectRatio="xMidYMid meet" font-size="12px" fill="black" stroke="black" image-rendering="auto" stroke-miterlimit="10" zoomAndPan="magnify" version="1.0" stroke-linecap="square" stroke-linejoin="miter" contentStyleType="text/css" font-style="normal" height="1185" stroke-width="1" stroke-dashoffset="0" font-weight="normal" stroke-opacity="1">
    <!--Generated by the Batik Graphics2D SVG Generator-->
    <defs id="genericDefs"/>
    <g>
        <defs id="defs1">
            <clipPath clipPathUnits="userSpaceOnUse" id="clipPath1">
                <path d="M85 32 L2006 32 L2006 1138 L85 1138 L85 32 Z"/>
            </clipPath>
            <clipPath clipPathUnits="userSpaceOnUse" id="clipPath2">
                <path d="M-1 -1 L2074 -1 L2074 1186 L-1 1186 L-1 -1 Z"/>
            </clipPath>
            <clipPath clipPathUnits="userSpaceOnUse" id="clipPath3">
                <path d="M1902 37 L2002 37 L2002 206 L1902 206 L1902 37 Z"/>
            </clipPath>
            <clipPath clipPathUnits="userSpaceOnUse" id="clipPath4">
                <path d="M85 1136 L2006 1136 L2006 1186 L85 1186 L85 1136 Z"/>
            </clipPath>
        </defs>
        <g font-size="18px" fill="white" text-rendering="optimizeLegibility" font-family="'Segoe UI'" stroke-linejoin="round" stroke="white" stroke-width="0" stroke-miterlimit="0">
            <rect x="86" width="1919" height="1104" y="33" clip-path="url(#clipPath1)" stroke="none"/>
        </g>
        <g stroke-linecap="butt" font-size="18px" fill="rgb(204,204,204)" text-rendering="optimizeLegibility" font-family="'Segoe UI'" stroke-dasharray="3,3" stroke="rgb(204,204,204)">
            <line y2="1106" fill="none" x1="86" clip-path="url(#clipPath1)" x2="2005" y1="1106"/>
            <line y2="1052" fill="none" x1="86" clip-path="url(#clipPath1)" x2="2005" y1="1052"/>
            <line y2="999" fill="none" x1="86" clip-path="url(#clipPath1)" x2="2005" y1="999"/>
            <line y2="945" fill="none" x1="86" clip-path="url(#clipPath1)" x2="2005" y1="945"/>
            <line y2="892" fill="none" x1="86" clip-path="url(#clipPath1)" x2="2005" y1="892"/>
            <line y2="838" fill="none" x1="86" clip-path="url(#clipPath1)" x2="2005" y1="838"/>
            <line y2="784" fill="none" x1="86" clip-path="url(#clipPath1)" x2="2005" y1="784"/>
            <line y2="731" fill="none" x1="86" clip-path="url(#clipPath1)" x2="2005" y1="731"/>
            <line y2="677" fill="none" x1="86" clip-path="url(#clipPath1)" x2="2005" y1="677"/>
            <line y2="624" fill="none" x1="86" clip-path="url(#clipPath1)" x2="2005" y1="624"/>
            <line y2="570" fill="none" x1="86" clip-path="url(#clipPath1)" x2="2005" y1="570"/>
            <line y2="516" fill="none" x1="86" clip-path="url(#clipPath1)" x2="2005" y1="516"/>
            <line y2="463" fill="none" x1="86" clip-path="url(#clipPath1)" x2="2005" y1="463"/>
            <line y2="409" fill="none" x1="86" clip-path="url(#clipPath1)" x2="2005" y1="409"/>
            <line y2="356" fill="none" x1="86" clip-path="url(#clipPath1)" x2="2005" y1="356"/>
            <line y2="302" fill="none" x1="86" clip-path="url(#clipPath1)" x2="2005" y1="302"/>
            <line y2="248" fill="none" x1="86" clip-path="url(#clipPath1)" x2="2005" y1="248"/>
            <line y2="195" fill="none" x1="86" clip-path="url(#clipPath1)" x2="2005" y1="195"/>
            <line y2="141" fill="none" x1="86" clip-path="url(#clipPath1)" x2="2005" y1="141"/>
            <line y2="88" fill="none" x1="86" clip-path="url(#clipPath1)" x2="2005" y1="88"/>
            <line y2="34" fill="none" x1="86" clip-path="url(#clipPath1)" x2="2005" y1="34"/>
            <rect x="604" y="1148" clip-path="url(#clipPath1)" fill="rgb(227,119,194)" width="51" height="11" stroke="none"/>
            <rect x="604" y="1148" clip-path="url(#clipPath1)" fill="none" width="51" stroke-dasharray="none" height="11" stroke="black"/>
            <rect x="1252" y="1134" clip-path="url(#clipPath1)" fill="rgb(227,119,194)" width="51" stroke-dasharray="none" height="25" stroke="none"/>
            <rect x="1252" y="1134" clip-path="url(#clipPath1)" fill="none" width="51" stroke-dasharray="none" height="25" stroke="black"/>
            <rect x="1901" y="1117" clip-path="url(#clipPath1)" fill="rgb(227,119,194)" width="51" stroke-dasharray="none" height="42" stroke="none"/>
            <rect x="1901" y="1117" clip-path="url(#clipPath1)" fill="none" width="51" stroke-dasharray="none" height="42" stroke="black"/>
            <rect x="526" y="1140" clip-path="url(#clipPath1)" fill="rgb(140,86,75)" width="51" stroke-dasharray="none" height="19" stroke="none"/>
            <rect x="526" y="1140" clip-path="url(#clipPath1)" fill="none" width="51" stroke-dasharray="none" height="19" stroke="black"/>
            <rect x="1175" y="1119" clip-path="url(#clipPath1)" fill="rgb(140,86,75)" width="51" stroke-dasharray="none" height="40" stroke="none"/>
            <rect x="1175" y="1119" clip-path="url(#clipPath1)" fill="none" width="51" stroke-dasharray="none" height="40" stroke="black"/>
            <rect x="1823" y="1092" clip-path="url(#clipPath1)" fill="rgb(140,86,75)" width="51" stroke-dasharray="none" height="67" stroke="none"/>
            <rect x="1823" y="1092" clip-path="url(#clipPath1)" fill="none" width="51" stroke-dasharray="none" height="67" stroke="black"/>
            <rect x="449" y="1127" clip-path="url(#clipPath1)" fill="rgb(148,103,189)" width="51" stroke-dasharray="none" height="32" stroke="none"/>
            <rect x="449" y="1127" clip-path="url(#clipPath1)" fill="none" width="51" stroke-dasharray="none" height="32" stroke="black"/>
            <rect x="1097" y="1087" clip-path="url(#clipPath1)" fill="rgb(148,103,189)" width="51" stroke-dasharray="none" height="72" stroke="none"/>
            <rect x="1097" y="1087" clip-path="url(#clipPath1)" fill="none" width="51" stroke-dasharray="none" height="72" stroke="black"/>
            <rect x="1745" y="1036" clip-path="url(#clipPath1)" fill="rgb(148,103,189)" width="51" stroke-dasharray="none" height="123" stroke="none"/>
            <rect x="1745" y="1036" clip-path="url(#clipPath1)" fill="none" width="51" stroke-dasharray="none" height="123" stroke="black"/>
            <rect x="371" y="1109" clip-path="url(#clipPath1)" fill="rgb(214,39,40)" width="51" stroke-dasharray="none" height="50" stroke="none"/>
            <rect x="371" y="1109" clip-path="url(#clipPath1)" fill="none" width="51" stroke-dasharray="none" height="50" stroke="black"/>
            <rect x="1019" y="1051" clip-path="url(#clipPath1)" fill="rgb(214,39,40)" width="51" stroke-dasharray="none" height="108" stroke="none"/>
            <rect x="1019" y="1051" clip-path="url(#clipPath1)" fill="none" width="51" stroke-dasharray="none" height="108" stroke="black"/>
            <rect x="1667" y="986" clip-path="url(#clipPath1)" fill="rgb(214,39,40)" width="51" stroke-dasharray="none" height="173" stroke="none"/>
            <rect x="1667" y="986" clip-path="url(#clipPath1)" fill="none" width="51" stroke-dasharray="none" height="173" stroke="black"/>
            <rect x="293" y="1076" clip-path="url(#clipPath1)" fill="rgb(44,160,44)" width="51" stroke-dasharray="none" height="83" stroke="none"/>
            <rect x="293" y="1076" clip-path="url(#clipPath1)" fill="none" width="51" stroke-dasharray="none" height="83" stroke="black"/>
            <rect x="941" y="990" clip-path="url(#clipPath1)" fill="rgb(44,160,44)" width="51" stroke-dasharray="none" height="169" stroke="none"/>
            <rect x="941" y="990" clip-path="url(#clipPath1)" fill="none" width="51" stroke-dasharray="none" height="169" stroke="black"/>
            <rect x="1590" y="897" clip-path="url(#clipPath1)" fill="rgb(44,160,44)" width="51" stroke-dasharray="none" height="262" stroke="none"/>
            <rect x="1590" y="897" clip-path="url(#clipPath1)" fill="none" width="51" stroke-dasharray="none" height="262" stroke="black"/>
            <rect x="215" y="998" clip-path="url(#clipPath1)" fill="rgb(255,127,14)" width="51" stroke-dasharray="none" height="161" stroke="none"/>
            <rect x="215" y="998" clip-path="url(#clipPath1)" fill="none" width="51" stroke-dasharray="none" height="161" stroke="black"/>
            <rect x="863" y="846" clip-path="url(#clipPath1)" fill="rgb(255,127,14)" width="51" stroke-dasharray="none" height="313" stroke="none"/>
            <rect x="863" y="846" clip-path="url(#clipPath1)" fill="none" width="51" stroke-dasharray="none" height="313" stroke="black"/>
            <rect x="1512" y="694" clip-path="url(#clipPath1)" fill="rgb(255,127,14)" width="51" stroke-dasharray="none" height="465" stroke="none"/>
            <rect x="1512" y="694" clip-path="url(#clipPath1)" fill="none" width="51" stroke-dasharray="none" height="465" stroke="black"/>
            <rect x="137" y="722" clip-path="url(#clipPath1)" fill="rgb(31,119,180)" width="51" stroke-dasharray="none" height="437" stroke="none"/>
            <rect x="137" y="722" clip-path="url(#clipPath1)" fill="none" width="51" stroke-dasharray="none" height="437" stroke="black"/>
            <rect x="786" y="420" clip-path="url(#clipPath1)" fill="rgb(31,119,180)" width="51" stroke-dasharray="none" height="739" stroke="none"/>
            <rect x="786" y="420" clip-path="url(#clipPath1)" fill="none" width="51" stroke-dasharray="none" height="739" stroke="black"/>
            <rect x="1434" y="135" clip-path="url(#clipPath1)" fill="rgb(31,119,180)" width="51" stroke-dasharray="none" height="1024" stroke="none"/>
            <rect x="1434" y="135" clip-path="url(#clipPath1)" fill="none" width="51" stroke-dasharray="none" height="1024" stroke="black"/>
            <rect x="86" y="33" clip-path="url(#clipPath2)" fill="none" width="1919" stroke-dasharray="none" height="1104" stroke="black"/>
            <line clip-path="url(#clipPath2)" fill="none" x1="87" x2="2004" y1="1160" y2="1160" stroke-dasharray="none"/>
        </g>
        <g text-rendering="optimizeLegibility" font-size="20px" font-family="'Arial'" stroke-linecap="butt">
            <text x="890" xml:space="preserve" y="19" clip-path="url(#clipPath2)" stroke="none">Número de tramas que colisionan</text>
            <rect x="1903" y="38" clip-path="url(#clipPath3)" fill="white" width="97" opacity="0.753" height="166" stroke="none"/>
            <polygon fill="rgb(31,119,180)" clip-path="url(#clipPath3)" points=" 1912 48 1912 56 1920 56 1920 48" stroke="none"/>
            <text x="1925" xml:space="preserve" font-size="16px" y="58" clip-path="url(#clipPath3)" stroke="none">iaMean=1</text>
            <polygon fill="rgb(255,127,14)" clip-path="url(#clipPath3)" points=" 1912 71 1912 79 1920 79 1920 71" stroke="none"/>
            <text x="1925" xml:space="preserve" font-size="16px" y="81" clip-path="url(#clipPath3)" stroke="none">iaMean=2</text>
            <polygon fill="rgb(44,160,44)" clip-path="url(#clipPath3)" points=" 1912 94 1912 102 1920 102 1920 94" stroke="none"/>
            <text x="1925" xml:space="preserve" font-size="16px" y="104" clip-path="url(#clipPath3)" stroke="none">iaMean=3</text>
            <polygon fill="rgb(214,39,40)" clip-path="url(#clipPath3)" points=" 1912 117 1912 125 1920 125 1920 117" stroke="none"/>
            <text x="1925" xml:space="preserve" font-size="16px" y="127" clip-path="url(#clipPath3)" stroke="none">iaMean=4</text>
            <polygon fill="rgb(148,103,189)" clip-path="url(#clipPath3)" points=" 1912 140 1912 148 1920 148 1920 140" stroke="none"/>
            <text x="1925" xml:space="preserve" font-size="16px" y="150" clip-path="url(#clipPath3)" stroke="none">iaMean=5</text>
            <polygon fill="rgb(140,86,75)" clip-path="url(#clipPath3)" points=" 1912 163 1912 171 1920 171 1920 163" stroke="none"/>
            <text x="1925" xml:space="preserve" font-size="16px" y="173" clip-path="url(#clipPath3)" stroke="none">iaMean=7</text>
            <polygon fill="rgb(227,119,194)" clip-path="url(#clipPath3)" points=" 1912 186 1912 194 1920 194 1920 186" stroke="none"/>
            <text x="1925" xml:space="preserve" font-size="16px" y="196" clip-path="url(#clipPath3)" stroke="none">iaMean=9</text>
            <line y2="1137" fill="none" x1="84" clip-path="url(#clipPath2)" x2="84" y1="33"/>
            <line y2="1137" fill="none" x1="2007" clip-path="url(#clipPath2)" x2="2007" y1="33"/>
            <line y2="1127" fill="none" x1="82" clip-path="url(#clipPath2)" x2="84" y1="1127"/>
            <line y2="1127" fill="none" x1="2009" clip-path="url(#clipPath2)" x2="2007" y1="1127"/>
            <line y2="1117" fill="none" x1="82" clip-path="url(#clipPath2)" x2="84" y1="1117"/>
            <line y2="1117" fill="none" x1="2009" clip-path="url(#clipPath2)" x2="2007" y1="1117"/>
            <line y2="1106" fill="none" x1="80" clip-path="url(#clipPath2)" x2="84" y1="1106"/>
            <line y2="1106" fill="none" x1="2011" clip-path="url(#clipPath2)" x2="2007" y1="1106"/>
            <text x="38" xml:space="preserve" font-size="16px" y="1112" clip-path="url(#clipPath2)" stroke="none">5 000</text>
            <text x="2014" xml:space="preserve" font-size="16px" y="1112" clip-path="url(#clipPath2)" stroke="none">5 000</text>
            <line y2="1095" fill="none" x1="82" clip-path="url(#clipPath2)" x2="84" y1="1095"/>
            <line y2="1095" fill="none" x1="2009" clip-path="url(#clipPath2)" x2="2007" y1="1095"/>
            <line y2="1084" fill="none" x1="82" clip-path="url(#clipPath2)" x2="84" y1="1084"/>
            <line y2="1084" fill="none" x1="2009" clip-path="url(#clipPath2)" x2="2007" y1="1084"/>
            <line y2="1074" fill="none" x1="82" clip-path="url(#clipPath2)" x2="84" y1="1074"/>
            <line y2="1074" fill="none" x1="2009" clip-path="url(#clipPath2)" x2="2007" y1="1074"/>
            <line y2="1063" fill="none" x1="82" clip-path="url(#clipPath2)" x2="84" y1="1063"/>
            <line y2="1063" fill="none" x1="2009" clip-path="url(#clipPath2)" x2="2007" y1="1063"/>
            <line y2="1052" fill="none" x1="80" clip-path="url(#clipPath2)" x2="84" y1="1052"/>
            <line y2="1052" fill="none" x1="2011" clip-path="url(#clipPath2)" x2="2007" y1="1052"/>
            <text x="30" xml:space="preserve" font-size="16px" y="1058" clip-path="url(#clipPath2)" stroke="none">10 000</text>
            <text x="2014" xml:space="preserve" font-size="16px" y="1058" clip-path="url(#clipPath2)" stroke="none">10 000</text>
            <line y2="1042" fill="none" x1="82" clip-path="url(#clipPath2)" x2="84" y1="1042"/>
            <line y2="1042" fill="none" x1="2009" clip-path="url(#clipPath2)" x2="2007" y1="1042"/>
            <line y2="1031" fill="none" x1="82" clip-path="url(#clipPath2)" x2="84" y1="1031"/>
            <line y2="1031" fill="none" x1="2009" clip-path="url(#clipPath2)" x2="2007" y1="1031"/>
            <line y2="1020" fill="none" x1="82" clip-path="url(#clipPath2)" x2="84" y1="1020"/>
            <line y2="1020" fill="none" x1="2009" clip-path="url(#clipPath2)" x2="2007" y1="1020"/>
            <line y2="1009" fill="none" x1="82" clip-path="url(#clipPath2)" x2="84" y1="1009"/>
            <line y2="1009" fill="none" x1="2009" clip-path="url(#clipPath2)" x2="2007" y1="1009"/>
            <line y2="999" fill="none" x1="80" clip-path="url(#clipPath2)" x2="84" y1="999"/>
            <line y2="999" fill="none" x1="2011" clip-path="url(#clipPath2)" x2="2007" y1="999"/>
            <text x="30" xml:space="preserve" font-size="16px" y="1005" clip-path="url(#clipPath2)" stroke="none">15 000</text>
            <text x="2014" xml:space="preserve" font-size="16px" y="1005" clip-path="url(#clipPath2)" stroke="none">15 000</text>
            <line y2="988" fill="none" x1="82" clip-path="url(#clipPath2)" x2="84" y1="988"/>
            <line y2="988" fill="none" x1="2009" clip-path="url(#clipPath2)" x2="2007" y1="988"/>
            <line y2="977" fill="none" x1="82" clip-path="url(#clipPath2)" x2="84" y1="977"/>
            <line y2="977" fill="none" x1="2009" clip-path="url(#clipPath2)" x2="2007" y1="977"/>
            <line y2="967" fill="none" x1="82" clip-path="url(#clipPath2)" x2="84" y1="967"/>
            <line y2="967" fill="none" x1="2009" clip-path="url(#clipPath2)" x2="2007" y1="967"/>
            <line y2="956" fill="none" x1="82" clip-path="url(#clipPath2)" x2="84" y1="956"/>
            <line y2="956" fill="none" x1="2009" clip-path="url(#clipPath2)" x2="2007" y1="956"/>
            <line y2="945" fill="none" x1="80" clip-path="url(#clipPath2)" x2="84" y1="945"/>
            <line y2="945" fill="none" x1="2011" clip-path="url(#clipPath2)" x2="2007" y1="945"/>
            <text x="30" xml:space="preserve" font-size="16px" y="951" clip-path="url(#clipPath2)" stroke="none">20 000</text>
            <text x="2014" xml:space="preserve" font-size="16px" y="951" clip-path="url(#clipPath2)" stroke="none">20 000</text>
            <line y2="934" fill="none" x1="82" clip-path="url(#clipPath2)" x2="84" y1="934"/>
            <line y2="934" fill="none" x1="2009" clip-path="url(#clipPath2)" x2="2007" y1="934"/>
            <line y2="924" fill="none" x1="82" clip-path="url(#clipPath2)" x2="84" y1="924"/>
            <line y2="924" fill="none" x1="2009" clip-path="url(#clipPath2)" x2="2007" y1="924"/>
            <line y2="913" fill="none" x1="82" clip-path="url(#clipPath2)" x2="84" y1="913"/>
            <line y2="913" fill="none" x1="2009" clip-path="url(#clipPath2)" x2="2007" y1="913"/>
            <line y2="902" fill="none" x1="82" clip-path="url(#clipPath2)" x2="84" y1="902"/>
            <line y2="902" fill="none" x1="2009" clip-path="url(#clipPath2)" x2="2007" y1="902"/>
            <line y2="892" fill="none" x1="80" clip-path="url(#clipPath2)" x2="84" y1="892"/>
            <line y2="892" fill="none" x1="2011" clip-path="url(#clipPath2)" x2="2007" y1="892"/>
            <text x="30" xml:space="preserve" font-size="16px" y="898" clip-path="url(#clipPath2)" stroke="none">25 000</text>
            <text x="2014" xml:space="preserve" font-size="16px" y="898" clip-path="url(#clipPath2)" stroke="none">25 000</text>
            <line y2="881" fill="none" x1="82" clip-path="url(#clipPath2)" x2="84" y1="881"/>
            <line y2="881" fill="none" x1="2009" clip-path="url(#clipPath2)" x2="2007" y1="881"/>
            <line y2="870" fill="none" x1="82" clip-path="url(#clipPath2)" x2="84" y1="870"/>
            <line y2="870" fill="none" x1="2009" clip-path="url(#clipPath2)" x2="2007" y1="870"/>
            <line y2="859" fill="none" x1="82" clip-path="url(#clipPath2)" x2="84" y1="859"/>
            <line y2="859" fill="none" x1="2009" clip-path="url(#clipPath2)" x2="2007" y1="859"/>
            <line y2="849" fill="none" x1="82" clip-path="url(#clipPath2)" x2="84" y1="849"/>
            <line y2="849" fill="none" x1="2009" clip-path="url(#clipPath2)" x2="2007" y1="849"/>
            <line y2="838" fill="none" x1="80" clip-path="url(#clipPath2)" x2="84" y1="838"/>
            <line y2="838" fill="none" x1="2011" clip-path="url(#clipPath2)" x2="2007" y1="838"/>
            <text x="30" xml:space="preserve" font-size="16px" y="844" clip-path="url(#clipPath2)" stroke="none">30 000</text>
            <text x="2014" xml:space="preserve" font-size="16px" y="844" clip-path="url(#clipPath2)" stroke="none">30 000</text>
            <line y2="827" fill="none" x1="82" clip-path="url(#clipPath2)" x2="84" y1="827"/>
            <line y2="827" fill="none" x1="2009" clip-path="url(#clipPath2)" x2="2007" y1="827"/>
            <line y2="817" fill="none" x1="82" clip-path="url(#clipPath2)" x2="84" y1="817"/>
            <line y2="817" fill="none" x1="2009" clip-path="url(#clipPath2)" x2="2007" y1="817"/>
            <line y2="806" fill="none" x1="82" clip-path="url(#clipPath2)" x2="84" y1="806"/>
            <line y2="806" fill="none" x1="2009" clip-path="url(#clipPath2)" x2="2007" y1="806"/>
            <line y2="795" fill="none" x1="82" clip-path="url(#clipPath2)" x2="84" y1="795"/>
            <line y2="795" fill="none" x1="2009" clip-path="url(#clipPath2)" x2="2007" y1="795"/>
            <line y2="784" fill="none" x1="80" clip-path="url(#clipPath2)" x2="84" y1="784"/>
            <line y2="784" fill="none" x1="2011" clip-path="url(#clipPath2)" x2="2007" y1="784"/>
            <text x="30" xml:space="preserve" font-size="16px" y="790" clip-path="url(#clipPath2)" stroke="none">35 000</text>
            <text x="2014" xml:space="preserve" font-size="16px" y="790" clip-path="url(#clipPath2)" stroke="none">35 000</text>
            <line y2="774" fill="none" x1="82" clip-path="url(#clipPath2)" x2="84" y1="774"/>
            <line y2="774" fill="none" x1="2009" clip-path="url(#clipPath2)" x2="2007" y1="774"/>
            <line y2="763" fill="none" x1="82" clip-path="url(#clipPath2)" x2="84" y1="763"/>
            <line y2="763" fill="none" x1="2009" clip-path="url(#clipPath2)" x2="2007" y1="763"/>
            <line y2="752" fill="none" x1="82" clip-path="url(#clipPath2)" x2="84" y1="752"/>
            <line y2="752" fill="none" x1="2009" clip-path="url(#clipPath2)" x2="2007" y1="752"/>
            <line y2="741" fill="none" x1="82" clip-path="url(#clipPath2)" x2="84" y1="741"/>
            <line y2="741" fill="none" x1="2009" clip-path="url(#clipPath2)" x2="2007" y1="741"/>
            <line y2="731" fill="none" x1="80" clip-path="url(#clipPath2)" x2="84" y1="731"/>
            <line y2="731" fill="none" x1="2011" clip-path="url(#clipPath2)" x2="2007" y1="731"/>
            <text x="30" xml:space="preserve" font-size="16px" y="737" clip-path="url(#clipPath2)" stroke="none">40 000</text>
            <text x="2014" xml:space="preserve" font-size="16px" y="737" clip-path="url(#clipPath2)" stroke="none">40 000</text>
            <line y2="720" fill="none" x1="82" clip-path="url(#clipPath2)" x2="84" y1="720"/>
            <line y2="720" fill="none" x1="2009" clip-path="url(#clipPath2)" x2="2007" y1="720"/>
            <line y2="709" fill="none" x1="82" clip-path="url(#clipPath2)" x2="84" y1="709"/>
            <line y2="709" fill="none" x1="2009" clip-path="url(#clipPath2)" x2="2007" y1="709"/>
            <line y2="699" fill="none" x1="82" clip-path="url(#clipPath2)" x2="84" y1="699"/>
            <line y2="699" fill="none" x1="2009" clip-path="url(#clipPath2)" x2="2007" y1="699"/>
            <line y2="688" fill="none" x1="82" clip-path="url(#clipPath2)" x2="84" y1="688"/>
            <line y2="688" fill="none" x1="2009" clip-path="url(#clipPath2)" x2="2007" y1="688"/>
            <line y2="677" fill="none" x1="80" clip-path="url(#clipPath2)" x2="84" y1="677"/>
            <line y2="677" fill="none" x1="2011" clip-path="url(#clipPath2)" x2="2007" y1="677"/>
            <text x="30" xml:space="preserve" font-size="16px" y="683" clip-path="url(#clipPath2)" stroke="none">45 000</text>
            <text x="2014" xml:space="preserve" font-size="16px" y="683" clip-path="url(#clipPath2)" stroke="none">45 000</text>
            <line y2="666" fill="none" x1="82" clip-path="url(#clipPath2)" x2="84" y1="666"/>
            <line y2="666" fill="none" x1="2009" clip-path="url(#clipPath2)" x2="2007" y1="666"/>
            <line y2="656" fill="none" x1="82" clip-path="url(#clipPath2)" x2="84" y1="656"/>
            <line y2="656" fill="none" x1="2009" clip-path="url(#clipPath2)" x2="2007" y1="656"/>
            <line y2="645" fill="none" x1="82" clip-path="url(#clipPath2)" x2="84" y1="645"/>
            <line y2="645" fill="none" x1="2009" clip-path="url(#clipPath2)" x2="2007" y1="645"/>
            <line y2="634" fill="none" x1="82" clip-path="url(#clipPath2)" x2="84" y1="634"/>
            <line y2="634" fill="none" x1="2009" clip-path="url(#clipPath2)" x2="2007" y1="634"/>
            <line y2="624" fill="none" x1="80" clip-path="url(#clipPath2)" x2="84" y1="624"/>
            <line y2="624" fill="none" x1="2011" clip-path="url(#clipPath2)" x2="2007" y1="624"/>
            <text x="30" xml:space="preserve" font-size="16px" y="630" clip-path="url(#clipPath2)" stroke="none">50 000</text>
            <text x="2014" xml:space="preserve" font-size="16px" y="630" clip-path="url(#clipPath2)" stroke="none">50 000</text>
            <line y2="613" fill="none" x1="82" clip-path="url(#clipPath2)" x2="84" y1="613"/>
            <line y2="613" fill="none" x1="2009" clip-path="url(#clipPath2)" x2="2007" y1="613"/>
            <line y2="602" fill="none" x1="82" clip-path="url(#clipPath2)" x2="84" y1="602"/>
            <line y2="602" fill="none" x1="2009" clip-path="url(#clipPath2)" x2="2007" y1="602"/>
            <line y2="591" fill="none" x1="82" clip-path="url(#clipPath2)" x2="84" y1="591"/>
            <line y2="591" fill="none" x1="2009" clip-path="url(#clipPath2)" x2="2007" y1="591"/>
            <line y2="581" fill="none" x1="82" clip-path="url(#clipPath2)" x2="84" y1="581"/>
            <line y2="581" fill="none" x1="2009" clip-path="url(#clipPath2)" x2="2007" y1="581"/>
            <line y2="570" fill="none" x1="80" clip-path="url(#clipPath2)" x2="84" y1="570"/>
            <line y2="570" fill="none" x1="2011" clip-path="url(#clipPath2)" x2="2007" y1="570"/>
            <text x="30" xml:space="preserve" font-size="16px" y="576" clip-path="url(#clipPath2)" stroke="none">55 000</text>
            <text x="2014" xml:space="preserve" font-size="16px" y="576" clip-path="url(#clipPath2)" stroke="none">55 000</text>
            <line y2="559" fill="none" x1="82" clip-path="url(#clipPath2)" x2="84" y1="559"/>
            <line y2="559" fill="none" x1="2009" clip-path="url(#clipPath2)" x2="2007" y1="559"/>
            <line y2="549" fill="none" x1="82" clip-path="url(#clipPath2)" x2="84" y1="549"/>
            <line y2="549" fill="none" x1="2009" clip-path="url(#clipPath2)" x2="2007" y1="549"/>
            <line y2="538" fill="none" x1="82" clip-path="url(#clipPath2)" x2="84" y1="538"/>
            <line y2="538" fill="none" x1="2009" clip-path="url(#clipPath2)" x2="2007" y1="538"/>
            <line y2="527" fill="none" x1="82" clip-path="url(#clipPath2)" x2="84" y1="527"/>
            <line y2="527" fill="none" x1="2009" clip-path="url(#clipPath2)" x2="2007" y1="527"/>
            <line y2="516" fill="none" x1="80" clip-path="url(#clipPath2)" x2="84" y1="516"/>
            <line y2="516" fill="none" x1="2011" clip-path="url(#clipPath2)" x2="2007" y1="516"/>
            <text x="30" xml:space="preserve" font-size="16px" y="522" clip-path="url(#clipPath2)" stroke="none">60 000</text>
            <text x="2014" xml:space="preserve" font-size="16px" y="522" clip-path="url(#clipPath2)" stroke="none">60 000</text>
            <line y2="506" fill="none" x1="82" clip-path="url(#clipPath2)" x2="84" y1="506"/>
            <line y2="506" fill="none" x1="2009" clip-path="url(#clipPath2)" x2="2007" y1="506"/>
            <line y2="495" fill="none" x1="82" clip-path="url(#clipPath2)" x2="84" y1="495"/>
            <line y2="495" fill="none" x1="2009" clip-path="url(#clipPath2)" x2="2007" y1="495"/>
            <line y2="484" fill="none" x1="82" clip-path="url(#clipPath2)" x2="84" y1="484"/>
            <line y2="484" fill="none" x1="2009" clip-path="url(#clipPath2)" x2="2007" y1="484"/>
            <line y2="474" fill="none" x1="82" clip-path="url(#clipPath2)" x2="84" y1="474"/>
            <line y2="474" fill="none" x1="2009" clip-path="url(#clipPath2)" x2="2007" y1="474"/>
            <line y2="463" fill="none" x1="80" clip-path="url(#clipPath2)" x2="84" y1="463"/>
            <line y2="463" fill="none" x1="2011" clip-path="url(#clipPath2)" x2="2007" y1="463"/>
            <text x="30" xml:space="preserve" font-size="16px" y="469" clip-path="url(#clipPath2)" stroke="none">65 000</text>
            <text x="2014" xml:space="preserve" font-size="16px" y="469" clip-path="url(#clipPath2)" stroke="none">65 000</text>
            <line y2="452" fill="none" x1="82" clip-path="url(#clipPath2)" x2="84" y1="452"/>
            <line y2="452" fill="none" x1="2009" clip-path="url(#clipPath2)" x2="2007" y1="452"/>
            <line y2="441" fill="none" x1="82" clip-path="url(#clipPath2)" x2="84" y1="441"/>
            <line y2="441" fill="none" x1="2009" clip-path="url(#clipPath2)" x2="2007" y1="441"/>
            <line y2="431" fill="none" x1="82" clip-path="url(#clipPath2)" x2="84" y1="431"/>
            <line y2="431" fill="none" x1="2009" clip-path="url(#clipPath2)" x2="2007" y1="431"/>
            <line y2="420" fill="none" x1="82" clip-path="url(#clipPath2)" x2="84" y1="420"/>
            <line y2="420" fill="none" x1="2009" clip-path="url(#clipPath2)" x2="2007" y1="420"/>
            <line y2="409" fill="none" x1="80" clip-path="url(#clipPath2)" x2="84" y1="409"/>
            <line y2="409" fill="none" x1="2011" clip-path="url(#clipPath2)" x2="2007" y1="409"/>
            <text x="30" xml:space="preserve" font-size="16px" y="415" clip-path="url(#clipPath2)" stroke="none">70 000</text>
            <text x="2014" xml:space="preserve" font-size="16px" y="415" clip-path="url(#clipPath2)" stroke="none">70 000</text>
            <line y2="398" fill="none" x1="82" clip-path="url(#clipPath2)" x2="84" y1="398"/>
            <line y2="398" fill="none" x1="2009" clip-path="url(#clipPath2)" x2="2007" y1="398"/>
            <line y2="388" fill="none" x1="82" clip-path="url(#clipPath2)" x2="84" y1="388"/>
            <line y2="388" fill="none" x1="2009" clip-path="url(#clipPath2)" x2="2007" y1="388"/>
            <line y2="377" fill="none" x1="82" clip-path="url(#clipPath2)" x2="84" y1="377"/>
            <line y2="377" fill="none" x1="2009" clip-path="url(#clipPath2)" x2="2007" y1="377"/>
            <line y2="366" fill="none" x1="82" clip-path="url(#clipPath2)" x2="84" y1="366"/>
            <line y2="366" fill="none" x1="2009" clip-path="url(#clipPath2)" x2="2007" y1="366"/>
            <line y2="356" fill="none" x1="80" clip-path="url(#clipPath2)" x2="84" y1="356"/>
            <line y2="356" fill="none" x1="2011" clip-path="url(#clipPath2)" x2="2007" y1="356"/>
            <text x="30" xml:space="preserve" font-size="16px" y="362" clip-path="url(#clipPath2)" stroke="none">75 000</text>
            <text x="2014" xml:space="preserve" font-size="16px" y="362" clip-path="url(#clipPath2)" stroke="none">75 000</text>
            <line y2="345" fill="none" x1="82" clip-path="url(#clipPath2)" x2="84" y1="345"/>
            <line y2="345" fill="none" x1="2009" clip-path="url(#clipPath2)" x2="2007" y1="345"/>
            <line y2="334" fill="none" x1="82" clip-path="url(#clipPath2)" x2="84" y1="334"/>
            <line y2="334" fill="none" x1="2009" clip-path="url(#clipPath2)" x2="2007" y1="334"/>
            <line y2="323" fill="none" x1="82" clip-path="url(#clipPath2)" x2="84" y1="323"/>
            <line y2="323" fill="none" x1="2009" clip-path="url(#clipPath2)" x2="2007" y1="323"/>
            <line y2="313" fill="none" x1="82" clip-path="url(#clipPath2)" x2="84" y1="313"/>
            <line y2="313" fill="none" x1="2009" clip-path="url(#clipPath2)" x2="2007" y1="313"/>
            <line y2="302" fill="none" x1="80" clip-path="url(#clipPath2)" x2="84" y1="302"/>
            <line y2="302" fill="none" x1="2011" clip-path="url(#clipPath2)" x2="2007" y1="302"/>
            <text x="30" xml:space="preserve" font-size="16px" y="308" clip-path="url(#clipPath2)" stroke="none">80 000</text>
            <text x="2014" xml:space="preserve" font-size="16px" y="308" clip-path="url(#clipPath2)" stroke="none">80 000</text>
            <line y2="291" fill="none" x1="82" clip-path="url(#clipPath2)" x2="84" y1="291"/>
            <line y2="291" fill="none" x1="2009" clip-path="url(#clipPath2)" x2="2007" y1="291"/>
            <line y2="281" fill="none" x1="82" clip-path="url(#clipPath2)" x2="84" y1="281"/>
            <line y2="281" fill="none" x1="2009" clip-path="url(#clipPath2)" x2="2007" y1="281"/>
            <line y2="270" fill="none" x1="82" clip-path="url(#clipPath2)" x2="84" y1="270"/>
            <line y2="270" fill="none" x1="2009" clip-path="url(#clipPath2)" x2="2007" y1="270"/>
            <line y2="259" fill="none" x1="82" clip-path="url(#clipPath2)" x2="84" y1="259"/>
            <line y2="259" fill="none" x1="2009" clip-path="url(#clipPath2)" x2="2007" y1="259"/>
            <line y2="248" fill="none" x1="80" clip-path="url(#clipPath2)" x2="84" y1="248"/>
            <line y2="248" fill="none" x1="2011" clip-path="url(#clipPath2)" x2="2007" y1="248"/>
            <text x="30" xml:space="preserve" font-size="16px" y="254" clip-path="url(#clipPath2)" stroke="none">85 000</text>
            <text x="2014" xml:space="preserve" font-size="16px" y="254" clip-path="url(#clipPath2)" stroke="none">85 000</text>
            <line y2="238" fill="none" x1="82" clip-path="url(#clipPath2)" x2="84" y1="238"/>
            <line y2="238" fill="none" x1="2009" clip-path="url(#clipPath2)" x2="2007" y1="238"/>
            <line y2="227" fill="none" x1="82" clip-path="url(#clipPath2)" x2="84" y1="227"/>
            <line y2="227" fill="none" x1="2009" clip-path="url(#clipPath2)" x2="2007" y1="227"/>
            <line y2="216" fill="none" x1="82" clip-path="url(#clipPath2)" x2="84" y1="216"/>
            <line y2="216" fill="none" x1="2009" clip-path="url(#clipPath2)" x2="2007" y1="216"/>
            <line y2="206" fill="none" x1="82" clip-path="url(#clipPath2)" x2="84" y1="206"/>
            <line y2="206" fill="none" x1="2009" clip-path="url(#clipPath2)" x2="2007" y1="206"/>
            <line y2="195" fill="none" x1="80" clip-path="url(#clipPath2)" x2="84" y1="195"/>
            <line y2="195" fill="none" x1="2011" clip-path="url(#clipPath2)" x2="2007" y1="195"/>
            <text x="30" xml:space="preserve" font-size="16px" y="201" clip-path="url(#clipPath2)" stroke="none">90 000</text>
            <text x="2014" xml:space="preserve" font-size="16px" y="201" clip-path="url(#clipPath2)" stroke="none">90 000</text>
            <line y2="184" fill="none" x1="82" clip-path="url(#clipPath2)" x2="84" y1="184"/>
            <line y2="184" fill="none" x1="2009" clip-path="url(#clipPath2)" x2="2007" y1="184"/>
            <line y2="173" fill="none" x1="82" clip-path="url(#clipPath2)" x2="84" y1="173"/>
            <line y2="173" fill="none" x1="2009" clip-path="url(#clipPath2)" x2="2007" y1="173"/>
            <line y2="163" fill="none" x1="82" clip-path="url(#clipPath2)" x2="84" y1="163"/>
            <line y2="163" fill="none" x1="2009" clip-path="url(#clipPath2)" x2="2007" y1="163"/>
            <line y2="152" fill="none" x1="82" clip-path="url(#clipPath2)" x2="84" y1="152"/>
            <line y2="152" fill="none" x1="2009" clip-path="url(#clipPath2)" x2="2007" y1="152"/>
            <line y2="141" fill="none" x1="80" clip-path="url(#clipPath2)" x2="84" y1="141"/>
            <line y2="141" fill="none" x1="2011" clip-path="url(#clipPath2)" x2="2007" y1="141"/>
            <text x="30" xml:space="preserve" font-size="16px" y="147" clip-path="url(#clipPath2)" stroke="none">95 000</text>
            <text x="2014" xml:space="preserve" font-size="16px" y="147" clip-path="url(#clipPath2)" stroke="none">95 000</text>
            <line y2="131" fill="none" x1="82" clip-path="url(#clipPath2)" x2="84" y1="131"/>
            <line y2="131" fill="none" x1="2009" clip-path="url(#clipPath2)" x2="2007" y1="131"/>
            <line y2="120" fill="none" x1="82" clip-path="url(#clipPath2)" x2="84" y1="120"/>
            <line y2="120" fill="none" x1="2009" clip-path="url(#clipPath2)" x2="2007" y1="120"/>
            <line y2="109" fill="none" x1="82" clip-path="url(#clipPath2)" x2="84" y1="109"/>
            <line y2="109" fill="none" x1="2009" clip-path="url(#clipPath2)" x2="2007" y1="109"/>
            <line y2="98" fill="none" x1="82" clip-path="url(#clipPath2)" x2="84" y1="98"/>
            <line y2="98" fill="none" x1="2009" clip-path="url(#clipPath2)" x2="2007" y1="98"/>
            <line y2="88" fill="none" x1="80" clip-path="url(#clipPath2)" x2="84" y1="88"/>
            <line y2="88" fill="none" x1="2011" clip-path="url(#clipPath2)" x2="2007" y1="88"/>
            <text x="21" xml:space="preserve" font-size="16px" y="94" clip-path="url(#clipPath2)" stroke="none">100 000</text>
            <text x="2014" xml:space="preserve" font-size="16px" y="94" clip-path="url(#clipPath2)" stroke="none">100 000</text>
            <line y2="77" fill="none" x1="82" clip-path="url(#clipPath2)" x2="84" y1="77"/>
            <line y2="77" fill="none" x1="2009" clip-path="url(#clipPath2)" x2="2007" y1="77"/>
            <line y2="66" fill="none" x1="82" clip-path="url(#clipPath2)" x2="84" y1="66"/>
            <line y2="66" fill="none" x1="2009" clip-path="url(#clipPath2)" x2="2007" y1="66"/>
            <line y2="55" fill="none" x1="82" clip-path="url(#clipPath2)" x2="84" y1="55"/>
            <line y2="55" fill="none" x1="2009" clip-path="url(#clipPath2)" x2="2007" y1="55"/>
            <line y2="45" fill="none" x1="82" clip-path="url(#clipPath2)" x2="84" y1="45"/>
            <line y2="45" fill="none" x1="2009" clip-path="url(#clipPath2)" x2="2007" y1="45"/>
            <line y2="34" fill="none" x1="80" clip-path="url(#clipPath2)" x2="84" y1="34"/>
            <line y2="34" fill="none" x1="2011" clip-path="url(#clipPath2)" x2="2007" y1="34"/>
            <text x="21" xml:space="preserve" font-size="16px" y="40" clip-path="url(#clipPath2)" stroke="none">105 000</text>
            <text x="2014" xml:space="preserve" font-size="16px" y="40" clip-path="url(#clipPath2)" stroke="none">105 000</text>
            <line y2="1141" fill="none" x1="137" clip-path="url(#clipPath4)" x2="655" y1="1141"/>
            <line y2="1141" fill="none" x1="786" clip-path="url(#clipPath4)" x2="1303" y1="1141"/>
            <line y2="1141" fill="none" x1="1434" clip-path="url(#clipPath4)" x2="1952" y1="1141"/>
            <text x="137" xml:space="preserve" font-size="16px" y="1157" clip-path="url(#clipPath4)" stroke="none">10</text>
            <text x="786" xml:space="preserve" font-size="16px" y="1157" clip-path="url(#clipPath4)" stroke="none">15</text>
            <text x="1434" xml:space="preserve" font-size="16px" y="1157" clip-path="url(#clipPath4)" stroke="none">20</text>
            <text x="1009" xml:space="preserve" font-size="16px" y="1180" clip-path="url(#clipPath4)" stroke="none">numHosts</text>
        </g>
    </g>
</svg>
