<?xml version="1.0" encoding="UTF-8"?><svg xmlns="http://www.w3.org/2000/svg" xmlns:xlink="http://www.w3.org/1999/xlink" stroke-dasharray="none" shape-rendering="auto" font-family="'Dialog'" width="2073" text-rendering="auto" fill-opacity="1" contentScriptType="text/ecmascript" color-interpolation="auto" color-rendering="auto" preserveAspectRatio="xMidYMid meet" font-size="12px" fill="black" stroke="black" image-rendering="auto" stroke-miterlimit="10" zoomAndPan="magnify" version="1.0" stroke-linecap="square" stroke-linejoin="miter" contentStyleType="text/css" font-style="normal" height="1185" stroke-width="1" stroke-dashoffset="0" font-weight="normal" stroke-opacity="1">
    <!--Generated by the Batik Graphics2D SVG Generator-->
    <defs id="genericDefs"/>
    <g>
        <defs id="defs1">
            <clipPath clipPathUnits="userSpaceOnUse" id="clipPath1">
                <path d="M63 32 L2028 32 L2028 1138 L63 1138 L63 32 Z"/>
            </clipPath>
            <clipPath clipPathUnits="userSpaceOnUse" id="clipPath2">
                <path d="M-1 -1 L2074 -1 L2074 1186 L-1 1186 L-1 -1 Z"/>
            </clipPath>
            <clipPath clipPathUnits="userSpaceOnUse" id="clipPath3">
                <path d="M1924 37 L2024 37 L2024 206 L1924 206 L1924 37 Z"/>
            </clipPath>
            <clipPath clipPathUnits="userSpaceOnUse" id="clipPath4">
                <path d="M63 1136 L2028 1136 L2028 1186 L63 1186 L63 1136 Z"/>
            </clipPath>
        </defs>
        <g font-size="18px" fill="white" text-rendering="optimizeLegibility" font-family="'Segoe UI'" stroke-linejoin="round" stroke="white" stroke-width="0" stroke-miterlimit="0">
            <rect x="64" width="1963" height="1104" y="33" clip-path="url(#clipPath1)" stroke="none"/>
        </g>
        <g stroke-linecap="butt" font-size="18px" fill="rgb(204,204,204)" text-rendering="optimizeLegibility" font-family="'Segoe UI'" stroke-dasharray="3,3" stroke="rgb(204,204,204)">
            <line y2="1107" fill="none" x1="64" clip-path="url(#clipPath1)" x2="2027" y1="1107"/>
            <line y2="1055" fill="none" x1="64" clip-path="url(#clipPath1)" x2="2027" y1="1055"/>
            <line y2="1002" fill="none" x1="64" clip-path="url(#clipPath1)" x2="2027" y1="1002"/>
            <line y2="950" fill="none" x1="64" clip-path="url(#clipPath1)" x2="2027" y1="950"/>
            <line y2="897" fill="none" x1="64" clip-path="url(#clipPath1)" x2="2027" y1="897"/>
            <line y2="845" fill="none" x1="64" clip-path="url(#clipPath1)" x2="2027" y1="845"/>
            <line y2="792" fill="none" x1="64" clip-path="url(#clipPath1)" x2="2027" y1="792"/>
            <line y2="740" fill="none" x1="64" clip-path="url(#clipPath1)" x2="2027" y1="740"/>
            <line y2="688" fill="none" x1="64" clip-path="url(#clipPath1)" x2="2027" y1="688"/>
            <line y2="635" fill="none" x1="64" clip-path="url(#clipPath1)" x2="2027" y1="635"/>
            <line y2="583" fill="none" x1="64" clip-path="url(#clipPath1)" x2="2027" y1="583"/>
            <line y2="530" fill="none" x1="64" clip-path="url(#clipPath1)" x2="2027" y1="530"/>
            <line y2="478" fill="none" x1="64" clip-path="url(#clipPath1)" x2="2027" y1="478"/>
            <line y2="425" fill="none" x1="64" clip-path="url(#clipPath1)" x2="2027" y1="425"/>
            <line y2="373" fill="none" x1="64" clip-path="url(#clipPath1)" x2="2027" y1="373"/>
            <line y2="321" fill="none" x1="64" clip-path="url(#clipPath1)" x2="2027" y1="321"/>
            <line y2="268" fill="none" x1="64" clip-path="url(#clipPath1)" x2="2027" y1="268"/>
            <line y2="216" fill="none" x1="64" clip-path="url(#clipPath1)" x2="2027" y1="216"/>
            <line y2="163" fill="none" x1="64" clip-path="url(#clipPath1)" x2="2027" y1="163"/>
            <line y2="111" fill="none" x1="64" clip-path="url(#clipPath1)" x2="2027" y1="111"/>
            <line y2="58" fill="none" x1="64" clip-path="url(#clipPath1)" x2="2027" y1="58"/>
            <rect x="594" y="701" clip-path="url(#clipPath1)" fill="rgb(227,119,194)" width="53" height="458" stroke="none"/>
            <rect x="594" y="701" clip-path="url(#clipPath1)" fill="none" width="53" stroke-dasharray="none" height="458" stroke="black"/>
            <rect x="1257" y="537" clip-path="url(#clipPath1)" fill="rgb(227,119,194)" width="53" stroke-dasharray="none" height="622" stroke="none"/>
            <rect x="1257" y="537" clip-path="url(#clipPath1)" fill="none" width="53" stroke-dasharray="none" height="622" stroke="black"/>
            <rect x="1920" y="412" clip-path="url(#clipPath1)" fill="rgb(227,119,194)" width="53" stroke-dasharray="none" height="747" stroke="none"/>
            <rect x="1920" y="412" clip-path="url(#clipPath1)" fill="none" width="53" stroke-dasharray="none" height="747" stroke="black"/>
            <rect x="514" y="598" clip-path="url(#clipPath1)" fill="rgb(140,86,75)" width="53" stroke-dasharray="none" height="561" stroke="none"/>
            <rect x="514" y="598" clip-path="url(#clipPath1)" fill="none" width="53" stroke-dasharray="none" height="561" stroke="black"/>
            <rect x="1178" y="418" clip-path="url(#clipPath1)" fill="rgb(140,86,75)" width="53" stroke-dasharray="none" height="741" stroke="none"/>
            <rect x="1178" y="418" clip-path="url(#clipPath1)" fill="none" width="53" stroke-dasharray="none" height="741" stroke="black"/>
            <rect x="1841" y="293" clip-path="url(#clipPath1)" fill="rgb(140,86,75)" width="53" stroke-dasharray="none" height="866" stroke="none"/>
            <rect x="1841" y="293" clip-path="url(#clipPath1)" fill="none" width="53" stroke-dasharray="none" height="866" stroke="black"/>
            <rect x="435" y="442" clip-path="url(#clipPath1)" fill="rgb(148,103,189)" width="53" stroke-dasharray="none" height="717" stroke="none"/>
            <rect x="435" y="442" clip-path="url(#clipPath1)" fill="none" width="53" stroke-dasharray="none" height="717" stroke="black"/>
            <rect x="1098" y="278" clip-path="url(#clipPath1)" fill="rgb(148,103,189)" width="53" stroke-dasharray="none" height="881" stroke="none"/>
            <rect x="1098" y="278" clip-path="url(#clipPath1)" fill="none" width="53" stroke-dasharray="none" height="881" stroke="black"/>
            <rect x="1761" y="204" clip-path="url(#clipPath1)" fill="rgb(148,103,189)" width="53" stroke-dasharray="none" height="955" stroke="none"/>
            <rect x="1761" y="204" clip-path="url(#clipPath1)" fill="none" width="53" stroke-dasharray="none" height="955" stroke="black"/>
            <rect x="355" y="338" clip-path="url(#clipPath1)" fill="rgb(214,39,40)" width="53" stroke-dasharray="none" height="821" stroke="none"/>
            <rect x="355" y="338" clip-path="url(#clipPath1)" fill="none" width="53" stroke-dasharray="none" height="821" stroke="black"/>
            <rect x="1018" y="203" clip-path="url(#clipPath1)" fill="rgb(214,39,40)" width="53" stroke-dasharray="none" height="956" stroke="none"/>
            <rect x="1018" y="203" clip-path="url(#clipPath1)" fill="none" width="53" stroke-dasharray="none" height="956" stroke="black"/>
            <rect x="1682" y="162" clip-path="url(#clipPath1)" fill="rgb(214,39,40)" width="53" stroke-dasharray="none" height="997" stroke="none"/>
            <rect x="1682" y="162" clip-path="url(#clipPath1)" fill="none" width="53" stroke-dasharray="none" height="997" stroke="black"/>
            <rect x="276" y="224" clip-path="url(#clipPath1)" fill="rgb(44,160,44)" width="53" stroke-dasharray="none" height="935" stroke="none"/>
            <rect x="276" y="224" clip-path="url(#clipPath1)" fill="none" width="53" stroke-dasharray="none" height="935" stroke="black"/>
            <rect x="939" y="158" clip-path="url(#clipPath1)" fill="rgb(44,160,44)" width="53" stroke-dasharray="none" height="1001" stroke="none"/>
            <rect x="939" y="158" clip-path="url(#clipPath1)" fill="none" width="53" stroke-dasharray="none" height="1001" stroke="black"/>
            <rect x="1602" y="199" clip-path="url(#clipPath1)" fill="rgb(44,160,44)" width="53" stroke-dasharray="none" height="960" stroke="none"/>
            <rect x="1602" y="199" clip-path="url(#clipPath1)" fill="none" width="53" stroke-dasharray="none" height="960" stroke="black"/>
            <rect x="196" y="135" clip-path="url(#clipPath1)" fill="rgb(255,127,14)" width="53" stroke-dasharray="none" height="1024" stroke="none"/>
            <rect x="196" y="135" clip-path="url(#clipPath1)" fill="none" width="53" stroke-dasharray="none" height="1024" stroke="black"/>
            <rect x="859" y="232" clip-path="url(#clipPath1)" fill="rgb(255,127,14)" width="53" stroke-dasharray="none" height="927" stroke="none"/>
            <rect x="859" y="232" clip-path="url(#clipPath1)" fill="none" width="53" stroke-dasharray="none" height="927" stroke="black"/>
            <rect x="1522" y="386" clip-path="url(#clipPath1)" fill="rgb(255,127,14)" width="53" stroke-dasharray="none" height="773" stroke="none"/>
            <rect x="1522" y="386" clip-path="url(#clipPath1)" fill="none" width="53" stroke-dasharray="none" height="773" stroke="black"/>
            <rect x="117" y="341" clip-path="url(#clipPath1)" fill="rgb(31,119,180)" width="53" stroke-dasharray="none" height="818" stroke="none"/>
            <rect x="117" y="341" clip-path="url(#clipPath1)" fill="none" width="53" stroke-dasharray="none" height="818" stroke="black"/>
            <rect x="780" y="689" clip-path="url(#clipPath1)" fill="rgb(31,119,180)" width="53" stroke-dasharray="none" height="470" stroke="none"/>
            <rect x="780" y="689" clip-path="url(#clipPath1)" fill="none" width="53" stroke-dasharray="none" height="470" stroke="black"/>
            <rect x="1443" y="915" clip-path="url(#clipPath1)" fill="rgb(31,119,180)" width="53" stroke-dasharray="none" height="244" stroke="none"/>
            <rect x="1443" y="915" clip-path="url(#clipPath1)" fill="none" width="53" stroke-dasharray="none" height="244" stroke="black"/>
            <rect x="64" y="33" clip-path="url(#clipPath2)" fill="none" width="1963" stroke-dasharray="none" height="1104" stroke="black"/>
            <line clip-path="url(#clipPath2)" fill="none" x1="65" x2="2026" y1="1160" y2="1160" stroke-dasharray="none"/>
        </g>
        <g text-rendering="optimizeLegibility" font-size="20px" font-family="'Arial'" stroke-linecap="butt">
            <text x="951" xml:space="preserve" y="19" clip-path="url(#clipPath2)" stroke="none">Utilización del canal</text>
            <rect x="1925" y="38" clip-path="url(#clipPath3)" fill="white" width="97" opacity="0.753" height="166" stroke="none"/>
            <polygon fill="rgb(31,119,180)" clip-path="url(#clipPath3)" points=" 1934 48 1934 56 1942 56 1942 48" stroke="none"/>
            <text x="1947" xml:space="preserve" font-size="16px" y="58" clip-path="url(#clipPath3)" stroke="none">iaMean=1</text>
            <polygon fill="rgb(255,127,14)" clip-path="url(#clipPath3)" points=" 1934 71 1934 79 1942 79 1942 71" stroke="none"/>
            <text x="1947" xml:space="preserve" font-size="16px" y="81" clip-path="url(#clipPath3)" stroke="none">iaMean=2</text>
            <polygon fill="rgb(44,160,44)" clip-path="url(#clipPath3)" points=" 1934 94 1934 102 1942 102 1942 94" stroke="none"/>
            <text x="1947" xml:space="preserve" font-size="16px" y="104" clip-path="url(#clipPath3)" stroke="none">iaMean=3</text>
            <polygon fill="rgb(214,39,40)" clip-path="url(#clipPath3)" points=" 1934 117 1934 125 1942 125 1942 117" stroke="none"/>
            <text x="1947" xml:space="preserve" font-size="16px" y="127" clip-path="url(#clipPath3)" stroke="none">iaMean=4</text>
            <polygon fill="rgb(148,103,189)" clip-path="url(#clipPath3)" points=" 1934 140 1934 148 1942 148 1942 140" stroke="none"/>
            <text x="1947" xml:space="preserve" font-size="16px" y="150" clip-path="url(#clipPath3)" stroke="none">iaMean=5</text>
            <polygon fill="rgb(140,86,75)" clip-path="url(#clipPath3)" points=" 1934 163 1934 171 1942 171 1942 163" stroke="none"/>
            <text x="1947" xml:space="preserve" font-size="16px" y="173" clip-path="url(#clipPath3)" stroke="none">iaMean=7</text>
            <polygon fill="rgb(227,119,194)" clip-path="url(#clipPath3)" points=" 1934 186 1934 194 1942 194 1942 186" stroke="none"/>
            <text x="1947" xml:space="preserve" font-size="16px" y="196" clip-path="url(#clipPath3)" stroke="none">iaMean=9</text>
            <line y2="1137" fill="none" x1="62" clip-path="url(#clipPath2)" x2="62" y1="33"/>
            <line y2="1137" fill="none" x1="2029" clip-path="url(#clipPath2)" x2="2029" y1="33"/>
            <line y2="1128" fill="none" x1="60" clip-path="url(#clipPath2)" x2="62" y1="1128"/>
            <line y2="1128" fill="none" x1="2031" clip-path="url(#clipPath2)" x2="2029" y1="1128"/>
            <line y2="1118" fill="none" x1="60" clip-path="url(#clipPath2)" x2="62" y1="1118"/>
            <line y2="1118" fill="none" x1="2031" clip-path="url(#clipPath2)" x2="2029" y1="1118"/>
            <line y2="1107" fill="none" x1="58" clip-path="url(#clipPath2)" x2="62" y1="1107"/>
            <line y2="1107" fill="none" x1="2033" clip-path="url(#clipPath2)" x2="2029" y1="1107"/>
            <text x="25" xml:space="preserve" font-size="16px" y="1113" clip-path="url(#clipPath2)" stroke="none">0,01</text>
            <text x="2036" xml:space="preserve" font-size="16px" y="1113" clip-path="url(#clipPath2)" stroke="none">0,01</text>
            <line y2="1097" fill="none" x1="60" clip-path="url(#clipPath2)" x2="62" y1="1097"/>
            <line y2="1097" fill="none" x1="2031" clip-path="url(#clipPath2)" x2="2029" y1="1097"/>
            <line y2="1086" fill="none" x1="60" clip-path="url(#clipPath2)" x2="62" y1="1086"/>
            <line y2="1086" fill="none" x1="2031" clip-path="url(#clipPath2)" x2="2029" y1="1086"/>
            <line y2="1076" fill="none" x1="60" clip-path="url(#clipPath2)" x2="62" y1="1076"/>
            <line y2="1076" fill="none" x1="2031" clip-path="url(#clipPath2)" x2="2029" y1="1076"/>
            <line y2="1065" fill="none" x1="60" clip-path="url(#clipPath2)" x2="62" y1="1065"/>
            <line y2="1065" fill="none" x1="2031" clip-path="url(#clipPath2)" x2="2029" y1="1065"/>
            <line y2="1055" fill="none" x1="58" clip-path="url(#clipPath2)" x2="62" y1="1055"/>
            <line y2="1055" fill="none" x1="2033" clip-path="url(#clipPath2)" x2="2029" y1="1055"/>
            <text x="25" xml:space="preserve" font-size="16px" y="1061" clip-path="url(#clipPath2)" stroke="none">0,02</text>
            <text x="2036" xml:space="preserve" font-size="16px" y="1061" clip-path="url(#clipPath2)" stroke="none">0,02</text>
            <line y2="1044" fill="none" x1="60" clip-path="url(#clipPath2)" x2="62" y1="1044"/>
            <line y2="1044" fill="none" x1="2031" clip-path="url(#clipPath2)" x2="2029" y1="1044"/>
            <line y2="1034" fill="none" x1="60" clip-path="url(#clipPath2)" x2="62" y1="1034"/>
            <line y2="1034" fill="none" x1="2031" clip-path="url(#clipPath2)" x2="2029" y1="1034"/>
            <line y2="1023" fill="none" x1="60" clip-path="url(#clipPath2)" x2="62" y1="1023"/>
            <line y2="1023" fill="none" x1="2031" clip-path="url(#clipPath2)" x2="2029" y1="1023"/>
            <line y2="1013" fill="none" x1="60" clip-path="url(#clipPath2)" x2="62" y1="1013"/>
            <line y2="1013" fill="none" x1="2031" clip-path="url(#clipPath2)" x2="2029" y1="1013"/>
            <line y2="1002" fill="none" x1="58" clip-path="url(#clipPath2)" x2="62" y1="1002"/>
            <line y2="1002" fill="none" x1="2033" clip-path="url(#clipPath2)" x2="2029" y1="1002"/>
            <text x="25" xml:space="preserve" font-size="16px" y="1008" clip-path="url(#clipPath2)" stroke="none">0,03</text>
            <text x="2036" xml:space="preserve" font-size="16px" y="1008" clip-path="url(#clipPath2)" stroke="none">0,03</text>
            <line y2="992" fill="none" x1="60" clip-path="url(#clipPath2)" x2="62" y1="992"/>
            <line y2="992" fill="none" x1="2031" clip-path="url(#clipPath2)" x2="2029" y1="992"/>
            <line y2="981" fill="none" x1="60" clip-path="url(#clipPath2)" x2="62" y1="981"/>
            <line y2="981" fill="none" x1="2031" clip-path="url(#clipPath2)" x2="2029" y1="981"/>
            <line y2="971" fill="none" x1="60" clip-path="url(#clipPath2)" x2="62" y1="971"/>
            <line y2="971" fill="none" x1="2031" clip-path="url(#clipPath2)" x2="2029" y1="971"/>
            <line y2="960" fill="none" x1="60" clip-path="url(#clipPath2)" x2="62" y1="960"/>
            <line y2="960" fill="none" x1="2031" clip-path="url(#clipPath2)" x2="2029" y1="960"/>
            <line y2="950" fill="none" x1="58" clip-path="url(#clipPath2)" x2="62" y1="950"/>
            <line y2="950" fill="none" x1="2033" clip-path="url(#clipPath2)" x2="2029" y1="950"/>
            <text x="25" xml:space="preserve" font-size="16px" y="956" clip-path="url(#clipPath2)" stroke="none">0,04</text>
            <text x="2036" xml:space="preserve" font-size="16px" y="956" clip-path="url(#clipPath2)" stroke="none">0,04</text>
            <line y2="939" fill="none" x1="60" clip-path="url(#clipPath2)" x2="62" y1="939"/>
            <line y2="939" fill="none" x1="2031" clip-path="url(#clipPath2)" x2="2029" y1="939"/>
            <line y2="929" fill="none" x1="60" clip-path="url(#clipPath2)" x2="62" y1="929"/>
            <line y2="929" fill="none" x1="2031" clip-path="url(#clipPath2)" x2="2029" y1="929"/>
            <line y2="918" fill="none" x1="60" clip-path="url(#clipPath2)" x2="62" y1="918"/>
            <line y2="918" fill="none" x1="2031" clip-path="url(#clipPath2)" x2="2029" y1="918"/>
            <line y2="908" fill="none" x1="60" clip-path="url(#clipPath2)" x2="62" y1="908"/>
            <line y2="908" fill="none" x1="2031" clip-path="url(#clipPath2)" x2="2029" y1="908"/>
            <line y2="897" fill="none" x1="58" clip-path="url(#clipPath2)" x2="62" y1="897"/>
            <line y2="897" fill="none" x1="2033" clip-path="url(#clipPath2)" x2="2029" y1="897"/>
            <text x="25" xml:space="preserve" font-size="16px" y="903" clip-path="url(#clipPath2)" stroke="none">0,05</text>
            <text x="2036" xml:space="preserve" font-size="16px" y="903" clip-path="url(#clipPath2)" stroke="none">0,05</text>
            <line y2="887" fill="none" x1="60" clip-path="url(#clipPath2)" x2="62" y1="887"/>
            <line y2="887" fill="none" x1="2031" clip-path="url(#clipPath2)" x2="2029" y1="887"/>
            <line y2="876" fill="none" x1="60" clip-path="url(#clipPath2)" x2="62" y1="876"/>
            <line y2="876" fill="none" x1="2031" clip-path="url(#clipPath2)" x2="2029" y1="876"/>
            <line y2="866" fill="none" x1="60" clip-path="url(#clipPath2)" x2="62" y1="866"/>
            <line y2="866" fill="none" x1="2031" clip-path="url(#clipPath2)" x2="2029" y1="866"/>
            <line y2="855" fill="none" x1="60" clip-path="url(#clipPath2)" x2="62" y1="855"/>
            <line y2="855" fill="none" x1="2031" clip-path="url(#clipPath2)" x2="2029" y1="855"/>
            <line y2="845" fill="none" x1="58" clip-path="url(#clipPath2)" x2="62" y1="845"/>
            <line y2="845" fill="none" x1="2033" clip-path="url(#clipPath2)" x2="2029" y1="845"/>
            <text x="25" xml:space="preserve" font-size="16px" y="851" clip-path="url(#clipPath2)" stroke="none">0,06</text>
            <text x="2036" xml:space="preserve" font-size="16px" y="851" clip-path="url(#clipPath2)" stroke="none">0,06</text>
            <line y2="834" fill="none" x1="60" clip-path="url(#clipPath2)" x2="62" y1="834"/>
            <line y2="834" fill="none" x1="2031" clip-path="url(#clipPath2)" x2="2029" y1="834"/>
            <line y2="824" fill="none" x1="60" clip-path="url(#clipPath2)" x2="62" y1="824"/>
            <line y2="824" fill="none" x1="2031" clip-path="url(#clipPath2)" x2="2029" y1="824"/>
            <line y2="813" fill="none" x1="60" clip-path="url(#clipPath2)" x2="62" y1="813"/>
            <line y2="813" fill="none" x1="2031" clip-path="url(#clipPath2)" x2="2029" y1="813"/>
            <line y2="803" fill="none" x1="60" clip-path="url(#clipPath2)" x2="62" y1="803"/>
            <line y2="803" fill="none" x1="2031" clip-path="url(#clipPath2)" x2="2029" y1="803"/>
            <line y2="792" fill="none" x1="58" clip-path="url(#clipPath2)" x2="62" y1="792"/>
            <line y2="792" fill="none" x1="2033" clip-path="url(#clipPath2)" x2="2029" y1="792"/>
            <text x="25" xml:space="preserve" font-size="16px" y="798" clip-path="url(#clipPath2)" stroke="none">0,07</text>
            <text x="2036" xml:space="preserve" font-size="16px" y="798" clip-path="url(#clipPath2)" stroke="none">0,07</text>
            <line y2="782" fill="none" x1="60" clip-path="url(#clipPath2)" x2="62" y1="782"/>
            <line y2="782" fill="none" x1="2031" clip-path="url(#clipPath2)" x2="2029" y1="782"/>
            <line y2="772" fill="none" x1="60" clip-path="url(#clipPath2)" x2="62" y1="772"/>
            <line y2="772" fill="none" x1="2031" clip-path="url(#clipPath2)" x2="2029" y1="772"/>
            <line y2="761" fill="none" x1="60" clip-path="url(#clipPath2)" x2="62" y1="761"/>
            <line y2="761" fill="none" x1="2031" clip-path="url(#clipPath2)" x2="2029" y1="761"/>
            <line y2="751" fill="none" x1="60" clip-path="url(#clipPath2)" x2="62" y1="751"/>
            <line y2="751" fill="none" x1="2031" clip-path="url(#clipPath2)" x2="2029" y1="751"/>
            <line y2="740" fill="none" x1="58" clip-path="url(#clipPath2)" x2="62" y1="740"/>
            <line y2="740" fill="none" x1="2033" clip-path="url(#clipPath2)" x2="2029" y1="740"/>
            <text x="25" xml:space="preserve" font-size="16px" y="746" clip-path="url(#clipPath2)" stroke="none">0,08</text>
            <text x="2036" xml:space="preserve" font-size="16px" y="746" clip-path="url(#clipPath2)" stroke="none">0,08</text>
            <line y2="730" fill="none" x1="60" clip-path="url(#clipPath2)" x2="62" y1="730"/>
            <line y2="730" fill="none" x1="2031" clip-path="url(#clipPath2)" x2="2029" y1="730"/>
            <line y2="719" fill="none" x1="60" clip-path="url(#clipPath2)" x2="62" y1="719"/>
            <line y2="719" fill="none" x1="2031" clip-path="url(#clipPath2)" x2="2029" y1="719"/>
            <line y2="709" fill="none" x1="60" clip-path="url(#clipPath2)" x2="62" y1="709"/>
            <line y2="709" fill="none" x1="2031" clip-path="url(#clipPath2)" x2="2029" y1="709"/>
            <line y2="698" fill="none" x1="60" clip-path="url(#clipPath2)" x2="62" y1="698"/>
            <line y2="698" fill="none" x1="2031" clip-path="url(#clipPath2)" x2="2029" y1="698"/>
            <line y2="688" fill="none" x1="58" clip-path="url(#clipPath2)" x2="62" y1="688"/>
            <line y2="688" fill="none" x1="2033" clip-path="url(#clipPath2)" x2="2029" y1="688"/>
            <text x="25" xml:space="preserve" font-size="16px" y="694" clip-path="url(#clipPath2)" stroke="none">0,09</text>
            <text x="2036" xml:space="preserve" font-size="16px" y="694" clip-path="url(#clipPath2)" stroke="none">0,09</text>
            <line y2="677" fill="none" x1="60" clip-path="url(#clipPath2)" x2="62" y1="677"/>
            <line y2="677" fill="none" x1="2031" clip-path="url(#clipPath2)" x2="2029" y1="677"/>
            <line y2="667" fill="none" x1="60" clip-path="url(#clipPath2)" x2="62" y1="667"/>
            <line y2="667" fill="none" x1="2031" clip-path="url(#clipPath2)" x2="2029" y1="667"/>
            <line y2="656" fill="none" x1="60" clip-path="url(#clipPath2)" x2="62" y1="656"/>
            <line y2="656" fill="none" x1="2031" clip-path="url(#clipPath2)" x2="2029" y1="656"/>
            <line y2="646" fill="none" x1="60" clip-path="url(#clipPath2)" x2="62" y1="646"/>
            <line y2="646" fill="none" x1="2031" clip-path="url(#clipPath2)" x2="2029" y1="646"/>
            <line y2="635" fill="none" x1="58" clip-path="url(#clipPath2)" x2="62" y1="635"/>
            <line y2="635" fill="none" x1="2033" clip-path="url(#clipPath2)" x2="2029" y1="635"/>
            <text x="34" xml:space="preserve" font-size="16px" y="641" clip-path="url(#clipPath2)" stroke="none">0,1</text>
            <text x="2036" xml:space="preserve" font-size="16px" y="641" clip-path="url(#clipPath2)" stroke="none">0,1</text>
            <line y2="625" fill="none" x1="60" clip-path="url(#clipPath2)" x2="62" y1="625"/>
            <line y2="625" fill="none" x1="2031" clip-path="url(#clipPath2)" x2="2029" y1="625"/>
            <line y2="614" fill="none" x1="60" clip-path="url(#clipPath2)" x2="62" y1="614"/>
            <line y2="614" fill="none" x1="2031" clip-path="url(#clipPath2)" x2="2029" y1="614"/>
            <line y2="604" fill="none" x1="60" clip-path="url(#clipPath2)" x2="62" y1="604"/>
            <line y2="604" fill="none" x1="2031" clip-path="url(#clipPath2)" x2="2029" y1="604"/>
            <line y2="593" fill="none" x1="60" clip-path="url(#clipPath2)" x2="62" y1="593"/>
            <line y2="593" fill="none" x1="2031" clip-path="url(#clipPath2)" x2="2029" y1="593"/>
            <line y2="583" fill="none" x1="58" clip-path="url(#clipPath2)" x2="62" y1="583"/>
            <line y2="583" fill="none" x1="2033" clip-path="url(#clipPath2)" x2="2029" y1="583"/>
            <text x="25" xml:space="preserve" font-size="16px" y="589" clip-path="url(#clipPath2)" stroke="none">0,11</text>
            <text x="2036" xml:space="preserve" font-size="16px" y="589" clip-path="url(#clipPath2)" stroke="none">0,11</text>
            <line y2="572" fill="none" x1="60" clip-path="url(#clipPath2)" x2="62" y1="572"/>
            <line y2="572" fill="none" x1="2031" clip-path="url(#clipPath2)" x2="2029" y1="572"/>
            <line y2="562" fill="none" x1="60" clip-path="url(#clipPath2)" x2="62" y1="562"/>
            <line y2="562" fill="none" x1="2031" clip-path="url(#clipPath2)" x2="2029" y1="562"/>
            <line y2="551" fill="none" x1="60" clip-path="url(#clipPath2)" x2="62" y1="551"/>
            <line y2="551" fill="none" x1="2031" clip-path="url(#clipPath2)" x2="2029" y1="551"/>
            <line y2="541" fill="none" x1="60" clip-path="url(#clipPath2)" x2="62" y1="541"/>
            <line y2="541" fill="none" x1="2031" clip-path="url(#clipPath2)" x2="2029" y1="541"/>
            <line y2="530" fill="none" x1="58" clip-path="url(#clipPath2)" x2="62" y1="530"/>
            <line y2="530" fill="none" x1="2033" clip-path="url(#clipPath2)" x2="2029" y1="530"/>
            <text x="25" xml:space="preserve" font-size="16px" y="536" clip-path="url(#clipPath2)" stroke="none">0,12</text>
            <text x="2036" xml:space="preserve" font-size="16px" y="536" clip-path="url(#clipPath2)" stroke="none">0,12</text>
            <line y2="520" fill="none" x1="60" clip-path="url(#clipPath2)" x2="62" y1="520"/>
            <line y2="520" fill="none" x1="2031" clip-path="url(#clipPath2)" x2="2029" y1="520"/>
            <line y2="509" fill="none" x1="60" clip-path="url(#clipPath2)" x2="62" y1="509"/>
            <line y2="509" fill="none" x1="2031" clip-path="url(#clipPath2)" x2="2029" y1="509"/>
            <line y2="499" fill="none" x1="60" clip-path="url(#clipPath2)" x2="62" y1="499"/>
            <line y2="499" fill="none" x1="2031" clip-path="url(#clipPath2)" x2="2029" y1="499"/>
            <line y2="488" fill="none" x1="60" clip-path="url(#clipPath2)" x2="62" y1="488"/>
            <line y2="488" fill="none" x1="2031" clip-path="url(#clipPath2)" x2="2029" y1="488"/>
            <line y2="478" fill="none" x1="58" clip-path="url(#clipPath2)" x2="62" y1="478"/>
            <line y2="478" fill="none" x1="2033" clip-path="url(#clipPath2)" x2="2029" y1="478"/>
            <text x="25" xml:space="preserve" font-size="16px" y="484" clip-path="url(#clipPath2)" stroke="none">0,13</text>
            <text x="2036" xml:space="preserve" font-size="16px" y="484" clip-path="url(#clipPath2)" stroke="none">0,13</text>
            <line y2="467" fill="none" x1="60" clip-path="url(#clipPath2)" x2="62" y1="467"/>
            <line y2="467" fill="none" x1="2031" clip-path="url(#clipPath2)" x2="2029" y1="467"/>
            <line y2="457" fill="none" x1="60" clip-path="url(#clipPath2)" x2="62" y1="457"/>
            <line y2="457" fill="none" x1="2031" clip-path="url(#clipPath2)" x2="2029" y1="457"/>
            <line y2="446" fill="none" x1="60" clip-path="url(#clipPath2)" x2="62" y1="446"/>
            <line y2="446" fill="none" x1="2031" clip-path="url(#clipPath2)" x2="2029" y1="446"/>
            <line y2="436" fill="none" x1="60" clip-path="url(#clipPath2)" x2="62" y1="436"/>
            <line y2="436" fill="none" x1="2031" clip-path="url(#clipPath2)" x2="2029" y1="436"/>
            <line y2="425" fill="none" x1="58" clip-path="url(#clipPath2)" x2="62" y1="425"/>
            <line y2="425" fill="none" x1="2033" clip-path="url(#clipPath2)" x2="2029" y1="425"/>
            <text x="25" xml:space="preserve" font-size="16px" y="431" clip-path="url(#clipPath2)" stroke="none">0,14</text>
            <text x="2036" xml:space="preserve" font-size="16px" y="431" clip-path="url(#clipPath2)" stroke="none">0,14</text>
            <line y2="415" fill="none" x1="60" clip-path="url(#clipPath2)" x2="62" y1="415"/>
            <line y2="415" fill="none" x1="2031" clip-path="url(#clipPath2)" x2="2029" y1="415"/>
            <line y2="404" fill="none" x1="60" clip-path="url(#clipPath2)" x2="62" y1="404"/>
            <line y2="404" fill="none" x1="2031" clip-path="url(#clipPath2)" x2="2029" y1="404"/>
            <line y2="394" fill="none" x1="60" clip-path="url(#clipPath2)" x2="62" y1="394"/>
            <line y2="394" fill="none" x1="2031" clip-path="url(#clipPath2)" x2="2029" y1="394"/>
            <line y2="384" fill="none" x1="60" clip-path="url(#clipPath2)" x2="62" y1="384"/>
            <line y2="384" fill="none" x1="2031" clip-path="url(#clipPath2)" x2="2029" y1="384"/>
            <line y2="373" fill="none" x1="58" clip-path="url(#clipPath2)" x2="62" y1="373"/>
            <line y2="373" fill="none" x1="2033" clip-path="url(#clipPath2)" x2="2029" y1="373"/>
            <text x="25" xml:space="preserve" font-size="16px" y="379" clip-path="url(#clipPath2)" stroke="none">0,15</text>
            <text x="2036" xml:space="preserve" font-size="16px" y="379" clip-path="url(#clipPath2)" stroke="none">0,15</text>
            <line y2="363" fill="none" x1="60" clip-path="url(#clipPath2)" x2="62" y1="363"/>
            <line y2="363" fill="none" x1="2031" clip-path="url(#clipPath2)" x2="2029" y1="363"/>
            <line y2="352" fill="none" x1="60" clip-path="url(#clipPath2)" x2="62" y1="352"/>
            <line y2="352" fill="none" x1="2031" clip-path="url(#clipPath2)" x2="2029" y1="352"/>
            <line y2="342" fill="none" x1="60" clip-path="url(#clipPath2)" x2="62" y1="342"/>
            <line y2="342" fill="none" x1="2031" clip-path="url(#clipPath2)" x2="2029" y1="342"/>
            <line y2="331" fill="none" x1="60" clip-path="url(#clipPath2)" x2="62" y1="331"/>
            <line y2="331" fill="none" x1="2031" clip-path="url(#clipPath2)" x2="2029" y1="331"/>
            <line y2="321" fill="none" x1="58" clip-path="url(#clipPath2)" x2="62" y1="321"/>
            <line y2="321" fill="none" x1="2033" clip-path="url(#clipPath2)" x2="2029" y1="321"/>
            <text x="25" xml:space="preserve" font-size="16px" y="327" clip-path="url(#clipPath2)" stroke="none">0,16</text>
            <text x="2036" xml:space="preserve" font-size="16px" y="327" clip-path="url(#clipPath2)" stroke="none">0,16</text>
            <line y2="310" fill="none" x1="60" clip-path="url(#clipPath2)" x2="62" y1="310"/>
            <line y2="310" fill="none" x1="2031" clip-path="url(#clipPath2)" x2="2029" y1="310"/>
            <line y2="300" fill="none" x1="60" clip-path="url(#clipPath2)" x2="62" y1="300"/>
            <line y2="300" fill="none" x1="2031" clip-path="url(#clipPath2)" x2="2029" y1="300"/>
            <line y2="289" fill="none" x1="60" clip-path="url(#clipPath2)" x2="62" y1="289"/>
            <line y2="289" fill="none" x1="2031" clip-path="url(#clipPath2)" x2="2029" y1="289"/>
            <line y2="279" fill="none" x1="60" clip-path="url(#clipPath2)" x2="62" y1="279"/>
            <line y2="279" fill="none" x1="2031" clip-path="url(#clipPath2)" x2="2029" y1="279"/>
            <line y2="268" fill="none" x1="58" clip-path="url(#clipPath2)" x2="62" y1="268"/>
            <line y2="268" fill="none" x1="2033" clip-path="url(#clipPath2)" x2="2029" y1="268"/>
            <text x="25" xml:space="preserve" font-size="16px" y="274" clip-path="url(#clipPath2)" stroke="none">0,17</text>
            <text x="2036" xml:space="preserve" font-size="16px" y="274" clip-path="url(#clipPath2)" stroke="none">0,17</text>
            <line y2="258" fill="none" x1="60" clip-path="url(#clipPath2)" x2="62" y1="258"/>
            <line y2="258" fill="none" x1="2031" clip-path="url(#clipPath2)" x2="2029" y1="258"/>
            <line y2="247" fill="none" x1="60" clip-path="url(#clipPath2)" x2="62" y1="247"/>
            <line y2="247" fill="none" x1="2031" clip-path="url(#clipPath2)" x2="2029" y1="247"/>
            <line y2="237" fill="none" x1="60" clip-path="url(#clipPath2)" x2="62" y1="237"/>
            <line y2="237" fill="none" x1="2031" clip-path="url(#clipPath2)" x2="2029" y1="237"/>
            <line y2="226" fill="none" x1="60" clip-path="url(#clipPath2)" x2="62" y1="226"/>
            <line y2="226" fill="none" x1="2031" clip-path="url(#clipPath2)" x2="2029" y1="226"/>
            <line y2="216" fill="none" x1="58" clip-path="url(#clipPath2)" x2="62" y1="216"/>
            <line y2="216" fill="none" x1="2033" clip-path="url(#clipPath2)" x2="2029" y1="216"/>
            <text x="25" xml:space="preserve" font-size="16px" y="222" clip-path="url(#clipPath2)" stroke="none">0,18</text>
            <text x="2036" xml:space="preserve" font-size="16px" y="222" clip-path="url(#clipPath2)" stroke="none">0,18</text>
            <line y2="205" fill="none" x1="60" clip-path="url(#clipPath2)" x2="62" y1="205"/>
            <line y2="205" fill="none" x1="2031" clip-path="url(#clipPath2)" x2="2029" y1="205"/>
            <line y2="195" fill="none" x1="60" clip-path="url(#clipPath2)" x2="62" y1="195"/>
            <line y2="195" fill="none" x1="2031" clip-path="url(#clipPath2)" x2="2029" y1="195"/>
            <line y2="184" fill="none" x1="60" clip-path="url(#clipPath2)" x2="62" y1="184"/>
            <line y2="184" fill="none" x1="2031" clip-path="url(#clipPath2)" x2="2029" y1="184"/>
            <line y2="174" fill="none" x1="60" clip-path="url(#clipPath2)" x2="62" y1="174"/>
            <line y2="174" fill="none" x1="2031" clip-path="url(#clipPath2)" x2="2029" y1="174"/>
            <line y2="163" fill="none" x1="58" clip-path="url(#clipPath2)" x2="62" y1="163"/>
            <line y2="163" fill="none" x1="2033" clip-path="url(#clipPath2)" x2="2029" y1="163"/>
            <text x="25" xml:space="preserve" font-size="16px" y="169" clip-path="url(#clipPath2)" stroke="none">0,19</text>
            <text x="2036" xml:space="preserve" font-size="16px" y="169" clip-path="url(#clipPath2)" stroke="none">0,19</text>
            <line y2="153" fill="none" x1="60" clip-path="url(#clipPath2)" x2="62" y1="153"/>
            <line y2="153" fill="none" x1="2031" clip-path="url(#clipPath2)" x2="2029" y1="153"/>
            <line y2="142" fill="none" x1="60" clip-path="url(#clipPath2)" x2="62" y1="142"/>
            <line y2="142" fill="none" x1="2031" clip-path="url(#clipPath2)" x2="2029" y1="142"/>
            <line y2="132" fill="none" x1="60" clip-path="url(#clipPath2)" x2="62" y1="132"/>
            <line y2="132" fill="none" x1="2031" clip-path="url(#clipPath2)" x2="2029" y1="132"/>
            <line y2="121" fill="none" x1="60" clip-path="url(#clipPath2)" x2="62" y1="121"/>
            <line y2="121" fill="none" x1="2031" clip-path="url(#clipPath2)" x2="2029" y1="121"/>
            <line y2="111" fill="none" x1="58" clip-path="url(#clipPath2)" x2="62" y1="111"/>
            <line y2="111" fill="none" x1="2033" clip-path="url(#clipPath2)" x2="2029" y1="111"/>
            <text x="34" xml:space="preserve" font-size="16px" y="117" clip-path="url(#clipPath2)" stroke="none">0,2</text>
            <text x="2036" xml:space="preserve" font-size="16px" y="117" clip-path="url(#clipPath2)" stroke="none">0,2</text>
            <line y2="100" fill="none" x1="60" clip-path="url(#clipPath2)" x2="62" y1="100"/>
            <line y2="100" fill="none" x1="2031" clip-path="url(#clipPath2)" x2="2029" y1="100"/>
            <line y2="90" fill="none" x1="60" clip-path="url(#clipPath2)" x2="62" y1="90"/>
            <line y2="90" fill="none" x1="2031" clip-path="url(#clipPath2)" x2="2029" y1="90"/>
            <line y2="79" fill="none" x1="60" clip-path="url(#clipPath2)" x2="62" y1="79"/>
            <line y2="79" fill="none" x1="2031" clip-path="url(#clipPath2)" x2="2029" y1="79"/>
            <line y2="69" fill="none" x1="60" clip-path="url(#clipPath2)" x2="62" y1="69"/>
            <line y2="69" fill="none" x1="2031" clip-path="url(#clipPath2)" x2="2029" y1="69"/>
            <line y2="58" fill="none" x1="58" clip-path="url(#clipPath2)" x2="62" y1="58"/>
            <line y2="58" fill="none" x1="2033" clip-path="url(#clipPath2)" x2="2029" y1="58"/>
            <text x="25" xml:space="preserve" font-size="16px" y="64" clip-path="url(#clipPath2)" stroke="none">0,21</text>
            <text x="2036" xml:space="preserve" font-size="16px" y="64" clip-path="url(#clipPath2)" stroke="none">0,21</text>
            <line y2="48" fill="none" x1="60" clip-path="url(#clipPath2)" x2="62" y1="48"/>
            <line y2="48" fill="none" x1="2031" clip-path="url(#clipPath2)" x2="2029" y1="48"/>
            <line y2="37" fill="none" x1="60" clip-path="url(#clipPath2)" x2="62" y1="37"/>
            <line y2="37" fill="none" x1="2031" clip-path="url(#clipPath2)" x2="2029" y1="37"/>
            <line y2="1141" fill="none" x1="117" clip-path="url(#clipPath4)" x2="647" y1="1141"/>
            <line y2="1141" fill="none" x1="780" clip-path="url(#clipPath4)" x2="1310" y1="1141"/>
            <line y2="1141" fill="none" x1="1443" clip-path="url(#clipPath4)" x2="1973" y1="1141"/>
            <text x="117" xml:space="preserve" font-size="16px" y="1157" clip-path="url(#clipPath4)" stroke="none">10</text>
            <text x="780" xml:space="preserve" font-size="16px" y="1157" clip-path="url(#clipPath4)" stroke="none">15</text>
            <text x="1443" xml:space="preserve" font-size="16px" y="1157" clip-path="url(#clipPath4)" stroke="none">20</text>
            <text x="1009" xml:space="preserve" font-size="16px" y="1180" clip-path="url(#clipPath4)" stroke="none">numHosts</text>
        </g>
    </g>
</svg>
