<?xml version="1.0" encoding="UTF-8"?><svg xmlns="http://www.w3.org/2000/svg" xmlns:xlink="http://www.w3.org/1999/xlink" stroke-dasharray="none" shape-rendering="auto" font-family="'Dialog'" width="2073" text-rendering="auto" fill-opacity="1" contentScriptType="text/ecmascript" color-interpolation="auto" color-rendering="auto" preserveAspectRatio="xMidYMid meet" font-size="12px" fill="black" stroke="black" image-rendering="auto" stroke-miterlimit="10" zoomAndPan="magnify" version="1.0" stroke-linecap="square" stroke-linejoin="miter" contentStyleType="text/css" font-style="normal" height="1185" stroke-width="1" stroke-dashoffset="0" font-weight="normal" stroke-opacity="1">
    <!--Generated by the Batik Graphics2D SVG Generator-->
    <defs id="genericDefs"/>
    <g>
        <defs id="defs1">
            <clipPath clipPathUnits="userSpaceOnUse" id="clipPath1">
                <path d="M63 32 L2028 32 L2028 1138 L63 1138 L63 32 Z"/>
            </clipPath>
            <clipPath clipPathUnits="userSpaceOnUse" id="clipPath2">
                <path d="M-1 -1 L2074 -1 L2074 1186 L-1 1186 L-1 -1 Z"/>
            </clipPath>
            <clipPath clipPathUnits="userSpaceOnUse" id="clipPath3">
                <path d="M1924 37 L2024 37 L2024 206 L1924 206 L1924 37 Z"/>
            </clipPath>
            <clipPath clipPathUnits="userSpaceOnUse" id="clipPath4">
                <path d="M63 1136 L2028 1136 L2028 1186 L63 1186 L63 1136 Z"/>
            </clipPath>
        </defs>
        <g font-size="18px" fill="white" text-rendering="optimizeLegibility" font-family="'Segoe UI'" stroke-linejoin="round" stroke="white" stroke-width="0" stroke-miterlimit="0">
            <rect x="64" width="1963" height="1104" y="33" clip-path="url(#clipPath1)" stroke="none"/>
        </g>
        <g stroke-linecap="butt" font-size="18px" fill="rgb(204,204,204)" text-rendering="optimizeLegibility" font-family="'Segoe UI'" stroke-dasharray="3,3" stroke="rgb(204,204,204)">
            <line y2="1094" fill="none" x1="64" clip-path="url(#clipPath1)" x2="2027" y1="1094"/>
            <line y2="1029" fill="none" x1="64" clip-path="url(#clipPath1)" x2="2027" y1="1029"/>
            <line y2="964" fill="none" x1="64" clip-path="url(#clipPath1)" x2="2027" y1="964"/>
            <line y2="899" fill="none" x1="64" clip-path="url(#clipPath1)" x2="2027" y1="899"/>
            <line y2="834" fill="none" x1="64" clip-path="url(#clipPath1)" x2="2027" y1="834"/>
            <line y2="769" fill="none" x1="64" clip-path="url(#clipPath1)" x2="2027" y1="769"/>
            <line y2="704" fill="none" x1="64" clip-path="url(#clipPath1)" x2="2027" y1="704"/>
            <line y2="639" fill="none" x1="64" clip-path="url(#clipPath1)" x2="2027" y1="639"/>
            <line y2="574" fill="none" x1="64" clip-path="url(#clipPath1)" x2="2027" y1="574"/>
            <line y2="508" fill="none" x1="64" clip-path="url(#clipPath1)" x2="2027" y1="508"/>
            <line y2="443" fill="none" x1="64" clip-path="url(#clipPath1)" x2="2027" y1="443"/>
            <line y2="378" fill="none" x1="64" clip-path="url(#clipPath1)" x2="2027" y1="378"/>
            <line y2="313" fill="none" x1="64" clip-path="url(#clipPath1)" x2="2027" y1="313"/>
            <line y2="248" fill="none" x1="64" clip-path="url(#clipPath1)" x2="2027" y1="248"/>
            <line y2="183" fill="none" x1="64" clip-path="url(#clipPath1)" x2="2027" y1="183"/>
            <line y2="118" fill="none" x1="64" clip-path="url(#clipPath1)" x2="2027" y1="118"/>
            <line y2="53" fill="none" x1="64" clip-path="url(#clipPath1)" x2="2027" y1="53"/>
            <rect x="594" y="661" clip-path="url(#clipPath1)" fill="rgb(227,119,194)" width="53" height="498" stroke="none"/>
            <rect x="594" y="661" clip-path="url(#clipPath1)" fill="none" width="53" stroke-dasharray="none" height="498" stroke="black"/>
            <rect x="1257" y="650" clip-path="url(#clipPath1)" fill="rgb(227,119,194)" width="53" stroke-dasharray="none" height="509" stroke="none"/>
            <rect x="1257" y="650" clip-path="url(#clipPath1)" fill="none" width="53" stroke-dasharray="none" height="509" stroke="black"/>
            <rect x="1920" y="647" clip-path="url(#clipPath1)" fill="rgb(227,119,194)" width="53" stroke-dasharray="none" height="512" stroke="none"/>
            <rect x="1920" y="647" clip-path="url(#clipPath1)" fill="none" width="53" stroke-dasharray="none" height="512" stroke="black"/>
            <rect x="514" y="660" clip-path="url(#clipPath1)" fill="rgb(140,86,75)" width="53" stroke-dasharray="none" height="499" stroke="none"/>
            <rect x="514" y="660" clip-path="url(#clipPath1)" fill="none" width="53" stroke-dasharray="none" height="499" stroke="black"/>
            <rect x="1178" y="649" clip-path="url(#clipPath1)" fill="rgb(140,86,75)" width="53" stroke-dasharray="none" height="510" stroke="none"/>
            <rect x="1178" y="649" clip-path="url(#clipPath1)" fill="none" width="53" stroke-dasharray="none" height="510" stroke="black"/>
            <rect x="1841" y="639" clip-path="url(#clipPath1)" fill="rgb(140,86,75)" width="53" stroke-dasharray="none" height="520" stroke="none"/>
            <rect x="1841" y="639" clip-path="url(#clipPath1)" fill="none" width="53" stroke-dasharray="none" height="520" stroke="black"/>
            <rect x="435" y="652" clip-path="url(#clipPath1)" fill="rgb(148,103,189)" width="53" stroke-dasharray="none" height="507" stroke="none"/>
            <rect x="435" y="652" clip-path="url(#clipPath1)" fill="none" width="53" stroke-dasharray="none" height="507" stroke="black"/>
            <rect x="1098" y="635" clip-path="url(#clipPath1)" fill="rgb(148,103,189)" width="53" stroke-dasharray="none" height="524" stroke="none"/>
            <rect x="1098" y="635" clip-path="url(#clipPath1)" fill="none" width="53" stroke-dasharray="none" height="524" stroke="black"/>
            <rect x="1761" y="620" clip-path="url(#clipPath1)" fill="rgb(148,103,189)" width="53" stroke-dasharray="none" height="539" stroke="none"/>
            <rect x="1761" y="620" clip-path="url(#clipPath1)" fill="none" width="53" stroke-dasharray="none" height="539" stroke="black"/>
            <rect x="355" y="646" clip-path="url(#clipPath1)" fill="rgb(214,39,40)" width="53" stroke-dasharray="none" height="513" stroke="none"/>
            <rect x="355" y="646" clip-path="url(#clipPath1)" fill="none" width="53" stroke-dasharray="none" height="513" stroke="black"/>
            <rect x="1018" y="623" clip-path="url(#clipPath1)" fill="rgb(214,39,40)" width="53" stroke-dasharray="none" height="536" stroke="none"/>
            <rect x="1018" y="623" clip-path="url(#clipPath1)" fill="none" width="53" stroke-dasharray="none" height="536" stroke="black"/>
            <rect x="1682" y="599" clip-path="url(#clipPath1)" fill="rgb(214,39,40)" width="53" stroke-dasharray="none" height="560" stroke="none"/>
            <rect x="1682" y="599" clip-path="url(#clipPath1)" fill="none" width="53" stroke-dasharray="none" height="560" stroke="black"/>
            <rect x="276" y="632" clip-path="url(#clipPath1)" fill="rgb(44,160,44)" width="53" stroke-dasharray="none" height="527" stroke="none"/>
            <rect x="276" y="632" clip-path="url(#clipPath1)" fill="none" width="53" stroke-dasharray="none" height="527" stroke="black"/>
            <rect x="939" y="605" clip-path="url(#clipPath1)" fill="rgb(44,160,44)" width="53" stroke-dasharray="none" height="554" stroke="none"/>
            <rect x="939" y="605" clip-path="url(#clipPath1)" fill="none" width="53" stroke-dasharray="none" height="554" stroke="black"/>
            <rect x="1602" y="569" clip-path="url(#clipPath1)" fill="rgb(44,160,44)" width="53" stroke-dasharray="none" height="590" stroke="none"/>
            <rect x="1602" y="569" clip-path="url(#clipPath1)" fill="none" width="53" stroke-dasharray="none" height="590" stroke="black"/>
            <rect x="196" y="607" clip-path="url(#clipPath1)" fill="rgb(255,127,14)" width="53" stroke-dasharray="none" height="552" stroke="none"/>
            <rect x="196" y="607" clip-path="url(#clipPath1)" fill="none" width="53" stroke-dasharray="none" height="552" stroke="black"/>
            <rect x="859" y="552" clip-path="url(#clipPath1)" fill="rgb(255,127,14)" width="53" stroke-dasharray="none" height="607" stroke="none"/>
            <rect x="859" y="552" clip-path="url(#clipPath1)" fill="none" width="53" stroke-dasharray="none" height="607" stroke="black"/>
            <rect x="1522" y="497" clip-path="url(#clipPath1)" fill="rgb(255,127,14)" width="53" stroke-dasharray="none" height="662" stroke="none"/>
            <rect x="1522" y="497" clip-path="url(#clipPath1)" fill="none" width="53" stroke-dasharray="none" height="662" stroke="black"/>
            <rect x="117" y="514" clip-path="url(#clipPath1)" fill="rgb(31,119,180)" width="53" stroke-dasharray="none" height="645" stroke="none"/>
            <rect x="117" y="514" clip-path="url(#clipPath1)" fill="none" width="53" stroke-dasharray="none" height="645" stroke="black"/>
            <rect x="780" y="358" clip-path="url(#clipPath1)" fill="rgb(31,119,180)" width="53" stroke-dasharray="none" height="801" stroke="none"/>
            <rect x="780" y="358" clip-path="url(#clipPath1)" fill="none" width="53" stroke-dasharray="none" height="801" stroke="black"/>
            <rect x="1443" y="135" clip-path="url(#clipPath1)" fill="rgb(31,119,180)" width="53" stroke-dasharray="none" height="1024" stroke="none"/>
            <rect x="1443" y="135" clip-path="url(#clipPath1)" fill="none" width="53" stroke-dasharray="none" height="1024" stroke="black"/>
            <rect x="64" y="33" clip-path="url(#clipPath2)" fill="none" width="1963" stroke-dasharray="none" height="1104" stroke="black"/>
            <line clip-path="url(#clipPath2)" fill="none" x1="65" x2="2026" y1="1160" y2="1160" stroke-dasharray="none"/>
        </g>
        <g text-rendering="optimizeLegibility" font-size="20px" font-family="'Arial'" stroke-linecap="butt">
            <text x="924" xml:space="preserve" y="19" clip-path="url(#clipPath2)" stroke="none">Longitud de las colisiones</text>
            <rect x="1925" y="38" clip-path="url(#clipPath3)" fill="white" width="97" opacity="0.753" height="166" stroke="none"/>
            <polygon fill="rgb(31,119,180)" clip-path="url(#clipPath3)" points=" 1934 48 1934 56 1942 56 1942 48" stroke="none"/>
            <text x="1947" xml:space="preserve" font-size="16px" y="58" clip-path="url(#clipPath3)" stroke="none">iaMean=1</text>
            <polygon fill="rgb(255,127,14)" clip-path="url(#clipPath3)" points=" 1934 71 1934 79 1942 79 1942 71" stroke="none"/>
            <text x="1947" xml:space="preserve" font-size="16px" y="81" clip-path="url(#clipPath3)" stroke="none">iaMean=2</text>
            <polygon fill="rgb(44,160,44)" clip-path="url(#clipPath3)" points=" 1934 94 1934 102 1942 102 1942 94" stroke="none"/>
            <text x="1947" xml:space="preserve" font-size="16px" y="104" clip-path="url(#clipPath3)" stroke="none">iaMean=3</text>
            <polygon fill="rgb(214,39,40)" clip-path="url(#clipPath3)" points=" 1934 117 1934 125 1942 125 1942 117" stroke="none"/>
            <text x="1947" xml:space="preserve" font-size="16px" y="127" clip-path="url(#clipPath3)" stroke="none">iaMean=4</text>
            <polygon fill="rgb(148,103,189)" clip-path="url(#clipPath3)" points=" 1934 140 1934 148 1942 148 1942 140" stroke="none"/>
            <text x="1947" xml:space="preserve" font-size="16px" y="150" clip-path="url(#clipPath3)" stroke="none">iaMean=5</text>
            <polygon fill="rgb(140,86,75)" clip-path="url(#clipPath3)" points=" 1934 163 1934 171 1942 171 1942 163" stroke="none"/>
            <text x="1947" xml:space="preserve" font-size="16px" y="173" clip-path="url(#clipPath3)" stroke="none">iaMean=7</text>
            <polygon fill="rgb(227,119,194)" clip-path="url(#clipPath3)" points=" 1934 186 1934 194 1942 194 1942 186" stroke="none"/>
            <text x="1947" xml:space="preserve" font-size="16px" y="196" clip-path="url(#clipPath3)" stroke="none">iaMean=9</text>
            <line y2="1137" fill="none" x1="62" clip-path="url(#clipPath2)" x2="62" y1="33"/>
            <line y2="1137" fill="none" x1="2029" clip-path="url(#clipPath2)" x2="2029" y1="33"/>
            <line y2="1127" fill="none" x1="60" clip-path="url(#clipPath2)" x2="62" y1="1127"/>
            <line y2="1127" fill="none" x1="2031" clip-path="url(#clipPath2)" x2="2029" y1="1127"/>
            <line y2="1094" fill="none" x1="58" clip-path="url(#clipPath2)" x2="62" y1="1094"/>
            <line y2="1094" fill="none" x1="2033" clip-path="url(#clipPath2)" x2="2029" y1="1094"/>
            <text x="25" xml:space="preserve" font-size="16px" y="1100" clip-path="url(#clipPath2)" stroke="none">0,02</text>
            <text x="2036" xml:space="preserve" font-size="16px" y="1100" clip-path="url(#clipPath2)" stroke="none">0,02</text>
            <line y2="1062" fill="none" x1="60" clip-path="url(#clipPath2)" x2="62" y1="1062"/>
            <line y2="1062" fill="none" x1="2031" clip-path="url(#clipPath2)" x2="2029" y1="1062"/>
            <line y2="1029" fill="none" x1="58" clip-path="url(#clipPath2)" x2="62" y1="1029"/>
            <line y2="1029" fill="none" x1="2033" clip-path="url(#clipPath2)" x2="2029" y1="1029"/>
            <text x="25" xml:space="preserve" font-size="16px" y="1035" clip-path="url(#clipPath2)" stroke="none">0,04</text>
            <text x="2036" xml:space="preserve" font-size="16px" y="1035" clip-path="url(#clipPath2)" stroke="none">0,04</text>
            <line y2="997" fill="none" x1="60" clip-path="url(#clipPath2)" x2="62" y1="997"/>
            <line y2="997" fill="none" x1="2031" clip-path="url(#clipPath2)" x2="2029" y1="997"/>
            <line y2="964" fill="none" x1="58" clip-path="url(#clipPath2)" x2="62" y1="964"/>
            <line y2="964" fill="none" x1="2033" clip-path="url(#clipPath2)" x2="2029" y1="964"/>
            <text x="25" xml:space="preserve" font-size="16px" y="970" clip-path="url(#clipPath2)" stroke="none">0,06</text>
            <text x="2036" xml:space="preserve" font-size="16px" y="970" clip-path="url(#clipPath2)" stroke="none">0,06</text>
            <line y2="932" fill="none" x1="60" clip-path="url(#clipPath2)" x2="62" y1="932"/>
            <line y2="932" fill="none" x1="2031" clip-path="url(#clipPath2)" x2="2029" y1="932"/>
            <line y2="899" fill="none" x1="58" clip-path="url(#clipPath2)" x2="62" y1="899"/>
            <line y2="899" fill="none" x1="2033" clip-path="url(#clipPath2)" x2="2029" y1="899"/>
            <text x="25" xml:space="preserve" font-size="16px" y="905" clip-path="url(#clipPath2)" stroke="none">0,08</text>
            <text x="2036" xml:space="preserve" font-size="16px" y="905" clip-path="url(#clipPath2)" stroke="none">0,08</text>
            <line y2="867" fill="none" x1="60" clip-path="url(#clipPath2)" x2="62" y1="867"/>
            <line y2="867" fill="none" x1="2031" clip-path="url(#clipPath2)" x2="2029" y1="867"/>
            <line y2="834" fill="none" x1="58" clip-path="url(#clipPath2)" x2="62" y1="834"/>
            <line y2="834" fill="none" x1="2033" clip-path="url(#clipPath2)" x2="2029" y1="834"/>
            <text x="34" xml:space="preserve" font-size="16px" y="840" clip-path="url(#clipPath2)" stroke="none">0,1</text>
            <text x="2036" xml:space="preserve" font-size="16px" y="840" clip-path="url(#clipPath2)" stroke="none">0,1</text>
            <line y2="801" fill="none" x1="60" clip-path="url(#clipPath2)" x2="62" y1="801"/>
            <line y2="801" fill="none" x1="2031" clip-path="url(#clipPath2)" x2="2029" y1="801"/>
            <line y2="769" fill="none" x1="58" clip-path="url(#clipPath2)" x2="62" y1="769"/>
            <line y2="769" fill="none" x1="2033" clip-path="url(#clipPath2)" x2="2029" y1="769"/>
            <text x="25" xml:space="preserve" font-size="16px" y="775" clip-path="url(#clipPath2)" stroke="none">0,12</text>
            <text x="2036" xml:space="preserve" font-size="16px" y="775" clip-path="url(#clipPath2)" stroke="none">0,12</text>
            <line y2="736" fill="none" x1="60" clip-path="url(#clipPath2)" x2="62" y1="736"/>
            <line y2="736" fill="none" x1="2031" clip-path="url(#clipPath2)" x2="2029" y1="736"/>
            <line y2="704" fill="none" x1="58" clip-path="url(#clipPath2)" x2="62" y1="704"/>
            <line y2="704" fill="none" x1="2033" clip-path="url(#clipPath2)" x2="2029" y1="704"/>
            <text x="25" xml:space="preserve" font-size="16px" y="710" clip-path="url(#clipPath2)" stroke="none">0,14</text>
            <text x="2036" xml:space="preserve" font-size="16px" y="710" clip-path="url(#clipPath2)" stroke="none">0,14</text>
            <line y2="671" fill="none" x1="60" clip-path="url(#clipPath2)" x2="62" y1="671"/>
            <line y2="671" fill="none" x1="2031" clip-path="url(#clipPath2)" x2="2029" y1="671"/>
            <line y2="639" fill="none" x1="58" clip-path="url(#clipPath2)" x2="62" y1="639"/>
            <line y2="639" fill="none" x1="2033" clip-path="url(#clipPath2)" x2="2029" y1="639"/>
            <text x="25" xml:space="preserve" font-size="16px" y="645" clip-path="url(#clipPath2)" stroke="none">0,16</text>
            <text x="2036" xml:space="preserve" font-size="16px" y="645" clip-path="url(#clipPath2)" stroke="none">0,16</text>
            <line y2="606" fill="none" x1="60" clip-path="url(#clipPath2)" x2="62" y1="606"/>
            <line y2="606" fill="none" x1="2031" clip-path="url(#clipPath2)" x2="2029" y1="606"/>
            <line y2="574" fill="none" x1="58" clip-path="url(#clipPath2)" x2="62" y1="574"/>
            <line y2="574" fill="none" x1="2033" clip-path="url(#clipPath2)" x2="2029" y1="574"/>
            <text x="25" xml:space="preserve" font-size="16px" y="580" clip-path="url(#clipPath2)" stroke="none">0,18</text>
            <text x="2036" xml:space="preserve" font-size="16px" y="580" clip-path="url(#clipPath2)" stroke="none">0,18</text>
            <line y2="541" fill="none" x1="60" clip-path="url(#clipPath2)" x2="62" y1="541"/>
            <line y2="541" fill="none" x1="2031" clip-path="url(#clipPath2)" x2="2029" y1="541"/>
            <line y2="508" fill="none" x1="58" clip-path="url(#clipPath2)" x2="62" y1="508"/>
            <line y2="508" fill="none" x1="2033" clip-path="url(#clipPath2)" x2="2029" y1="508"/>
            <text x="34" xml:space="preserve" font-size="16px" y="514" clip-path="url(#clipPath2)" stroke="none">0,2</text>
            <text x="2036" xml:space="preserve" font-size="16px" y="514" clip-path="url(#clipPath2)" stroke="none">0,2</text>
            <line y2="476" fill="none" x1="60" clip-path="url(#clipPath2)" x2="62" y1="476"/>
            <line y2="476" fill="none" x1="2031" clip-path="url(#clipPath2)" x2="2029" y1="476"/>
            <line y2="443" fill="none" x1="58" clip-path="url(#clipPath2)" x2="62" y1="443"/>
            <line y2="443" fill="none" x1="2033" clip-path="url(#clipPath2)" x2="2029" y1="443"/>
            <text x="25" xml:space="preserve" font-size="16px" y="449" clip-path="url(#clipPath2)" stroke="none">0,22</text>
            <text x="2036" xml:space="preserve" font-size="16px" y="449" clip-path="url(#clipPath2)" stroke="none">0,22</text>
            <line y2="411" fill="none" x1="60" clip-path="url(#clipPath2)" x2="62" y1="411"/>
            <line y2="411" fill="none" x1="2031" clip-path="url(#clipPath2)" x2="2029" y1="411"/>
            <line y2="378" fill="none" x1="58" clip-path="url(#clipPath2)" x2="62" y1="378"/>
            <line y2="378" fill="none" x1="2033" clip-path="url(#clipPath2)" x2="2029" y1="378"/>
            <text x="25" xml:space="preserve" font-size="16px" y="384" clip-path="url(#clipPath2)" stroke="none">0,24</text>
            <text x="2036" xml:space="preserve" font-size="16px" y="384" clip-path="url(#clipPath2)" stroke="none">0,24</text>
            <line y2="346" fill="none" x1="60" clip-path="url(#clipPath2)" x2="62" y1="346"/>
            <line y2="346" fill="none" x1="2031" clip-path="url(#clipPath2)" x2="2029" y1="346"/>
            <line y2="313" fill="none" x1="58" clip-path="url(#clipPath2)" x2="62" y1="313"/>
            <line y2="313" fill="none" x1="2033" clip-path="url(#clipPath2)" x2="2029" y1="313"/>
            <text x="25" xml:space="preserve" font-size="16px" y="319" clip-path="url(#clipPath2)" stroke="none">0,26</text>
            <text x="2036" xml:space="preserve" font-size="16px" y="319" clip-path="url(#clipPath2)" stroke="none">0,26</text>
            <line y2="281" fill="none" x1="60" clip-path="url(#clipPath2)" x2="62" y1="281"/>
            <line y2="281" fill="none" x1="2031" clip-path="url(#clipPath2)" x2="2029" y1="281"/>
            <line y2="248" fill="none" x1="58" clip-path="url(#clipPath2)" x2="62" y1="248"/>
            <line y2="248" fill="none" x1="2033" clip-path="url(#clipPath2)" x2="2029" y1="248"/>
            <text x="25" xml:space="preserve" font-size="16px" y="254" clip-path="url(#clipPath2)" stroke="none">0,28</text>
            <text x="2036" xml:space="preserve" font-size="16px" y="254" clip-path="url(#clipPath2)" stroke="none">0,28</text>
            <line y2="215" fill="none" x1="60" clip-path="url(#clipPath2)" x2="62" y1="215"/>
            <line y2="215" fill="none" x1="2031" clip-path="url(#clipPath2)" x2="2029" y1="215"/>
            <line y2="183" fill="none" x1="58" clip-path="url(#clipPath2)" x2="62" y1="183"/>
            <line y2="183" fill="none" x1="2033" clip-path="url(#clipPath2)" x2="2029" y1="183"/>
            <text x="34" xml:space="preserve" font-size="16px" y="189" clip-path="url(#clipPath2)" stroke="none">0,3</text>
            <text x="2036" xml:space="preserve" font-size="16px" y="189" clip-path="url(#clipPath2)" stroke="none">0,3</text>
            <line y2="150" fill="none" x1="60" clip-path="url(#clipPath2)" x2="62" y1="150"/>
            <line y2="150" fill="none" x1="2031" clip-path="url(#clipPath2)" x2="2029" y1="150"/>
            <line y2="118" fill="none" x1="58" clip-path="url(#clipPath2)" x2="62" y1="118"/>
            <line y2="118" fill="none" x1="2033" clip-path="url(#clipPath2)" x2="2029" y1="118"/>
            <text x="25" xml:space="preserve" font-size="16px" y="124" clip-path="url(#clipPath2)" stroke="none">0,32</text>
            <text x="2036" xml:space="preserve" font-size="16px" y="124" clip-path="url(#clipPath2)" stroke="none">0,32</text>
            <line y2="85" fill="none" x1="60" clip-path="url(#clipPath2)" x2="62" y1="85"/>
            <line y2="85" fill="none" x1="2031" clip-path="url(#clipPath2)" x2="2029" y1="85"/>
            <line y2="53" fill="none" x1="58" clip-path="url(#clipPath2)" x2="62" y1="53"/>
            <line y2="53" fill="none" x1="2033" clip-path="url(#clipPath2)" x2="2029" y1="53"/>
            <text x="25" xml:space="preserve" font-size="16px" y="59" clip-path="url(#clipPath2)" stroke="none">0,34</text>
            <text x="2036" xml:space="preserve" font-size="16px" y="59" clip-path="url(#clipPath2)" stroke="none">0,34</text>
            <line y2="1141" fill="none" x1="117" clip-path="url(#clipPath4)" x2="647" y1="1141"/>
            <line y2="1141" fill="none" x1="780" clip-path="url(#clipPath4)" x2="1310" y1="1141"/>
            <line y2="1141" fill="none" x1="1443" clip-path="url(#clipPath4)" x2="1973" y1="1141"/>
            <text x="117" xml:space="preserve" font-size="16px" y="1157" clip-path="url(#clipPath4)" stroke="none">10</text>
            <text x="780" xml:space="preserve" font-size="16px" y="1157" clip-path="url(#clipPath4)" stroke="none">15</text>
            <text x="1443" xml:space="preserve" font-size="16px" y="1157" clip-path="url(#clipPath4)" stroke="none">20</text>
            <text x="1009" xml:space="preserve" font-size="16px" y="1180" clip-path="url(#clipPath4)" stroke="none">numHosts</text>
        </g>
    </g>
</svg>
