<?xml version="1.0" encoding="UTF-8"?><svg xmlns="http://www.w3.org/2000/svg" xmlns:xlink="http://www.w3.org/1999/xlink" stroke-dasharray="none" shape-rendering="auto" font-family="'Dialog'" width="2073" text-rendering="auto" fill-opacity="1" contentScriptType="text/ecmascript" color-interpolation="auto" color-rendering="auto" preserveAspectRatio="xMidYMid meet" font-size="12px" fill="black" stroke="black" image-rendering="auto" stroke-miterlimit="10" zoomAndPan="magnify" version="1.0" stroke-linecap="square" stroke-linejoin="miter" contentStyleType="text/css" font-style="normal" height="1185" stroke-width="1" stroke-dashoffset="0" font-weight="normal" stroke-opacity="1">
    <!--Generated by the Batik Graphics2D SVG Generator-->
    <defs id="genericDefs"/>
    <g>
        <defs id="defs1">
            <clipPath clipPathUnits="userSpaceOnUse" id="clipPath1">
                <path d="M63 32 L2028 32 L2028 1138 L63 1138 L63 32 Z"/>
            </clipPath>
            <clipPath clipPathUnits="userSpaceOnUse" id="clipPath2">
                <path d="M-1 -1 L2074 -1 L2074 1186 L-1 1186 L-1 -1 Z"/>
            </clipPath>
            <clipPath clipPathUnits="userSpaceOnUse" id="clipPath3">
                <path d="M1911 37 L2024 37 L2024 252 L1911 252 L1911 37 Z"/>
            </clipPath>
            <clipPath clipPathUnits="userSpaceOnUse" id="clipPath4">
                <path d="M63 1136 L2028 1136 L2028 1186 L63 1186 L63 1136 Z"/>
            </clipPath>
        </defs>
        <g font-size="18px" fill="white" text-rendering="optimizeLegibility" font-family="'Segoe UI'" stroke-linejoin="round" stroke="white" stroke-width="0" stroke-miterlimit="0">
            <rect x="64" width="1963" height="1104" y="33" clip-path="url(#clipPath1)" stroke="none"/>
        </g>
        <g stroke-linecap="butt" font-size="18px" fill="rgb(204,204,204)" text-rendering="optimizeLegibility" font-family="'Segoe UI'" stroke-dasharray="3,3" stroke="rgb(204,204,204)">
            <line y2="1104" fill="none" x1="64" clip-path="url(#clipPath1)" x2="2027" y1="1104"/>
            <line y2="1049" fill="none" x1="64" clip-path="url(#clipPath1)" x2="2027" y1="1049"/>
            <line y2="994" fill="none" x1="64" clip-path="url(#clipPath1)" x2="2027" y1="994"/>
            <line y2="939" fill="none" x1="64" clip-path="url(#clipPath1)" x2="2027" y1="939"/>
            <line y2="884" fill="none" x1="64" clip-path="url(#clipPath1)" x2="2027" y1="884"/>
            <line y2="829" fill="none" x1="64" clip-path="url(#clipPath1)" x2="2027" y1="829"/>
            <line y2="774" fill="none" x1="64" clip-path="url(#clipPath1)" x2="2027" y1="774"/>
            <line y2="719" fill="none" x1="64" clip-path="url(#clipPath1)" x2="2027" y1="719"/>
            <line y2="664" fill="none" x1="64" clip-path="url(#clipPath1)" x2="2027" y1="664"/>
            <line y2="609" fill="none" x1="64" clip-path="url(#clipPath1)" x2="2027" y1="609"/>
            <line y2="554" fill="none" x1="64" clip-path="url(#clipPath1)" x2="2027" y1="554"/>
            <line y2="499" fill="none" x1="64" clip-path="url(#clipPath1)" x2="2027" y1="499"/>
            <line y2="444" fill="none" x1="64" clip-path="url(#clipPath1)" x2="2027" y1="444"/>
            <line y2="388" fill="none" x1="64" clip-path="url(#clipPath1)" x2="2027" y1="388"/>
            <line y2="333" fill="none" x1="64" clip-path="url(#clipPath1)" x2="2027" y1="333"/>
            <line y2="278" fill="none" x1="64" clip-path="url(#clipPath1)" x2="2027" y1="278"/>
            <line y2="223" fill="none" x1="64" clip-path="url(#clipPath1)" x2="2027" y1="223"/>
            <line y2="168" fill="none" x1="64" clip-path="url(#clipPath1)" x2="2027" y1="168"/>
            <line y2="113" fill="none" x1="64" clip-path="url(#clipPath1)" x2="2027" y1="113"/>
            <line y2="58" fill="none" x1="64" clip-path="url(#clipPath1)" x2="2027" y1="58"/>
            <rect x="1765" y="974" clip-path="url(#clipPath1)" fill="rgb(188,189,34)" width="130" height="185" stroke="none"/>
            <rect x="1765" y="974" clip-path="url(#clipPath1)" fill="none" width="130" stroke-dasharray="none" height="185" stroke="black"/>
            <rect x="1568" y="970" clip-path="url(#clipPath1)" fill="rgb(127,127,127)" width="130" stroke-dasharray="none" height="189" stroke="none"/>
            <rect x="1568" y="970" clip-path="url(#clipPath1)" fill="none" width="130" stroke-dasharray="none" height="189" stroke="black"/>
            <rect x="1372" y="967" clip-path="url(#clipPath1)" fill="rgb(227,119,194)" width="130" stroke-dasharray="none" height="192" stroke="none"/>
            <rect x="1372" y="967" clip-path="url(#clipPath1)" fill="none" width="130" stroke-dasharray="none" height="192" stroke="black"/>
            <rect x="1176" y="960" clip-path="url(#clipPath1)" fill="rgb(140,86,75)" width="130" stroke-dasharray="none" height="199" stroke="none"/>
            <rect x="1176" y="960" clip-path="url(#clipPath1)" fill="none" width="130" stroke-dasharray="none" height="199" stroke="black"/>
            <rect x="980" y="950" clip-path="url(#clipPath1)" fill="rgb(148,103,189)" width="130" stroke-dasharray="none" height="209" stroke="none"/>
            <rect x="980" y="950" clip-path="url(#clipPath1)" fill="none" width="130" stroke-dasharray="none" height="209" stroke="black"/>
            <rect x="783" y="934" clip-path="url(#clipPath1)" fill="rgb(214,39,40)" width="130" stroke-dasharray="none" height="225" stroke="none"/>
            <rect x="783" y="934" clip-path="url(#clipPath1)" fill="none" width="130" stroke-dasharray="none" height="225" stroke="black"/>
            <rect x="587" y="901" clip-path="url(#clipPath1)" fill="rgb(44,160,44)" width="130" stroke-dasharray="none" height="258" stroke="none"/>
            <rect x="587" y="901" clip-path="url(#clipPath1)" fill="none" width="130" stroke-dasharray="none" height="258" stroke="black"/>
            <rect x="391" y="808" clip-path="url(#clipPath1)" fill="rgb(255,127,14)" width="130" stroke-dasharray="none" height="351" stroke="none"/>
            <rect x="391" y="808" clip-path="url(#clipPath1)" fill="none" width="130" stroke-dasharray="none" height="351" stroke="black"/>
            <rect x="194" y="135" clip-path="url(#clipPath1)" fill="rgb(31,119,180)" width="130" stroke-dasharray="none" height="1024" stroke="none"/>
            <rect x="194" y="135" clip-path="url(#clipPath1)" fill="none" width="130" stroke-dasharray="none" height="1024" stroke="black"/>
            <rect x="64" y="33" clip-path="url(#clipPath2)" fill="none" width="1963" stroke-dasharray="none" height="1104" stroke="black"/>
            <line clip-path="url(#clipPath2)" fill="none" x1="65" x2="2026" y1="1160" y2="1160" stroke-dasharray="none"/>
        </g>
        <g text-rendering="optimizeLegibility" font-size="20px" font-family="'Arial'" stroke-linecap="butt">
            <text x="874" xml:space="preserve" y="19" clip-path="url(#clipPath2)" stroke="none">Longitud media colisiones NOSLOTS</text>
            <rect x="1912" y="38" clip-path="url(#clipPath3)" fill="white" width="110" opacity="0.753" height="212" stroke="none"/>
            <polygon fill="rgb(31,119,180)" clip-path="url(#clipPath3)" points=" 1921 48 1921 56 1929 56 1929 48" stroke="none"/>
            <text x="1934" xml:space="preserve" font-size="16px" y="58" clip-path="url(#clipPath3)" stroke="none">iaMean=0.5</text>
            <polygon fill="rgb(255,127,14)" clip-path="url(#clipPath3)" points=" 1921 71 1921 79 1929 79 1929 71" stroke="none"/>
            <text x="1934" xml:space="preserve" font-size="16px" y="81" clip-path="url(#clipPath3)" stroke="none">iaMean=1.0</text>
            <polygon fill="rgb(44,160,44)" clip-path="url(#clipPath3)" points=" 1921 94 1921 102 1929 102 1929 94" stroke="none"/>
            <text x="1934" xml:space="preserve" font-size="16px" y="104" clip-path="url(#clipPath3)" stroke="none">iaMean=1.5</text>
            <polygon fill="rgb(214,39,40)" clip-path="url(#clipPath3)" points=" 1921 117 1921 125 1929 125 1929 117" stroke="none"/>
            <text x="1934" xml:space="preserve" font-size="16px" y="127" clip-path="url(#clipPath3)" stroke="none">iaMean=2.0</text>
            <polygon fill="rgb(148,103,189)" clip-path="url(#clipPath3)" points=" 1921 140 1921 148 1929 148 1929 140" stroke="none"/>
            <text x="1934" xml:space="preserve" font-size="16px" y="150" clip-path="url(#clipPath3)" stroke="none">iaMean=2.5</text>
            <polygon fill="rgb(140,86,75)" clip-path="url(#clipPath3)" points=" 1921 163 1921 171 1929 171 1929 163" stroke="none"/>
            <text x="1934" xml:space="preserve" font-size="16px" y="173" clip-path="url(#clipPath3)" stroke="none">iaMean=3.0</text>
            <polygon fill="rgb(227,119,194)" clip-path="url(#clipPath3)" points=" 1921 186 1921 194 1929 194 1929 186" stroke="none"/>
            <text x="1934" xml:space="preserve" font-size="16px" y="196" clip-path="url(#clipPath3)" stroke="none">iaMean=3.5</text>
            <polygon fill="rgb(127,127,127)" clip-path="url(#clipPath3)" points=" 1921 209 1921 217 1929 217 1929 209" stroke="none"/>
            <text x="1934" xml:space="preserve" font-size="16px" y="219" clip-path="url(#clipPath3)" stroke="none">iaMean=4.0</text>
            <polygon fill="rgb(188,189,34)" clip-path="url(#clipPath3)" points=" 1921 232 1921 240 1929 240 1929 232" stroke="none"/>
            <text x="1934" xml:space="preserve" font-size="16px" y="242" clip-path="url(#clipPath3)" stroke="none">iaMean=4.5</text>
            <line y2="1137" fill="none" x1="62" clip-path="url(#clipPath2)" x2="62" y1="33"/>
            <line y2="1137" fill="none" x1="2029" clip-path="url(#clipPath2)" x2="2029" y1="33"/>
            <line y2="1137" fill="none" x1="60" clip-path="url(#clipPath2)" x2="62" y1="1137"/>
            <line y2="1137" fill="none" x1="2031" clip-path="url(#clipPath2)" x2="2029" y1="1137"/>
            <line y2="1126" fill="none" x1="60" clip-path="url(#clipPath2)" x2="62" y1="1126"/>
            <line y2="1126" fill="none" x1="2031" clip-path="url(#clipPath2)" x2="2029" y1="1126"/>
            <line y2="1115" fill="none" x1="60" clip-path="url(#clipPath2)" x2="62" y1="1115"/>
            <line y2="1115" fill="none" x1="2031" clip-path="url(#clipPath2)" x2="2029" y1="1115"/>
            <line y2="1104" fill="none" x1="58" clip-path="url(#clipPath2)" x2="62" y1="1104"/>
            <line y2="1104" fill="none" x1="2033" clip-path="url(#clipPath2)" x2="2029" y1="1104"/>
            <text x="25" xml:space="preserve" font-size="16px" y="1110" clip-path="url(#clipPath2)" stroke="none">0,05</text>
            <text x="2036" xml:space="preserve" font-size="16px" y="1110" clip-path="url(#clipPath2)" stroke="none">0,05</text>
            <line y2="1093" fill="none" x1="60" clip-path="url(#clipPath2)" x2="62" y1="1093"/>
            <line y2="1093" fill="none" x1="2031" clip-path="url(#clipPath2)" x2="2029" y1="1093"/>
            <line y2="1082" fill="none" x1="60" clip-path="url(#clipPath2)" x2="62" y1="1082"/>
            <line y2="1082" fill="none" x1="2031" clip-path="url(#clipPath2)" x2="2029" y1="1082"/>
            <line y2="1071" fill="none" x1="60" clip-path="url(#clipPath2)" x2="62" y1="1071"/>
            <line y2="1071" fill="none" x1="2031" clip-path="url(#clipPath2)" x2="2029" y1="1071"/>
            <line y2="1060" fill="none" x1="60" clip-path="url(#clipPath2)" x2="62" y1="1060"/>
            <line y2="1060" fill="none" x1="2031" clip-path="url(#clipPath2)" x2="2029" y1="1060"/>
            <line y2="1049" fill="none" x1="58" clip-path="url(#clipPath2)" x2="62" y1="1049"/>
            <line y2="1049" fill="none" x1="2033" clip-path="url(#clipPath2)" x2="2029" y1="1049"/>
            <text x="34" xml:space="preserve" font-size="16px" y="1055" clip-path="url(#clipPath2)" stroke="none">0,1</text>
            <text x="2036" xml:space="preserve" font-size="16px" y="1055" clip-path="url(#clipPath2)" stroke="none">0,1</text>
            <line y2="1038" fill="none" x1="60" clip-path="url(#clipPath2)" x2="62" y1="1038"/>
            <line y2="1038" fill="none" x1="2031" clip-path="url(#clipPath2)" x2="2029" y1="1038"/>
            <line y2="1027" fill="none" x1="60" clip-path="url(#clipPath2)" x2="62" y1="1027"/>
            <line y2="1027" fill="none" x1="2031" clip-path="url(#clipPath2)" x2="2029" y1="1027"/>
            <line y2="1016" fill="none" x1="60" clip-path="url(#clipPath2)" x2="62" y1="1016"/>
            <line y2="1016" fill="none" x1="2031" clip-path="url(#clipPath2)" x2="2029" y1="1016"/>
            <line y2="1005" fill="none" x1="60" clip-path="url(#clipPath2)" x2="62" y1="1005"/>
            <line y2="1005" fill="none" x1="2031" clip-path="url(#clipPath2)" x2="2029" y1="1005"/>
            <line y2="994" fill="none" x1="58" clip-path="url(#clipPath2)" x2="62" y1="994"/>
            <line y2="994" fill="none" x1="2033" clip-path="url(#clipPath2)" x2="2029" y1="994"/>
            <text x="25" xml:space="preserve" font-size="16px" y="1000" clip-path="url(#clipPath2)" stroke="none">0,15</text>
            <text x="2036" xml:space="preserve" font-size="16px" y="1000" clip-path="url(#clipPath2)" stroke="none">0,15</text>
            <line y2="983" fill="none" x1="60" clip-path="url(#clipPath2)" x2="62" y1="983"/>
            <line y2="983" fill="none" x1="2031" clip-path="url(#clipPath2)" x2="2029" y1="983"/>
            <line y2="972" fill="none" x1="60" clip-path="url(#clipPath2)" x2="62" y1="972"/>
            <line y2="972" fill="none" x1="2031" clip-path="url(#clipPath2)" x2="2029" y1="972"/>
            <line y2="961" fill="none" x1="60" clip-path="url(#clipPath2)" x2="62" y1="961"/>
            <line y2="961" fill="none" x1="2031" clip-path="url(#clipPath2)" x2="2029" y1="961"/>
            <line y2="950" fill="none" x1="60" clip-path="url(#clipPath2)" x2="62" y1="950"/>
            <line y2="950" fill="none" x1="2031" clip-path="url(#clipPath2)" x2="2029" y1="950"/>
            <line y2="939" fill="none" x1="58" clip-path="url(#clipPath2)" x2="62" y1="939"/>
            <line y2="939" fill="none" x1="2033" clip-path="url(#clipPath2)" x2="2029" y1="939"/>
            <text x="34" xml:space="preserve" font-size="16px" y="945" clip-path="url(#clipPath2)" stroke="none">0,2</text>
            <text x="2036" xml:space="preserve" font-size="16px" y="945" clip-path="url(#clipPath2)" stroke="none">0,2</text>
            <line y2="928" fill="none" x1="60" clip-path="url(#clipPath2)" x2="62" y1="928"/>
            <line y2="928" fill="none" x1="2031" clip-path="url(#clipPath2)" x2="2029" y1="928"/>
            <line y2="917" fill="none" x1="60" clip-path="url(#clipPath2)" x2="62" y1="917"/>
            <line y2="917" fill="none" x1="2031" clip-path="url(#clipPath2)" x2="2029" y1="917"/>
            <line y2="906" fill="none" x1="60" clip-path="url(#clipPath2)" x2="62" y1="906"/>
            <line y2="906" fill="none" x1="2031" clip-path="url(#clipPath2)" x2="2029" y1="906"/>
            <line y2="895" fill="none" x1="60" clip-path="url(#clipPath2)" x2="62" y1="895"/>
            <line y2="895" fill="none" x1="2031" clip-path="url(#clipPath2)" x2="2029" y1="895"/>
            <line y2="884" fill="none" x1="58" clip-path="url(#clipPath2)" x2="62" y1="884"/>
            <line y2="884" fill="none" x1="2033" clip-path="url(#clipPath2)" x2="2029" y1="884"/>
            <text x="25" xml:space="preserve" font-size="16px" y="890" clip-path="url(#clipPath2)" stroke="none">0,25</text>
            <text x="2036" xml:space="preserve" font-size="16px" y="890" clip-path="url(#clipPath2)" stroke="none">0,25</text>
            <line y2="873" fill="none" x1="60" clip-path="url(#clipPath2)" x2="62" y1="873"/>
            <line y2="873" fill="none" x1="2031" clip-path="url(#clipPath2)" x2="2029" y1="873"/>
            <line y2="862" fill="none" x1="60" clip-path="url(#clipPath2)" x2="62" y1="862"/>
            <line y2="862" fill="none" x1="2031" clip-path="url(#clipPath2)" x2="2029" y1="862"/>
            <line y2="851" fill="none" x1="60" clip-path="url(#clipPath2)" x2="62" y1="851"/>
            <line y2="851" fill="none" x1="2031" clip-path="url(#clipPath2)" x2="2029" y1="851"/>
            <line y2="840" fill="none" x1="60" clip-path="url(#clipPath2)" x2="62" y1="840"/>
            <line y2="840" fill="none" x1="2031" clip-path="url(#clipPath2)" x2="2029" y1="840"/>
            <line y2="829" fill="none" x1="58" clip-path="url(#clipPath2)" x2="62" y1="829"/>
            <line y2="829" fill="none" x1="2033" clip-path="url(#clipPath2)" x2="2029" y1="829"/>
            <text x="34" xml:space="preserve" font-size="16px" y="835" clip-path="url(#clipPath2)" stroke="none">0,3</text>
            <text x="2036" xml:space="preserve" font-size="16px" y="835" clip-path="url(#clipPath2)" stroke="none">0,3</text>
            <line y2="818" fill="none" x1="60" clip-path="url(#clipPath2)" x2="62" y1="818"/>
            <line y2="818" fill="none" x1="2031" clip-path="url(#clipPath2)" x2="2029" y1="818"/>
            <line y2="807" fill="none" x1="60" clip-path="url(#clipPath2)" x2="62" y1="807"/>
            <line y2="807" fill="none" x1="2031" clip-path="url(#clipPath2)" x2="2029" y1="807"/>
            <line y2="796" fill="none" x1="60" clip-path="url(#clipPath2)" x2="62" y1="796"/>
            <line y2="796" fill="none" x1="2031" clip-path="url(#clipPath2)" x2="2029" y1="796"/>
            <line y2="785" fill="none" x1="60" clip-path="url(#clipPath2)" x2="62" y1="785"/>
            <line y2="785" fill="none" x1="2031" clip-path="url(#clipPath2)" x2="2029" y1="785"/>
            <line y2="774" fill="none" x1="58" clip-path="url(#clipPath2)" x2="62" y1="774"/>
            <line y2="774" fill="none" x1="2033" clip-path="url(#clipPath2)" x2="2029" y1="774"/>
            <text x="25" xml:space="preserve" font-size="16px" y="780" clip-path="url(#clipPath2)" stroke="none">0,35</text>
            <text x="2036" xml:space="preserve" font-size="16px" y="780" clip-path="url(#clipPath2)" stroke="none">0,35</text>
            <line y2="763" fill="none" x1="60" clip-path="url(#clipPath2)" x2="62" y1="763"/>
            <line y2="763" fill="none" x1="2031" clip-path="url(#clipPath2)" x2="2029" y1="763"/>
            <line y2="752" fill="none" x1="60" clip-path="url(#clipPath2)" x2="62" y1="752"/>
            <line y2="752" fill="none" x1="2031" clip-path="url(#clipPath2)" x2="2029" y1="752"/>
            <line y2="741" fill="none" x1="60" clip-path="url(#clipPath2)" x2="62" y1="741"/>
            <line y2="741" fill="none" x1="2031" clip-path="url(#clipPath2)" x2="2029" y1="741"/>
            <line y2="730" fill="none" x1="60" clip-path="url(#clipPath2)" x2="62" y1="730"/>
            <line y2="730" fill="none" x1="2031" clip-path="url(#clipPath2)" x2="2029" y1="730"/>
            <line y2="719" fill="none" x1="58" clip-path="url(#clipPath2)" x2="62" y1="719"/>
            <line y2="719" fill="none" x1="2033" clip-path="url(#clipPath2)" x2="2029" y1="719"/>
            <text x="34" xml:space="preserve" font-size="16px" y="725" clip-path="url(#clipPath2)" stroke="none">0,4</text>
            <text x="2036" xml:space="preserve" font-size="16px" y="725" clip-path="url(#clipPath2)" stroke="none">0,4</text>
            <line y2="708" fill="none" x1="60" clip-path="url(#clipPath2)" x2="62" y1="708"/>
            <line y2="708" fill="none" x1="2031" clip-path="url(#clipPath2)" x2="2029" y1="708"/>
            <line y2="697" fill="none" x1="60" clip-path="url(#clipPath2)" x2="62" y1="697"/>
            <line y2="697" fill="none" x1="2031" clip-path="url(#clipPath2)" x2="2029" y1="697"/>
            <line y2="686" fill="none" x1="60" clip-path="url(#clipPath2)" x2="62" y1="686"/>
            <line y2="686" fill="none" x1="2031" clip-path="url(#clipPath2)" x2="2029" y1="686"/>
            <line y2="675" fill="none" x1="60" clip-path="url(#clipPath2)" x2="62" y1="675"/>
            <line y2="675" fill="none" x1="2031" clip-path="url(#clipPath2)" x2="2029" y1="675"/>
            <line y2="664" fill="none" x1="58" clip-path="url(#clipPath2)" x2="62" y1="664"/>
            <line y2="664" fill="none" x1="2033" clip-path="url(#clipPath2)" x2="2029" y1="664"/>
            <text x="25" xml:space="preserve" font-size="16px" y="670" clip-path="url(#clipPath2)" stroke="none">0,45</text>
            <text x="2036" xml:space="preserve" font-size="16px" y="670" clip-path="url(#clipPath2)" stroke="none">0,45</text>
            <line y2="653" fill="none" x1="60" clip-path="url(#clipPath2)" x2="62" y1="653"/>
            <line y2="653" fill="none" x1="2031" clip-path="url(#clipPath2)" x2="2029" y1="653"/>
            <line y2="642" fill="none" x1="60" clip-path="url(#clipPath2)" x2="62" y1="642"/>
            <line y2="642" fill="none" x1="2031" clip-path="url(#clipPath2)" x2="2029" y1="642"/>
            <line y2="631" fill="none" x1="60" clip-path="url(#clipPath2)" x2="62" y1="631"/>
            <line y2="631" fill="none" x1="2031" clip-path="url(#clipPath2)" x2="2029" y1="631"/>
            <line y2="620" fill="none" x1="60" clip-path="url(#clipPath2)" x2="62" y1="620"/>
            <line y2="620" fill="none" x1="2031" clip-path="url(#clipPath2)" x2="2029" y1="620"/>
            <line y2="609" fill="none" x1="58" clip-path="url(#clipPath2)" x2="62" y1="609"/>
            <line y2="609" fill="none" x1="2033" clip-path="url(#clipPath2)" x2="2029" y1="609"/>
            <text x="34" xml:space="preserve" font-size="16px" y="615" clip-path="url(#clipPath2)" stroke="none">0,5</text>
            <text x="2036" xml:space="preserve" font-size="16px" y="615" clip-path="url(#clipPath2)" stroke="none">0,5</text>
            <line y2="598" fill="none" x1="60" clip-path="url(#clipPath2)" x2="62" y1="598"/>
            <line y2="598" fill="none" x1="2031" clip-path="url(#clipPath2)" x2="2029" y1="598"/>
            <line y2="587" fill="none" x1="60" clip-path="url(#clipPath2)" x2="62" y1="587"/>
            <line y2="587" fill="none" x1="2031" clip-path="url(#clipPath2)" x2="2029" y1="587"/>
            <line y2="576" fill="none" x1="60" clip-path="url(#clipPath2)" x2="62" y1="576"/>
            <line y2="576" fill="none" x1="2031" clip-path="url(#clipPath2)" x2="2029" y1="576"/>
            <line y2="565" fill="none" x1="60" clip-path="url(#clipPath2)" x2="62" y1="565"/>
            <line y2="565" fill="none" x1="2031" clip-path="url(#clipPath2)" x2="2029" y1="565"/>
            <line y2="554" fill="none" x1="58" clip-path="url(#clipPath2)" x2="62" y1="554"/>
            <line y2="554" fill="none" x1="2033" clip-path="url(#clipPath2)" x2="2029" y1="554"/>
            <text x="25" xml:space="preserve" font-size="16px" y="560" clip-path="url(#clipPath2)" stroke="none">0,55</text>
            <text x="2036" xml:space="preserve" font-size="16px" y="560" clip-path="url(#clipPath2)" stroke="none">0,55</text>
            <line y2="543" fill="none" x1="60" clip-path="url(#clipPath2)" x2="62" y1="543"/>
            <line y2="543" fill="none" x1="2031" clip-path="url(#clipPath2)" x2="2029" y1="543"/>
            <line y2="532" fill="none" x1="60" clip-path="url(#clipPath2)" x2="62" y1="532"/>
            <line y2="532" fill="none" x1="2031" clip-path="url(#clipPath2)" x2="2029" y1="532"/>
            <line y2="521" fill="none" x1="60" clip-path="url(#clipPath2)" x2="62" y1="521"/>
            <line y2="521" fill="none" x1="2031" clip-path="url(#clipPath2)" x2="2029" y1="521"/>
            <line y2="510" fill="none" x1="60" clip-path="url(#clipPath2)" x2="62" y1="510"/>
            <line y2="510" fill="none" x1="2031" clip-path="url(#clipPath2)" x2="2029" y1="510"/>
            <line y2="499" fill="none" x1="58" clip-path="url(#clipPath2)" x2="62" y1="499"/>
            <line y2="499" fill="none" x1="2033" clip-path="url(#clipPath2)" x2="2029" y1="499"/>
            <text x="34" xml:space="preserve" font-size="16px" y="505" clip-path="url(#clipPath2)" stroke="none">0,6</text>
            <text x="2036" xml:space="preserve" font-size="16px" y="505" clip-path="url(#clipPath2)" stroke="none">0,6</text>
            <line y2="488" fill="none" x1="60" clip-path="url(#clipPath2)" x2="62" y1="488"/>
            <line y2="488" fill="none" x1="2031" clip-path="url(#clipPath2)" x2="2029" y1="488"/>
            <line y2="477" fill="none" x1="60" clip-path="url(#clipPath2)" x2="62" y1="477"/>
            <line y2="477" fill="none" x1="2031" clip-path="url(#clipPath2)" x2="2029" y1="477"/>
            <line y2="466" fill="none" x1="60" clip-path="url(#clipPath2)" x2="62" y1="466"/>
            <line y2="466" fill="none" x1="2031" clip-path="url(#clipPath2)" x2="2029" y1="466"/>
            <line y2="455" fill="none" x1="60" clip-path="url(#clipPath2)" x2="62" y1="455"/>
            <line y2="455" fill="none" x1="2031" clip-path="url(#clipPath2)" x2="2029" y1="455"/>
            <line y2="444" fill="none" x1="58" clip-path="url(#clipPath2)" x2="62" y1="444"/>
            <line y2="444" fill="none" x1="2033" clip-path="url(#clipPath2)" x2="2029" y1="444"/>
            <text x="25" xml:space="preserve" font-size="16px" y="450" clip-path="url(#clipPath2)" stroke="none">0,65</text>
            <text x="2036" xml:space="preserve" font-size="16px" y="450" clip-path="url(#clipPath2)" stroke="none">0,65</text>
            <line y2="433" fill="none" x1="60" clip-path="url(#clipPath2)" x2="62" y1="433"/>
            <line y2="433" fill="none" x1="2031" clip-path="url(#clipPath2)" x2="2029" y1="433"/>
            <line y2="422" fill="none" x1="60" clip-path="url(#clipPath2)" x2="62" y1="422"/>
            <line y2="422" fill="none" x1="2031" clip-path="url(#clipPath2)" x2="2029" y1="422"/>
            <line y2="410" fill="none" x1="60" clip-path="url(#clipPath2)" x2="62" y1="410"/>
            <line y2="410" fill="none" x1="2031" clip-path="url(#clipPath2)" x2="2029" y1="410"/>
            <line y2="399" fill="none" x1="60" clip-path="url(#clipPath2)" x2="62" y1="399"/>
            <line y2="399" fill="none" x1="2031" clip-path="url(#clipPath2)" x2="2029" y1="399"/>
            <line y2="388" fill="none" x1="58" clip-path="url(#clipPath2)" x2="62" y1="388"/>
            <line y2="388" fill="none" x1="2033" clip-path="url(#clipPath2)" x2="2029" y1="388"/>
            <text x="34" xml:space="preserve" font-size="16px" y="394" clip-path="url(#clipPath2)" stroke="none">0,7</text>
            <text x="2036" xml:space="preserve" font-size="16px" y="394" clip-path="url(#clipPath2)" stroke="none">0,7</text>
            <line y2="377" fill="none" x1="60" clip-path="url(#clipPath2)" x2="62" y1="377"/>
            <line y2="377" fill="none" x1="2031" clip-path="url(#clipPath2)" x2="2029" y1="377"/>
            <line y2="366" fill="none" x1="60" clip-path="url(#clipPath2)" x2="62" y1="366"/>
            <line y2="366" fill="none" x1="2031" clip-path="url(#clipPath2)" x2="2029" y1="366"/>
            <line y2="355" fill="none" x1="60" clip-path="url(#clipPath2)" x2="62" y1="355"/>
            <line y2="355" fill="none" x1="2031" clip-path="url(#clipPath2)" x2="2029" y1="355"/>
            <line y2="344" fill="none" x1="60" clip-path="url(#clipPath2)" x2="62" y1="344"/>
            <line y2="344" fill="none" x1="2031" clip-path="url(#clipPath2)" x2="2029" y1="344"/>
            <line y2="333" fill="none" x1="58" clip-path="url(#clipPath2)" x2="62" y1="333"/>
            <line y2="333" fill="none" x1="2033" clip-path="url(#clipPath2)" x2="2029" y1="333"/>
            <text x="25" xml:space="preserve" font-size="16px" y="339" clip-path="url(#clipPath2)" stroke="none">0,75</text>
            <text x="2036" xml:space="preserve" font-size="16px" y="339" clip-path="url(#clipPath2)" stroke="none">0,75</text>
            <line y2="322" fill="none" x1="60" clip-path="url(#clipPath2)" x2="62" y1="322"/>
            <line y2="322" fill="none" x1="2031" clip-path="url(#clipPath2)" x2="2029" y1="322"/>
            <line y2="311" fill="none" x1="60" clip-path="url(#clipPath2)" x2="62" y1="311"/>
            <line y2="311" fill="none" x1="2031" clip-path="url(#clipPath2)" x2="2029" y1="311"/>
            <line y2="300" fill="none" x1="60" clip-path="url(#clipPath2)" x2="62" y1="300"/>
            <line y2="300" fill="none" x1="2031" clip-path="url(#clipPath2)" x2="2029" y1="300"/>
            <line y2="289" fill="none" x1="60" clip-path="url(#clipPath2)" x2="62" y1="289"/>
            <line y2="289" fill="none" x1="2031" clip-path="url(#clipPath2)" x2="2029" y1="289"/>
            <line y2="278" fill="none" x1="58" clip-path="url(#clipPath2)" x2="62" y1="278"/>
            <line y2="278" fill="none" x1="2033" clip-path="url(#clipPath2)" x2="2029" y1="278"/>
            <text x="34" xml:space="preserve" font-size="16px" y="284" clip-path="url(#clipPath2)" stroke="none">0,8</text>
            <text x="2036" xml:space="preserve" font-size="16px" y="284" clip-path="url(#clipPath2)" stroke="none">0,8</text>
            <line y2="267" fill="none" x1="60" clip-path="url(#clipPath2)" x2="62" y1="267"/>
            <line y2="267" fill="none" x1="2031" clip-path="url(#clipPath2)" x2="2029" y1="267"/>
            <line y2="256" fill="none" x1="60" clip-path="url(#clipPath2)" x2="62" y1="256"/>
            <line y2="256" fill="none" x1="2031" clip-path="url(#clipPath2)" x2="2029" y1="256"/>
            <line y2="245" fill="none" x1="60" clip-path="url(#clipPath2)" x2="62" y1="245"/>
            <line y2="245" fill="none" x1="2031" clip-path="url(#clipPath2)" x2="2029" y1="245"/>
            <line y2="234" fill="none" x1="60" clip-path="url(#clipPath2)" x2="62" y1="234"/>
            <line y2="234" fill="none" x1="2031" clip-path="url(#clipPath2)" x2="2029" y1="234"/>
            <line y2="223" fill="none" x1="58" clip-path="url(#clipPath2)" x2="62" y1="223"/>
            <line y2="223" fill="none" x1="2033" clip-path="url(#clipPath2)" x2="2029" y1="223"/>
            <text x="25" xml:space="preserve" font-size="16px" y="229" clip-path="url(#clipPath2)" stroke="none">0,85</text>
            <text x="2036" xml:space="preserve" font-size="16px" y="229" clip-path="url(#clipPath2)" stroke="none">0,85</text>
            <line y2="212" fill="none" x1="60" clip-path="url(#clipPath2)" x2="62" y1="212"/>
            <line y2="212" fill="none" x1="2031" clip-path="url(#clipPath2)" x2="2029" y1="212"/>
            <line y2="201" fill="none" x1="60" clip-path="url(#clipPath2)" x2="62" y1="201"/>
            <line y2="201" fill="none" x1="2031" clip-path="url(#clipPath2)" x2="2029" y1="201"/>
            <line y2="190" fill="none" x1="60" clip-path="url(#clipPath2)" x2="62" y1="190"/>
            <line y2="190" fill="none" x1="2031" clip-path="url(#clipPath2)" x2="2029" y1="190"/>
            <line y2="179" fill="none" x1="60" clip-path="url(#clipPath2)" x2="62" y1="179"/>
            <line y2="179" fill="none" x1="2031" clip-path="url(#clipPath2)" x2="2029" y1="179"/>
            <line y2="168" fill="none" x1="58" clip-path="url(#clipPath2)" x2="62" y1="168"/>
            <line y2="168" fill="none" x1="2033" clip-path="url(#clipPath2)" x2="2029" y1="168"/>
            <text x="34" xml:space="preserve" font-size="16px" y="174" clip-path="url(#clipPath2)" stroke="none">0,9</text>
            <text x="2036" xml:space="preserve" font-size="16px" y="174" clip-path="url(#clipPath2)" stroke="none">0,9</text>
            <line y2="157" fill="none" x1="60" clip-path="url(#clipPath2)" x2="62" y1="157"/>
            <line y2="157" fill="none" x1="2031" clip-path="url(#clipPath2)" x2="2029" y1="157"/>
            <line y2="146" fill="none" x1="60" clip-path="url(#clipPath2)" x2="62" y1="146"/>
            <line y2="146" fill="none" x1="2031" clip-path="url(#clipPath2)" x2="2029" y1="146"/>
            <line y2="135" fill="none" x1="60" clip-path="url(#clipPath2)" x2="62" y1="135"/>
            <line y2="135" fill="none" x1="2031" clip-path="url(#clipPath2)" x2="2029" y1="135"/>
            <line y2="124" fill="none" x1="60" clip-path="url(#clipPath2)" x2="62" y1="124"/>
            <line y2="124" fill="none" x1="2031" clip-path="url(#clipPath2)" x2="2029" y1="124"/>
            <line y2="113" fill="none" x1="58" clip-path="url(#clipPath2)" x2="62" y1="113"/>
            <line y2="113" fill="none" x1="2033" clip-path="url(#clipPath2)" x2="2029" y1="113"/>
            <text x="25" xml:space="preserve" font-size="16px" y="119" clip-path="url(#clipPath2)" stroke="none">0,95</text>
            <text x="2036" xml:space="preserve" font-size="16px" y="119" clip-path="url(#clipPath2)" stroke="none">0,95</text>
            <line y2="102" fill="none" x1="60" clip-path="url(#clipPath2)" x2="62" y1="102"/>
            <line y2="102" fill="none" x1="2031" clip-path="url(#clipPath2)" x2="2029" y1="102"/>
            <line y2="91" fill="none" x1="60" clip-path="url(#clipPath2)" x2="62" y1="91"/>
            <line y2="91" fill="none" x1="2031" clip-path="url(#clipPath2)" x2="2029" y1="91"/>
            <line y2="80" fill="none" x1="60" clip-path="url(#clipPath2)" x2="62" y1="80"/>
            <line y2="80" fill="none" x1="2031" clip-path="url(#clipPath2)" x2="2029" y1="80"/>
            <line y2="69" fill="none" x1="60" clip-path="url(#clipPath2)" x2="62" y1="69"/>
            <line y2="69" fill="none" x1="2031" clip-path="url(#clipPath2)" x2="2029" y1="69"/>
            <line y2="58" fill="none" x1="58" clip-path="url(#clipPath2)" x2="62" y1="58"/>
            <line y2="58" fill="none" x1="2033" clip-path="url(#clipPath2)" x2="2029" y1="58"/>
            <text x="48" xml:space="preserve" font-size="16px" y="64" clip-path="url(#clipPath2)" stroke="none">1</text>
            <text x="2036" xml:space="preserve" font-size="16px" y="64" clip-path="url(#clipPath2)" stroke="none">1</text>
            <line y2="47" fill="none" x1="60" clip-path="url(#clipPath2)" x2="62" y1="47"/>
            <line y2="47" fill="none" x1="2031" clip-path="url(#clipPath2)" x2="2029" y1="47"/>
            <line y2="36" fill="none" x1="60" clip-path="url(#clipPath2)" x2="62" y1="36"/>
            <line y2="36" fill="none" x1="2031" clip-path="url(#clipPath2)" x2="2029" y1="36"/>
            <line y2="1141" fill="none" x1="194" clip-path="url(#clipPath4)" x2="1895" y1="1141"/>
            <text x="194" xml:space="preserve" font-size="16px" y="1157" clip-path="url(#clipPath4)" stroke="none">collision length, mean</text>
            <text x="1033" xml:space="preserve" font-size="16px" y="1180" clip-path="url(#clipPath4)" stroke="none">title</text>
        </g>
    </g>
</svg>
