<?xml version="1.0" encoding="UTF-8"?><svg xmlns="http://www.w3.org/2000/svg" xmlns:xlink="http://www.w3.org/1999/xlink" stroke-dasharray="none" shape-rendering="auto" font-family="'Dialog'" width="2073" text-rendering="auto" fill-opacity="1" contentScriptType="text/ecmascript" color-interpolation="auto" color-rendering="auto" preserveAspectRatio="xMidYMid meet" font-size="12px" fill="black" stroke="black" image-rendering="auto" stroke-miterlimit="10" zoomAndPan="magnify" version="1.0" stroke-linecap="square" stroke-linejoin="miter" contentStyleType="text/css" font-style="normal" height="1185" stroke-width="1" stroke-dashoffset="0" font-weight="normal" stroke-opacity="1">
    <!--Generated by the Batik Graphics2D SVG Generator-->
    <defs id="genericDefs"/>
    <g>
        <defs id="defs1">
            <clipPath clipPathUnits="userSpaceOnUse" id="clipPath1">
                <path d="M63 32 L2028 32 L2028 1138 L63 1138 L63 32 Z"/>
            </clipPath>
            <clipPath clipPathUnits="userSpaceOnUse" id="clipPath2">
                <path d="M-1 -1 L2074 -1 L2074 1186 L-1 1186 L-1 -1 Z"/>
            </clipPath>
            <clipPath clipPathUnits="userSpaceOnUse" id="clipPath3">
                <path d="M1911 37 L2024 37 L2024 252 L1911 252 L1911 37 Z"/>
            </clipPath>
            <clipPath clipPathUnits="userSpaceOnUse" id="clipPath4">
                <path d="M63 1136 L2028 1136 L2028 1186 L63 1186 L63 1136 Z"/>
            </clipPath>
        </defs>
        <g font-size="18px" fill="white" text-rendering="optimizeLegibility" font-family="'Segoe UI'" stroke-linejoin="round" stroke="white" stroke-width="0" stroke-miterlimit="0">
            <rect x="64" width="1963" height="1104" y="33" clip-path="url(#clipPath1)" stroke="none"/>
        </g>
        <g stroke-linecap="butt" font-size="18px" fill="rgb(204,204,204)" text-rendering="optimizeLegibility" font-family="'Segoe UI'" stroke-dasharray="3,3" stroke="rgb(204,204,204)">
            <line y2="1105" fill="none" x1="64" clip-path="url(#clipPath1)" x2="2027" y1="1105"/>
            <line y2="1051" fill="none" x1="64" clip-path="url(#clipPath1)" x2="2027" y1="1051"/>
            <line y2="997" fill="none" x1="64" clip-path="url(#clipPath1)" x2="2027" y1="997"/>
            <line y2="943" fill="none" x1="64" clip-path="url(#clipPath1)" x2="2027" y1="943"/>
            <line y2="889" fill="none" x1="64" clip-path="url(#clipPath1)" x2="2027" y1="889"/>
            <line y2="835" fill="none" x1="64" clip-path="url(#clipPath1)" x2="2027" y1="835"/>
            <line y2="781" fill="none" x1="64" clip-path="url(#clipPath1)" x2="2027" y1="781"/>
            <line y2="727" fill="none" x1="64" clip-path="url(#clipPath1)" x2="2027" y1="727"/>
            <line y2="673" fill="none" x1="64" clip-path="url(#clipPath1)" x2="2027" y1="673"/>
            <line y2="619" fill="none" x1="64" clip-path="url(#clipPath1)" x2="2027" y1="619"/>
            <line y2="565" fill="none" x1="64" clip-path="url(#clipPath1)" x2="2027" y1="565"/>
            <line y2="511" fill="none" x1="64" clip-path="url(#clipPath1)" x2="2027" y1="511"/>
            <line y2="457" fill="none" x1="64" clip-path="url(#clipPath1)" x2="2027" y1="457"/>
            <line y2="403" fill="none" x1="64" clip-path="url(#clipPath1)" x2="2027" y1="403"/>
            <line y2="349" fill="none" x1="64" clip-path="url(#clipPath1)" x2="2027" y1="349"/>
            <line y2="295" fill="none" x1="64" clip-path="url(#clipPath1)" x2="2027" y1="295"/>
            <line y2="241" fill="none" x1="64" clip-path="url(#clipPath1)" x2="2027" y1="241"/>
            <line y2="187" fill="none" x1="64" clip-path="url(#clipPath1)" x2="2027" y1="187"/>
            <line y2="133" fill="none" x1="64" clip-path="url(#clipPath1)" x2="2027" y1="133"/>
            <line y2="79" fill="none" x1="64" clip-path="url(#clipPath1)" x2="2027" y1="79"/>
            <rect x="1765" y="146" clip-path="url(#clipPath1)" fill="rgb(188,189,34)" width="130" height="1013" stroke="none"/>
            <rect x="1765" y="146" clip-path="url(#clipPath1)" fill="none" width="130" stroke-dasharray="none" height="1013" stroke="black"/>
            <rect x="1568" y="135" clip-path="url(#clipPath1)" fill="rgb(127,127,127)" width="130" stroke-dasharray="none" height="1024" stroke="none"/>
            <rect x="1568" y="135" clip-path="url(#clipPath1)" fill="none" width="130" stroke-dasharray="none" height="1024" stroke="black"/>
            <rect x="1372" y="136" clip-path="url(#clipPath1)" fill="rgb(227,119,194)" width="130" stroke-dasharray="none" height="1023" stroke="none"/>
            <rect x="1372" y="136" clip-path="url(#clipPath1)" fill="none" width="130" stroke-dasharray="none" height="1023" stroke="black"/>
            <rect x="1176" y="162" clip-path="url(#clipPath1)" fill="rgb(140,86,75)" width="130" stroke-dasharray="none" height="997" stroke="none"/>
            <rect x="1176" y="162" clip-path="url(#clipPath1)" fill="none" width="130" stroke-dasharray="none" height="997" stroke="black"/>
            <rect x="980" y="237" clip-path="url(#clipPath1)" fill="rgb(148,103,189)" width="130" stroke-dasharray="none" height="922" stroke="none"/>
            <rect x="980" y="237" clip-path="url(#clipPath1)" fill="none" width="130" stroke-dasharray="none" height="922" stroke="black"/>
            <rect x="783" y="369" clip-path="url(#clipPath1)" fill="rgb(214,39,40)" width="130" stroke-dasharray="none" height="790" stroke="none"/>
            <rect x="783" y="369" clip-path="url(#clipPath1)" fill="none" width="130" stroke-dasharray="none" height="790" stroke="black"/>
            <rect x="587" y="585" clip-path="url(#clipPath1)" fill="rgb(44,160,44)" width="130" stroke-dasharray="none" height="574" stroke="none"/>
            <rect x="587" y="585" clip-path="url(#clipPath1)" fill="none" width="130" stroke-dasharray="none" height="574" stroke="black"/>
            <rect x="391" y="914" clip-path="url(#clipPath1)" fill="rgb(255,127,14)" width="130" stroke-dasharray="none" height="245" stroke="none"/>
            <rect x="391" y="914" clip-path="url(#clipPath1)" fill="none" width="130" stroke-dasharray="none" height="245" stroke="black"/>
            <rect x="194" y="1146" clip-path="url(#clipPath1)" fill="rgb(31,119,180)" width="130" stroke-dasharray="none" height="13" stroke="none"/>
            <rect x="194" y="1146" clip-path="url(#clipPath1)" fill="none" width="130" stroke-dasharray="none" height="13" stroke="black"/>
            <rect x="64" y="33" clip-path="url(#clipPath2)" fill="none" width="1963" stroke-dasharray="none" height="1104" stroke="black"/>
            <line clip-path="url(#clipPath2)" fill="none" x1="65" x2="2026" y1="1160" y2="1160" stroke-dasharray="none"/>
        </g>
        <g text-rendering="optimizeLegibility" font-size="20px" font-family="'Arial'" stroke-linecap="butt">
            <text x="901" xml:space="preserve" y="19" clip-path="url(#clipPath2)" stroke="none">Utilización del canal NOSLOTS</text>
            <rect x="1912" y="38" clip-path="url(#clipPath3)" fill="white" width="110" opacity="0.753" height="212" stroke="none"/>
            <polygon fill="rgb(31,119,180)" clip-path="url(#clipPath3)" points=" 1921 48 1921 56 1929 56 1929 48" stroke="none"/>
            <text x="1934" xml:space="preserve" font-size="16px" y="58" clip-path="url(#clipPath3)" stroke="none">iaMean=0.5</text>
            <polygon fill="rgb(255,127,14)" clip-path="url(#clipPath3)" points=" 1921 71 1921 79 1929 79 1929 71" stroke="none"/>
            <text x="1934" xml:space="preserve" font-size="16px" y="81" clip-path="url(#clipPath3)" stroke="none">iaMean=1.0</text>
            <polygon fill="rgb(44,160,44)" clip-path="url(#clipPath3)" points=" 1921 94 1921 102 1929 102 1929 94" stroke="none"/>
            <text x="1934" xml:space="preserve" font-size="16px" y="104" clip-path="url(#clipPath3)" stroke="none">iaMean=1.5</text>
            <polygon fill="rgb(214,39,40)" clip-path="url(#clipPath3)" points=" 1921 117 1921 125 1929 125 1929 117" stroke="none"/>
            <text x="1934" xml:space="preserve" font-size="16px" y="127" clip-path="url(#clipPath3)" stroke="none">iaMean=2.0</text>
            <polygon fill="rgb(148,103,189)" clip-path="url(#clipPath3)" points=" 1921 140 1921 148 1929 148 1929 140" stroke="none"/>
            <text x="1934" xml:space="preserve" font-size="16px" y="150" clip-path="url(#clipPath3)" stroke="none">iaMean=2.5</text>
            <polygon fill="rgb(140,86,75)" clip-path="url(#clipPath3)" points=" 1921 163 1921 171 1929 171 1929 163" stroke="none"/>
            <text x="1934" xml:space="preserve" font-size="16px" y="173" clip-path="url(#clipPath3)" stroke="none">iaMean=3.0</text>
            <polygon fill="rgb(227,119,194)" clip-path="url(#clipPath3)" points=" 1921 186 1921 194 1929 194 1929 186" stroke="none"/>
            <text x="1934" xml:space="preserve" font-size="16px" y="196" clip-path="url(#clipPath3)" stroke="none">iaMean=3.5</text>
            <polygon fill="rgb(127,127,127)" clip-path="url(#clipPath3)" points=" 1921 209 1921 217 1929 217 1929 209" stroke="none"/>
            <text x="1934" xml:space="preserve" font-size="16px" y="219" clip-path="url(#clipPath3)" stroke="none">iaMean=4.0</text>
            <polygon fill="rgb(188,189,34)" clip-path="url(#clipPath3)" points=" 1921 232 1921 240 1929 240 1929 232" stroke="none"/>
            <text x="1934" xml:space="preserve" font-size="16px" y="242" clip-path="url(#clipPath3)" stroke="none">iaMean=4.5</text>
            <line y2="1137" fill="none" x1="62" clip-path="url(#clipPath2)" x2="62" y1="33"/>
            <line y2="1137" fill="none" x1="2029" clip-path="url(#clipPath2)" x2="2029" y1="33"/>
            <line y2="1127" fill="none" x1="60" clip-path="url(#clipPath2)" x2="62" y1="1127"/>
            <line y2="1127" fill="none" x1="2031" clip-path="url(#clipPath2)" x2="2029" y1="1127"/>
            <line y2="1116" fill="none" x1="60" clip-path="url(#clipPath2)" x2="62" y1="1116"/>
            <line y2="1116" fill="none" x1="2031" clip-path="url(#clipPath2)" x2="2029" y1="1116"/>
            <line y2="1105" fill="none" x1="58" clip-path="url(#clipPath2)" x2="62" y1="1105"/>
            <line y2="1105" fill="none" x1="2033" clip-path="url(#clipPath2)" x2="2029" y1="1105"/>
            <text x="25" xml:space="preserve" font-size="16px" y="1111" clip-path="url(#clipPath2)" stroke="none">0,01</text>
            <text x="2036" xml:space="preserve" font-size="16px" y="1111" clip-path="url(#clipPath2)" stroke="none">0,01</text>
            <line y2="1095" fill="none" x1="60" clip-path="url(#clipPath2)" x2="62" y1="1095"/>
            <line y2="1095" fill="none" x1="2031" clip-path="url(#clipPath2)" x2="2029" y1="1095"/>
            <line y2="1084" fill="none" x1="60" clip-path="url(#clipPath2)" x2="62" y1="1084"/>
            <line y2="1084" fill="none" x1="2031" clip-path="url(#clipPath2)" x2="2029" y1="1084"/>
            <line y2="1073" fill="none" x1="60" clip-path="url(#clipPath2)" x2="62" y1="1073"/>
            <line y2="1073" fill="none" x1="2031" clip-path="url(#clipPath2)" x2="2029" y1="1073"/>
            <line y2="1062" fill="none" x1="60" clip-path="url(#clipPath2)" x2="62" y1="1062"/>
            <line y2="1062" fill="none" x1="2031" clip-path="url(#clipPath2)" x2="2029" y1="1062"/>
            <line y2="1051" fill="none" x1="58" clip-path="url(#clipPath2)" x2="62" y1="1051"/>
            <line y2="1051" fill="none" x1="2033" clip-path="url(#clipPath2)" x2="2029" y1="1051"/>
            <text x="25" xml:space="preserve" font-size="16px" y="1057" clip-path="url(#clipPath2)" stroke="none">0,02</text>
            <text x="2036" xml:space="preserve" font-size="16px" y="1057" clip-path="url(#clipPath2)" stroke="none">0,02</text>
            <line y2="1041" fill="none" x1="60" clip-path="url(#clipPath2)" x2="62" y1="1041"/>
            <line y2="1041" fill="none" x1="2031" clip-path="url(#clipPath2)" x2="2029" y1="1041"/>
            <line y2="1030" fill="none" x1="60" clip-path="url(#clipPath2)" x2="62" y1="1030"/>
            <line y2="1030" fill="none" x1="2031" clip-path="url(#clipPath2)" x2="2029" y1="1030"/>
            <line y2="1019" fill="none" x1="60" clip-path="url(#clipPath2)" x2="62" y1="1019"/>
            <line y2="1019" fill="none" x1="2031" clip-path="url(#clipPath2)" x2="2029" y1="1019"/>
            <line y2="1008" fill="none" x1="60" clip-path="url(#clipPath2)" x2="62" y1="1008"/>
            <line y2="1008" fill="none" x1="2031" clip-path="url(#clipPath2)" x2="2029" y1="1008"/>
            <line y2="997" fill="none" x1="58" clip-path="url(#clipPath2)" x2="62" y1="997"/>
            <line y2="997" fill="none" x1="2033" clip-path="url(#clipPath2)" x2="2029" y1="997"/>
            <text x="25" xml:space="preserve" font-size="16px" y="1003" clip-path="url(#clipPath2)" stroke="none">0,03</text>
            <text x="2036" xml:space="preserve" font-size="16px" y="1003" clip-path="url(#clipPath2)" stroke="none">0,03</text>
            <line y2="987" fill="none" x1="60" clip-path="url(#clipPath2)" x2="62" y1="987"/>
            <line y2="987" fill="none" x1="2031" clip-path="url(#clipPath2)" x2="2029" y1="987"/>
            <line y2="976" fill="none" x1="60" clip-path="url(#clipPath2)" x2="62" y1="976"/>
            <line y2="976" fill="none" x1="2031" clip-path="url(#clipPath2)" x2="2029" y1="976"/>
            <line y2="965" fill="none" x1="60" clip-path="url(#clipPath2)" x2="62" y1="965"/>
            <line y2="965" fill="none" x1="2031" clip-path="url(#clipPath2)" x2="2029" y1="965"/>
            <line y2="954" fill="none" x1="60" clip-path="url(#clipPath2)" x2="62" y1="954"/>
            <line y2="954" fill="none" x1="2031" clip-path="url(#clipPath2)" x2="2029" y1="954"/>
            <line y2="943" fill="none" x1="58" clip-path="url(#clipPath2)" x2="62" y1="943"/>
            <line y2="943" fill="none" x1="2033" clip-path="url(#clipPath2)" x2="2029" y1="943"/>
            <text x="25" xml:space="preserve" font-size="16px" y="949" clip-path="url(#clipPath2)" stroke="none">0,04</text>
            <text x="2036" xml:space="preserve" font-size="16px" y="949" clip-path="url(#clipPath2)" stroke="none">0,04</text>
            <line y2="933" fill="none" x1="60" clip-path="url(#clipPath2)" x2="62" y1="933"/>
            <line y2="933" fill="none" x1="2031" clip-path="url(#clipPath2)" x2="2029" y1="933"/>
            <line y2="922" fill="none" x1="60" clip-path="url(#clipPath2)" x2="62" y1="922"/>
            <line y2="922" fill="none" x1="2031" clip-path="url(#clipPath2)" x2="2029" y1="922"/>
            <line y2="911" fill="none" x1="60" clip-path="url(#clipPath2)" x2="62" y1="911"/>
            <line y2="911" fill="none" x1="2031" clip-path="url(#clipPath2)" x2="2029" y1="911"/>
            <line y2="900" fill="none" x1="60" clip-path="url(#clipPath2)" x2="62" y1="900"/>
            <line y2="900" fill="none" x1="2031" clip-path="url(#clipPath2)" x2="2029" y1="900"/>
            <line y2="889" fill="none" x1="58" clip-path="url(#clipPath2)" x2="62" y1="889"/>
            <line y2="889" fill="none" x1="2033" clip-path="url(#clipPath2)" x2="2029" y1="889"/>
            <text x="25" xml:space="preserve" font-size="16px" y="895" clip-path="url(#clipPath2)" stroke="none">0,05</text>
            <text x="2036" xml:space="preserve" font-size="16px" y="895" clip-path="url(#clipPath2)" stroke="none">0,05</text>
            <line y2="879" fill="none" x1="60" clip-path="url(#clipPath2)" x2="62" y1="879"/>
            <line y2="879" fill="none" x1="2031" clip-path="url(#clipPath2)" x2="2029" y1="879"/>
            <line y2="868" fill="none" x1="60" clip-path="url(#clipPath2)" x2="62" y1="868"/>
            <line y2="868" fill="none" x1="2031" clip-path="url(#clipPath2)" x2="2029" y1="868"/>
            <line y2="857" fill="none" x1="60" clip-path="url(#clipPath2)" x2="62" y1="857"/>
            <line y2="857" fill="none" x1="2031" clip-path="url(#clipPath2)" x2="2029" y1="857"/>
            <line y2="846" fill="none" x1="60" clip-path="url(#clipPath2)" x2="62" y1="846"/>
            <line y2="846" fill="none" x1="2031" clip-path="url(#clipPath2)" x2="2029" y1="846"/>
            <line y2="835" fill="none" x1="58" clip-path="url(#clipPath2)" x2="62" y1="835"/>
            <line y2="835" fill="none" x1="2033" clip-path="url(#clipPath2)" x2="2029" y1="835"/>
            <text x="25" xml:space="preserve" font-size="16px" y="841" clip-path="url(#clipPath2)" stroke="none">0,06</text>
            <text x="2036" xml:space="preserve" font-size="16px" y="841" clip-path="url(#clipPath2)" stroke="none">0,06</text>
            <line y2="824" fill="none" x1="60" clip-path="url(#clipPath2)" x2="62" y1="824"/>
            <line y2="824" fill="none" x1="2031" clip-path="url(#clipPath2)" x2="2029" y1="824"/>
            <line y2="814" fill="none" x1="60" clip-path="url(#clipPath2)" x2="62" y1="814"/>
            <line y2="814" fill="none" x1="2031" clip-path="url(#clipPath2)" x2="2029" y1="814"/>
            <line y2="803" fill="none" x1="60" clip-path="url(#clipPath2)" x2="62" y1="803"/>
            <line y2="803" fill="none" x1="2031" clip-path="url(#clipPath2)" x2="2029" y1="803"/>
            <line y2="792" fill="none" x1="60" clip-path="url(#clipPath2)" x2="62" y1="792"/>
            <line y2="792" fill="none" x1="2031" clip-path="url(#clipPath2)" x2="2029" y1="792"/>
            <line y2="781" fill="none" x1="58" clip-path="url(#clipPath2)" x2="62" y1="781"/>
            <line y2="781" fill="none" x1="2033" clip-path="url(#clipPath2)" x2="2029" y1="781"/>
            <text x="25" xml:space="preserve" font-size="16px" y="787" clip-path="url(#clipPath2)" stroke="none">0,07</text>
            <text x="2036" xml:space="preserve" font-size="16px" y="787" clip-path="url(#clipPath2)" stroke="none">0,07</text>
            <line y2="770" fill="none" x1="60" clip-path="url(#clipPath2)" x2="62" y1="770"/>
            <line y2="770" fill="none" x1="2031" clip-path="url(#clipPath2)" x2="2029" y1="770"/>
            <line y2="760" fill="none" x1="60" clip-path="url(#clipPath2)" x2="62" y1="760"/>
            <line y2="760" fill="none" x1="2031" clip-path="url(#clipPath2)" x2="2029" y1="760"/>
            <line y2="749" fill="none" x1="60" clip-path="url(#clipPath2)" x2="62" y1="749"/>
            <line y2="749" fill="none" x1="2031" clip-path="url(#clipPath2)" x2="2029" y1="749"/>
            <line y2="738" fill="none" x1="60" clip-path="url(#clipPath2)" x2="62" y1="738"/>
            <line y2="738" fill="none" x1="2031" clip-path="url(#clipPath2)" x2="2029" y1="738"/>
            <line y2="727" fill="none" x1="58" clip-path="url(#clipPath2)" x2="62" y1="727"/>
            <line y2="727" fill="none" x1="2033" clip-path="url(#clipPath2)" x2="2029" y1="727"/>
            <text x="25" xml:space="preserve" font-size="16px" y="733" clip-path="url(#clipPath2)" stroke="none">0,08</text>
            <text x="2036" xml:space="preserve" font-size="16px" y="733" clip-path="url(#clipPath2)" stroke="none">0,08</text>
            <line y2="716" fill="none" x1="60" clip-path="url(#clipPath2)" x2="62" y1="716"/>
            <line y2="716" fill="none" x1="2031" clip-path="url(#clipPath2)" x2="2029" y1="716"/>
            <line y2="706" fill="none" x1="60" clip-path="url(#clipPath2)" x2="62" y1="706"/>
            <line y2="706" fill="none" x1="2031" clip-path="url(#clipPath2)" x2="2029" y1="706"/>
            <line y2="695" fill="none" x1="60" clip-path="url(#clipPath2)" x2="62" y1="695"/>
            <line y2="695" fill="none" x1="2031" clip-path="url(#clipPath2)" x2="2029" y1="695"/>
            <line y2="684" fill="none" x1="60" clip-path="url(#clipPath2)" x2="62" y1="684"/>
            <line y2="684" fill="none" x1="2031" clip-path="url(#clipPath2)" x2="2029" y1="684"/>
            <line y2="673" fill="none" x1="58" clip-path="url(#clipPath2)" x2="62" y1="673"/>
            <line y2="673" fill="none" x1="2033" clip-path="url(#clipPath2)" x2="2029" y1="673"/>
            <text x="25" xml:space="preserve" font-size="16px" y="679" clip-path="url(#clipPath2)" stroke="none">0,09</text>
            <text x="2036" xml:space="preserve" font-size="16px" y="679" clip-path="url(#clipPath2)" stroke="none">0,09</text>
            <line y2="662" fill="none" x1="60" clip-path="url(#clipPath2)" x2="62" y1="662"/>
            <line y2="662" fill="none" x1="2031" clip-path="url(#clipPath2)" x2="2029" y1="662"/>
            <line y2="652" fill="none" x1="60" clip-path="url(#clipPath2)" x2="62" y1="652"/>
            <line y2="652" fill="none" x1="2031" clip-path="url(#clipPath2)" x2="2029" y1="652"/>
            <line y2="641" fill="none" x1="60" clip-path="url(#clipPath2)" x2="62" y1="641"/>
            <line y2="641" fill="none" x1="2031" clip-path="url(#clipPath2)" x2="2029" y1="641"/>
            <line y2="630" fill="none" x1="60" clip-path="url(#clipPath2)" x2="62" y1="630"/>
            <line y2="630" fill="none" x1="2031" clip-path="url(#clipPath2)" x2="2029" y1="630"/>
            <line y2="619" fill="none" x1="58" clip-path="url(#clipPath2)" x2="62" y1="619"/>
            <line y2="619" fill="none" x1="2033" clip-path="url(#clipPath2)" x2="2029" y1="619"/>
            <text x="34" xml:space="preserve" font-size="16px" y="625" clip-path="url(#clipPath2)" stroke="none">0,1</text>
            <text x="2036" xml:space="preserve" font-size="16px" y="625" clip-path="url(#clipPath2)" stroke="none">0,1</text>
            <line y2="608" fill="none" x1="60" clip-path="url(#clipPath2)" x2="62" y1="608"/>
            <line y2="608" fill="none" x1="2031" clip-path="url(#clipPath2)" x2="2029" y1="608"/>
            <line y2="598" fill="none" x1="60" clip-path="url(#clipPath2)" x2="62" y1="598"/>
            <line y2="598" fill="none" x1="2031" clip-path="url(#clipPath2)" x2="2029" y1="598"/>
            <line y2="587" fill="none" x1="60" clip-path="url(#clipPath2)" x2="62" y1="587"/>
            <line y2="587" fill="none" x1="2031" clip-path="url(#clipPath2)" x2="2029" y1="587"/>
            <line y2="576" fill="none" x1="60" clip-path="url(#clipPath2)" x2="62" y1="576"/>
            <line y2="576" fill="none" x1="2031" clip-path="url(#clipPath2)" x2="2029" y1="576"/>
            <line y2="565" fill="none" x1="58" clip-path="url(#clipPath2)" x2="62" y1="565"/>
            <line y2="565" fill="none" x1="2033" clip-path="url(#clipPath2)" x2="2029" y1="565"/>
            <text x="25" xml:space="preserve" font-size="16px" y="571" clip-path="url(#clipPath2)" stroke="none">0,11</text>
            <text x="2036" xml:space="preserve" font-size="16px" y="571" clip-path="url(#clipPath2)" stroke="none">0,11</text>
            <line y2="554" fill="none" x1="60" clip-path="url(#clipPath2)" x2="62" y1="554"/>
            <line y2="554" fill="none" x1="2031" clip-path="url(#clipPath2)" x2="2029" y1="554"/>
            <line y2="544" fill="none" x1="60" clip-path="url(#clipPath2)" x2="62" y1="544"/>
            <line y2="544" fill="none" x1="2031" clip-path="url(#clipPath2)" x2="2029" y1="544"/>
            <line y2="533" fill="none" x1="60" clip-path="url(#clipPath2)" x2="62" y1="533"/>
            <line y2="533" fill="none" x1="2031" clip-path="url(#clipPath2)" x2="2029" y1="533"/>
            <line y2="522" fill="none" x1="60" clip-path="url(#clipPath2)" x2="62" y1="522"/>
            <line y2="522" fill="none" x1="2031" clip-path="url(#clipPath2)" x2="2029" y1="522"/>
            <line y2="511" fill="none" x1="58" clip-path="url(#clipPath2)" x2="62" y1="511"/>
            <line y2="511" fill="none" x1="2033" clip-path="url(#clipPath2)" x2="2029" y1="511"/>
            <text x="25" xml:space="preserve" font-size="16px" y="517" clip-path="url(#clipPath2)" stroke="none">0,12</text>
            <text x="2036" xml:space="preserve" font-size="16px" y="517" clip-path="url(#clipPath2)" stroke="none">0,12</text>
            <line y2="500" fill="none" x1="60" clip-path="url(#clipPath2)" x2="62" y1="500"/>
            <line y2="500" fill="none" x1="2031" clip-path="url(#clipPath2)" x2="2029" y1="500"/>
            <line y2="489" fill="none" x1="60" clip-path="url(#clipPath2)" x2="62" y1="489"/>
            <line y2="489" fill="none" x1="2031" clip-path="url(#clipPath2)" x2="2029" y1="489"/>
            <line y2="479" fill="none" x1="60" clip-path="url(#clipPath2)" x2="62" y1="479"/>
            <line y2="479" fill="none" x1="2031" clip-path="url(#clipPath2)" x2="2029" y1="479"/>
            <line y2="468" fill="none" x1="60" clip-path="url(#clipPath2)" x2="62" y1="468"/>
            <line y2="468" fill="none" x1="2031" clip-path="url(#clipPath2)" x2="2029" y1="468"/>
            <line y2="457" fill="none" x1="58" clip-path="url(#clipPath2)" x2="62" y1="457"/>
            <line y2="457" fill="none" x1="2033" clip-path="url(#clipPath2)" x2="2029" y1="457"/>
            <text x="25" xml:space="preserve" font-size="16px" y="463" clip-path="url(#clipPath2)" stroke="none">0,13</text>
            <text x="2036" xml:space="preserve" font-size="16px" y="463" clip-path="url(#clipPath2)" stroke="none">0,13</text>
            <line y2="446" fill="none" x1="60" clip-path="url(#clipPath2)" x2="62" y1="446"/>
            <line y2="446" fill="none" x1="2031" clip-path="url(#clipPath2)" x2="2029" y1="446"/>
            <line y2="435" fill="none" x1="60" clip-path="url(#clipPath2)" x2="62" y1="435"/>
            <line y2="435" fill="none" x1="2031" clip-path="url(#clipPath2)" x2="2029" y1="435"/>
            <line y2="425" fill="none" x1="60" clip-path="url(#clipPath2)" x2="62" y1="425"/>
            <line y2="425" fill="none" x1="2031" clip-path="url(#clipPath2)" x2="2029" y1="425"/>
            <line y2="414" fill="none" x1="60" clip-path="url(#clipPath2)" x2="62" y1="414"/>
            <line y2="414" fill="none" x1="2031" clip-path="url(#clipPath2)" x2="2029" y1="414"/>
            <line y2="403" fill="none" x1="58" clip-path="url(#clipPath2)" x2="62" y1="403"/>
            <line y2="403" fill="none" x1="2033" clip-path="url(#clipPath2)" x2="2029" y1="403"/>
            <text x="25" xml:space="preserve" font-size="16px" y="409" clip-path="url(#clipPath2)" stroke="none">0,14</text>
            <text x="2036" xml:space="preserve" font-size="16px" y="409" clip-path="url(#clipPath2)" stroke="none">0,14</text>
            <line y2="392" fill="none" x1="60" clip-path="url(#clipPath2)" x2="62" y1="392"/>
            <line y2="392" fill="none" x1="2031" clip-path="url(#clipPath2)" x2="2029" y1="392"/>
            <line y2="381" fill="none" x1="60" clip-path="url(#clipPath2)" x2="62" y1="381"/>
            <line y2="381" fill="none" x1="2031" clip-path="url(#clipPath2)" x2="2029" y1="381"/>
            <line y2="371" fill="none" x1="60" clip-path="url(#clipPath2)" x2="62" y1="371"/>
            <line y2="371" fill="none" x1="2031" clip-path="url(#clipPath2)" x2="2029" y1="371"/>
            <line y2="360" fill="none" x1="60" clip-path="url(#clipPath2)" x2="62" y1="360"/>
            <line y2="360" fill="none" x1="2031" clip-path="url(#clipPath2)" x2="2029" y1="360"/>
            <line y2="349" fill="none" x1="58" clip-path="url(#clipPath2)" x2="62" y1="349"/>
            <line y2="349" fill="none" x1="2033" clip-path="url(#clipPath2)" x2="2029" y1="349"/>
            <text x="25" xml:space="preserve" font-size="16px" y="355" clip-path="url(#clipPath2)" stroke="none">0,15</text>
            <text x="2036" xml:space="preserve" font-size="16px" y="355" clip-path="url(#clipPath2)" stroke="none">0,15</text>
            <line y2="338" fill="none" x1="60" clip-path="url(#clipPath2)" x2="62" y1="338"/>
            <line y2="338" fill="none" x1="2031" clip-path="url(#clipPath2)" x2="2029" y1="338"/>
            <line y2="327" fill="none" x1="60" clip-path="url(#clipPath2)" x2="62" y1="327"/>
            <line y2="327" fill="none" x1="2031" clip-path="url(#clipPath2)" x2="2029" y1="327"/>
            <line y2="317" fill="none" x1="60" clip-path="url(#clipPath2)" x2="62" y1="317"/>
            <line y2="317" fill="none" x1="2031" clip-path="url(#clipPath2)" x2="2029" y1="317"/>
            <line y2="306" fill="none" x1="60" clip-path="url(#clipPath2)" x2="62" y1="306"/>
            <line y2="306" fill="none" x1="2031" clip-path="url(#clipPath2)" x2="2029" y1="306"/>
            <line y2="295" fill="none" x1="58" clip-path="url(#clipPath2)" x2="62" y1="295"/>
            <line y2="295" fill="none" x1="2033" clip-path="url(#clipPath2)" x2="2029" y1="295"/>
            <text x="25" xml:space="preserve" font-size="16px" y="301" clip-path="url(#clipPath2)" stroke="none">0,16</text>
            <text x="2036" xml:space="preserve" font-size="16px" y="301" clip-path="url(#clipPath2)" stroke="none">0,16</text>
            <line y2="284" fill="none" x1="60" clip-path="url(#clipPath2)" x2="62" y1="284"/>
            <line y2="284" fill="none" x1="2031" clip-path="url(#clipPath2)" x2="2029" y1="284"/>
            <line y2="273" fill="none" x1="60" clip-path="url(#clipPath2)" x2="62" y1="273"/>
            <line y2="273" fill="none" x1="2031" clip-path="url(#clipPath2)" x2="2029" y1="273"/>
            <line y2="263" fill="none" x1="60" clip-path="url(#clipPath2)" x2="62" y1="263"/>
            <line y2="263" fill="none" x1="2031" clip-path="url(#clipPath2)" x2="2029" y1="263"/>
            <line y2="252" fill="none" x1="60" clip-path="url(#clipPath2)" x2="62" y1="252"/>
            <line y2="252" fill="none" x1="2031" clip-path="url(#clipPath2)" x2="2029" y1="252"/>
            <line y2="241" fill="none" x1="58" clip-path="url(#clipPath2)" x2="62" y1="241"/>
            <line y2="241" fill="none" x1="2033" clip-path="url(#clipPath2)" x2="2029" y1="241"/>
            <text x="25" xml:space="preserve" font-size="16px" y="247" clip-path="url(#clipPath2)" stroke="none">0,17</text>
            <text x="2036" xml:space="preserve" font-size="16px" y="247" clip-path="url(#clipPath2)" stroke="none">0,17</text>
            <line y2="230" fill="none" x1="60" clip-path="url(#clipPath2)" x2="62" y1="230"/>
            <line y2="230" fill="none" x1="2031" clip-path="url(#clipPath2)" x2="2029" y1="230"/>
            <line y2="219" fill="none" x1="60" clip-path="url(#clipPath2)" x2="62" y1="219"/>
            <line y2="219" fill="none" x1="2031" clip-path="url(#clipPath2)" x2="2029" y1="219"/>
            <line y2="209" fill="none" x1="60" clip-path="url(#clipPath2)" x2="62" y1="209"/>
            <line y2="209" fill="none" x1="2031" clip-path="url(#clipPath2)" x2="2029" y1="209"/>
            <line y2="198" fill="none" x1="60" clip-path="url(#clipPath2)" x2="62" y1="198"/>
            <line y2="198" fill="none" x1="2031" clip-path="url(#clipPath2)" x2="2029" y1="198"/>
            <line y2="187" fill="none" x1="58" clip-path="url(#clipPath2)" x2="62" y1="187"/>
            <line y2="187" fill="none" x1="2033" clip-path="url(#clipPath2)" x2="2029" y1="187"/>
            <text x="25" xml:space="preserve" font-size="16px" y="193" clip-path="url(#clipPath2)" stroke="none">0,18</text>
            <text x="2036" xml:space="preserve" font-size="16px" y="193" clip-path="url(#clipPath2)" stroke="none">0,18</text>
            <line y2="176" fill="none" x1="60" clip-path="url(#clipPath2)" x2="62" y1="176"/>
            <line y2="176" fill="none" x1="2031" clip-path="url(#clipPath2)" x2="2029" y1="176"/>
            <line y2="165" fill="none" x1="60" clip-path="url(#clipPath2)" x2="62" y1="165"/>
            <line y2="165" fill="none" x1="2031" clip-path="url(#clipPath2)" x2="2029" y1="165"/>
            <line y2="154" fill="none" x1="60" clip-path="url(#clipPath2)" x2="62" y1="154"/>
            <line y2="154" fill="none" x1="2031" clip-path="url(#clipPath2)" x2="2029" y1="154"/>
            <line y2="144" fill="none" x1="60" clip-path="url(#clipPath2)" x2="62" y1="144"/>
            <line y2="144" fill="none" x1="2031" clip-path="url(#clipPath2)" x2="2029" y1="144"/>
            <line y2="133" fill="none" x1="58" clip-path="url(#clipPath2)" x2="62" y1="133"/>
            <line y2="133" fill="none" x1="2033" clip-path="url(#clipPath2)" x2="2029" y1="133"/>
            <text x="25" xml:space="preserve" font-size="16px" y="139" clip-path="url(#clipPath2)" stroke="none">0,19</text>
            <text x="2036" xml:space="preserve" font-size="16px" y="139" clip-path="url(#clipPath2)" stroke="none">0,19</text>
            <line y2="122" fill="none" x1="60" clip-path="url(#clipPath2)" x2="62" y1="122"/>
            <line y2="122" fill="none" x1="2031" clip-path="url(#clipPath2)" x2="2029" y1="122"/>
            <line y2="111" fill="none" x1="60" clip-path="url(#clipPath2)" x2="62" y1="111"/>
            <line y2="111" fill="none" x1="2031" clip-path="url(#clipPath2)" x2="2029" y1="111"/>
            <line y2="100" fill="none" x1="60" clip-path="url(#clipPath2)" x2="62" y1="100"/>
            <line y2="100" fill="none" x1="2031" clip-path="url(#clipPath2)" x2="2029" y1="100"/>
            <line y2="90" fill="none" x1="60" clip-path="url(#clipPath2)" x2="62" y1="90"/>
            <line y2="90" fill="none" x1="2031" clip-path="url(#clipPath2)" x2="2029" y1="90"/>
            <line y2="79" fill="none" x1="58" clip-path="url(#clipPath2)" x2="62" y1="79"/>
            <line y2="79" fill="none" x1="2033" clip-path="url(#clipPath2)" x2="2029" y1="79"/>
            <text x="34" xml:space="preserve" font-size="16px" y="85" clip-path="url(#clipPath2)" stroke="none">0,2</text>
            <text x="2036" xml:space="preserve" font-size="16px" y="85" clip-path="url(#clipPath2)" stroke="none">0,2</text>
            <line y2="68" fill="none" x1="60" clip-path="url(#clipPath2)" x2="62" y1="68"/>
            <line y2="68" fill="none" x1="2031" clip-path="url(#clipPath2)" x2="2029" y1="68"/>
            <line y2="57" fill="none" x1="60" clip-path="url(#clipPath2)" x2="62" y1="57"/>
            <line y2="57" fill="none" x1="2031" clip-path="url(#clipPath2)" x2="2029" y1="57"/>
            <line y2="46" fill="none" x1="60" clip-path="url(#clipPath2)" x2="62" y1="46"/>
            <line y2="46" fill="none" x1="2031" clip-path="url(#clipPath2)" x2="2029" y1="46"/>
            <line y2="36" fill="none" x1="60" clip-path="url(#clipPath2)" x2="62" y1="36"/>
            <line y2="36" fill="none" x1="2031" clip-path="url(#clipPath2)" x2="2029" y1="36"/>
            <line y2="1141" fill="none" x1="194" clip-path="url(#clipPath4)" x2="1895" y1="1141"/>
            <text x="194" xml:space="preserve" font-size="16px" y="1157" clip-path="url(#clipPath4)" stroke="none">channel utilization, last</text>
            <text x="1033" xml:space="preserve" font-size="16px" y="1180" clip-path="url(#clipPath4)" stroke="none">title</text>
        </g>
    </g>
</svg>
