<?xml version="1.0" encoding="UTF-8"?><svg xmlns="http://www.w3.org/2000/svg" xmlns:xlink="http://www.w3.org/1999/xlink" stroke-dasharray="none" shape-rendering="auto" font-family="'Dialog'" width="2073" text-rendering="auto" fill-opacity="1" contentScriptType="text/ecmascript" color-interpolation="auto" color-rendering="auto" preserveAspectRatio="xMidYMid meet" font-size="12px" fill="black" stroke="black" image-rendering="auto" stroke-miterlimit="10" zoomAndPan="magnify" version="1.0" stroke-linecap="square" stroke-linejoin="miter" contentStyleType="text/css" font-style="normal" height="1185" stroke-width="1" stroke-dashoffset="0" font-weight="normal" stroke-opacity="1">
    <!--Generated by the Batik Graphics2D SVG Generator-->
    <defs id="genericDefs"/>
    <g>
        <defs id="defs1">
            <clipPath clipPathUnits="userSpaceOnUse" id="clipPath1">
                <path d="M63 32 L2028 32 L2028 1138 L63 1138 L63 32 Z"/>
            </clipPath>
            <clipPath clipPathUnits="userSpaceOnUse" id="clipPath2">
                <path d="M-1 -1 L2074 -1 L2074 1186 L-1 1186 L-1 -1 Z"/>
            </clipPath>
            <clipPath clipPathUnits="userSpaceOnUse" id="clipPath3">
                <path d="M1911 37 L2024 37 L2024 252 L1911 252 L1911 37 Z"/>
            </clipPath>
            <clipPath clipPathUnits="userSpaceOnUse" id="clipPath4">
                <path d="M63 1136 L2028 1136 L2028 1186 L63 1186 L63 1136 Z"/>
            </clipPath>
        </defs>
        <g font-size="18px" fill="white" text-rendering="optimizeLegibility" font-family="'Segoe UI'" stroke-linejoin="round" stroke="white" stroke-width="0" stroke-miterlimit="0">
            <rect x="64" width="1963" height="1104" y="33" clip-path="url(#clipPath1)" stroke="none"/>
        </g>
        <g stroke-linecap="butt" font-size="18px" fill="rgb(204,204,204)" text-rendering="optimizeLegibility" font-family="'Segoe UI'" stroke-dasharray="3,3" stroke="rgb(204,204,204)">
            <line y2="1105" fill="none" x1="64" clip-path="url(#clipPath1)" x2="2027" y1="1105"/>
            <line y2="1050" fill="none" x1="64" clip-path="url(#clipPath1)" x2="2027" y1="1050"/>
            <line y2="995" fill="none" x1="64" clip-path="url(#clipPath1)" x2="2027" y1="995"/>
            <line y2="940" fill="none" x1="64" clip-path="url(#clipPath1)" x2="2027" y1="940"/>
            <line y2="885" fill="none" x1="64" clip-path="url(#clipPath1)" x2="2027" y1="885"/>
            <line y2="830" fill="none" x1="64" clip-path="url(#clipPath1)" x2="2027" y1="830"/>
            <line y2="775" fill="none" x1="64" clip-path="url(#clipPath1)" x2="2027" y1="775"/>
            <line y2="721" fill="none" x1="64" clip-path="url(#clipPath1)" x2="2027" y1="721"/>
            <line y2="666" fill="none" x1="64" clip-path="url(#clipPath1)" x2="2027" y1="666"/>
            <line y2="611" fill="none" x1="64" clip-path="url(#clipPath1)" x2="2027" y1="611"/>
            <line y2="556" fill="none" x1="64" clip-path="url(#clipPath1)" x2="2027" y1="556"/>
            <line y2="501" fill="none" x1="64" clip-path="url(#clipPath1)" x2="2027" y1="501"/>
            <line y2="446" fill="none" x1="64" clip-path="url(#clipPath1)" x2="2027" y1="446"/>
            <line y2="391" fill="none" x1="64" clip-path="url(#clipPath1)" x2="2027" y1="391"/>
            <line y2="337" fill="none" x1="64" clip-path="url(#clipPath1)" x2="2027" y1="337"/>
            <line y2="282" fill="none" x1="64" clip-path="url(#clipPath1)" x2="2027" y1="282"/>
            <line y2="227" fill="none" x1="64" clip-path="url(#clipPath1)" x2="2027" y1="227"/>
            <line y2="172" fill="none" x1="64" clip-path="url(#clipPath1)" x2="2027" y1="172"/>
            <line y2="117" fill="none" x1="64" clip-path="url(#clipPath1)" x2="2027" y1="117"/>
            <line y2="62" fill="none" x1="64" clip-path="url(#clipPath1)" x2="2027" y1="62"/>
            <rect x="1765" y="388" clip-path="url(#clipPath1)" fill="rgb(188,189,34)" width="130" height="771" stroke="none"/>
            <rect x="1765" y="388" clip-path="url(#clipPath1)" fill="none" width="130" stroke-dasharray="none" height="771" stroke="black"/>
            <rect x="1568" y="332" clip-path="url(#clipPath1)" fill="rgb(127,127,127)" width="130" stroke-dasharray="none" height="827" stroke="none"/>
            <rect x="1568" y="332" clip-path="url(#clipPath1)" fill="none" width="130" stroke-dasharray="none" height="827" stroke="black"/>
            <rect x="1372" y="288" clip-path="url(#clipPath1)" fill="rgb(227,119,194)" width="130" stroke-dasharray="none" height="871" stroke="none"/>
            <rect x="1372" y="288" clip-path="url(#clipPath1)" fill="none" width="130" stroke-dasharray="none" height="871" stroke="black"/>
            <rect x="1176" y="228" clip-path="url(#clipPath1)" fill="rgb(140,86,75)" width="130" stroke-dasharray="none" height="931" stroke="none"/>
            <rect x="1176" y="228" clip-path="url(#clipPath1)" fill="none" width="130" stroke-dasharray="none" height="931" stroke="black"/>
            <rect x="980" y="173" clip-path="url(#clipPath1)" fill="rgb(148,103,189)" width="130" stroke-dasharray="none" height="986" stroke="none"/>
            <rect x="980" y="173" clip-path="url(#clipPath1)" fill="none" width="130" stroke-dasharray="none" height="986" stroke="black"/>
            <rect x="783" y="135" clip-path="url(#clipPath1)" fill="rgb(214,39,40)" width="130" stroke-dasharray="none" height="1024" stroke="none"/>
            <rect x="783" y="135" clip-path="url(#clipPath1)" fill="none" width="130" stroke-dasharray="none" height="1024" stroke="black"/>
            <rect x="587" y="157" clip-path="url(#clipPath1)" fill="rgb(44,160,44)" width="130" stroke-dasharray="none" height="1002" stroke="none"/>
            <rect x="587" y="157" clip-path="url(#clipPath1)" fill="none" width="130" stroke-dasharray="none" height="1002" stroke="black"/>
            <rect x="391" y="321" clip-path="url(#clipPath1)" fill="rgb(255,127,14)" width="130" stroke-dasharray="none" height="838" stroke="none"/>
            <rect x="391" y="321" clip-path="url(#clipPath1)" fill="none" width="130" stroke-dasharray="none" height="838" stroke="black"/>
            <rect x="194" y="809" clip-path="url(#clipPath1)" fill="rgb(31,119,180)" width="130" stroke-dasharray="none" height="350" stroke="none"/>
            <rect x="194" y="809" clip-path="url(#clipPath1)" fill="none" width="130" stroke-dasharray="none" height="350" stroke="black"/>
            <rect x="64" y="33" clip-path="url(#clipPath2)" fill="none" width="1963" stroke-dasharray="none" height="1104" stroke="black"/>
            <line clip-path="url(#clipPath2)" fill="none" x1="65" x2="2026" y1="1160" y2="1160" stroke-dasharray="none"/>
        </g>
        <g text-rendering="optimizeLegibility" font-size="20px" font-family="'Arial'" stroke-linecap="butt">
            <text x="916" xml:space="preserve" y="19" clip-path="url(#clipPath2)" stroke="none">Utilización del canal SLOTS</text>
            <rect x="1912" y="38" clip-path="url(#clipPath3)" fill="white" width="110" opacity="0.753" height="212" stroke="none"/>
            <polygon fill="rgb(31,119,180)" clip-path="url(#clipPath3)" points=" 1921 48 1921 56 1929 56 1929 48" stroke="none"/>
            <text x="1934" xml:space="preserve" font-size="16px" y="58" clip-path="url(#clipPath3)" stroke="none">iaMean=0.5</text>
            <polygon fill="rgb(255,127,14)" clip-path="url(#clipPath3)" points=" 1921 71 1921 79 1929 79 1929 71" stroke="none"/>
            <text x="1934" xml:space="preserve" font-size="16px" y="81" clip-path="url(#clipPath3)" stroke="none">iaMean=1.0</text>
            <polygon fill="rgb(44,160,44)" clip-path="url(#clipPath3)" points=" 1921 94 1921 102 1929 102 1929 94" stroke="none"/>
            <text x="1934" xml:space="preserve" font-size="16px" y="104" clip-path="url(#clipPath3)" stroke="none">iaMean=1.5</text>
            <polygon fill="rgb(214,39,40)" clip-path="url(#clipPath3)" points=" 1921 117 1921 125 1929 125 1929 117" stroke="none"/>
            <text x="1934" xml:space="preserve" font-size="16px" y="127" clip-path="url(#clipPath3)" stroke="none">iaMean=2.0</text>
            <polygon fill="rgb(148,103,189)" clip-path="url(#clipPath3)" points=" 1921 140 1921 148 1929 148 1929 140" stroke="none"/>
            <text x="1934" xml:space="preserve" font-size="16px" y="150" clip-path="url(#clipPath3)" stroke="none">iaMean=2.5</text>
            <polygon fill="rgb(140,86,75)" clip-path="url(#clipPath3)" points=" 1921 163 1921 171 1929 171 1929 163" stroke="none"/>
            <text x="1934" xml:space="preserve" font-size="16px" y="173" clip-path="url(#clipPath3)" stroke="none">iaMean=3.0</text>
            <polygon fill="rgb(227,119,194)" clip-path="url(#clipPath3)" points=" 1921 186 1921 194 1929 194 1929 186" stroke="none"/>
            <text x="1934" xml:space="preserve" font-size="16px" y="196" clip-path="url(#clipPath3)" stroke="none">iaMean=3.5</text>
            <polygon fill="rgb(127,127,127)" clip-path="url(#clipPath3)" points=" 1921 209 1921 217 1929 217 1929 209" stroke="none"/>
            <text x="1934" xml:space="preserve" font-size="16px" y="219" clip-path="url(#clipPath3)" stroke="none">iaMean=4.0</text>
            <polygon fill="rgb(188,189,34)" clip-path="url(#clipPath3)" points=" 1921 232 1921 240 1929 240 1929 232" stroke="none"/>
            <text x="1934" xml:space="preserve" font-size="16px" y="242" clip-path="url(#clipPath3)" stroke="none">iaMean=4.5</text>
            <line y2="1137" fill="none" x1="62" clip-path="url(#clipPath2)" x2="62" y1="33"/>
            <line y2="1137" fill="none" x1="2029" clip-path="url(#clipPath2)" x2="2029" y1="33"/>
            <line y2="1132" fill="none" x1="60" clip-path="url(#clipPath2)" x2="62" y1="1132"/>
            <line y2="1132" fill="none" x1="2031" clip-path="url(#clipPath2)" x2="2029" y1="1132"/>
            <line y2="1105" fill="none" x1="58" clip-path="url(#clipPath2)" x2="62" y1="1105"/>
            <line y2="1105" fill="none" x1="2033" clip-path="url(#clipPath2)" x2="2029" y1="1105"/>
            <text x="25" xml:space="preserve" font-size="16px" y="1111" clip-path="url(#clipPath2)" stroke="none">0,02</text>
            <text x="2036" xml:space="preserve" font-size="16px" y="1111" clip-path="url(#clipPath2)" stroke="none">0,02</text>
            <line y2="1077" fill="none" x1="60" clip-path="url(#clipPath2)" x2="62" y1="1077"/>
            <line y2="1077" fill="none" x1="2031" clip-path="url(#clipPath2)" x2="2029" y1="1077"/>
            <line y2="1050" fill="none" x1="58" clip-path="url(#clipPath2)" x2="62" y1="1050"/>
            <line y2="1050" fill="none" x1="2033" clip-path="url(#clipPath2)" x2="2029" y1="1050"/>
            <text x="25" xml:space="preserve" font-size="16px" y="1056" clip-path="url(#clipPath2)" stroke="none">0,04</text>
            <text x="2036" xml:space="preserve" font-size="16px" y="1056" clip-path="url(#clipPath2)" stroke="none">0,04</text>
            <line y2="1022" fill="none" x1="60" clip-path="url(#clipPath2)" x2="62" y1="1022"/>
            <line y2="1022" fill="none" x1="2031" clip-path="url(#clipPath2)" x2="2029" y1="1022"/>
            <line y2="995" fill="none" x1="58" clip-path="url(#clipPath2)" x2="62" y1="995"/>
            <line y2="995" fill="none" x1="2033" clip-path="url(#clipPath2)" x2="2029" y1="995"/>
            <text x="25" xml:space="preserve" font-size="16px" y="1001" clip-path="url(#clipPath2)" stroke="none">0,06</text>
            <text x="2036" xml:space="preserve" font-size="16px" y="1001" clip-path="url(#clipPath2)" stroke="none">0,06</text>
            <line y2="967" fill="none" x1="60" clip-path="url(#clipPath2)" x2="62" y1="967"/>
            <line y2="967" fill="none" x1="2031" clip-path="url(#clipPath2)" x2="2029" y1="967"/>
            <line y2="940" fill="none" x1="58" clip-path="url(#clipPath2)" x2="62" y1="940"/>
            <line y2="940" fill="none" x1="2033" clip-path="url(#clipPath2)" x2="2029" y1="940"/>
            <text x="25" xml:space="preserve" font-size="16px" y="946" clip-path="url(#clipPath2)" stroke="none">0,08</text>
            <text x="2036" xml:space="preserve" font-size="16px" y="946" clip-path="url(#clipPath2)" stroke="none">0,08</text>
            <line y2="913" fill="none" x1="60" clip-path="url(#clipPath2)" x2="62" y1="913"/>
            <line y2="913" fill="none" x1="2031" clip-path="url(#clipPath2)" x2="2029" y1="913"/>
            <line y2="885" fill="none" x1="58" clip-path="url(#clipPath2)" x2="62" y1="885"/>
            <line y2="885" fill="none" x1="2033" clip-path="url(#clipPath2)" x2="2029" y1="885"/>
            <text x="34" xml:space="preserve" font-size="16px" y="891" clip-path="url(#clipPath2)" stroke="none">0,1</text>
            <text x="2036" xml:space="preserve" font-size="16px" y="891" clip-path="url(#clipPath2)" stroke="none">0,1</text>
            <line y2="858" fill="none" x1="60" clip-path="url(#clipPath2)" x2="62" y1="858"/>
            <line y2="858" fill="none" x1="2031" clip-path="url(#clipPath2)" x2="2029" y1="858"/>
            <line y2="830" fill="none" x1="58" clip-path="url(#clipPath2)" x2="62" y1="830"/>
            <line y2="830" fill="none" x1="2033" clip-path="url(#clipPath2)" x2="2029" y1="830"/>
            <text x="25" xml:space="preserve" font-size="16px" y="836" clip-path="url(#clipPath2)" stroke="none">0,12</text>
            <text x="2036" xml:space="preserve" font-size="16px" y="836" clip-path="url(#clipPath2)" stroke="none">0,12</text>
            <line y2="803" fill="none" x1="60" clip-path="url(#clipPath2)" x2="62" y1="803"/>
            <line y2="803" fill="none" x1="2031" clip-path="url(#clipPath2)" x2="2029" y1="803"/>
            <line y2="775" fill="none" x1="58" clip-path="url(#clipPath2)" x2="62" y1="775"/>
            <line y2="775" fill="none" x1="2033" clip-path="url(#clipPath2)" x2="2029" y1="775"/>
            <text x="25" xml:space="preserve" font-size="16px" y="781" clip-path="url(#clipPath2)" stroke="none">0,14</text>
            <text x="2036" xml:space="preserve" font-size="16px" y="781" clip-path="url(#clipPath2)" stroke="none">0,14</text>
            <line y2="748" fill="none" x1="60" clip-path="url(#clipPath2)" x2="62" y1="748"/>
            <line y2="748" fill="none" x1="2031" clip-path="url(#clipPath2)" x2="2029" y1="748"/>
            <line y2="721" fill="none" x1="58" clip-path="url(#clipPath2)" x2="62" y1="721"/>
            <line y2="721" fill="none" x1="2033" clip-path="url(#clipPath2)" x2="2029" y1="721"/>
            <text x="25" xml:space="preserve" font-size="16px" y="727" clip-path="url(#clipPath2)" stroke="none">0,16</text>
            <text x="2036" xml:space="preserve" font-size="16px" y="727" clip-path="url(#clipPath2)" stroke="none">0,16</text>
            <line y2="693" fill="none" x1="60" clip-path="url(#clipPath2)" x2="62" y1="693"/>
            <line y2="693" fill="none" x1="2031" clip-path="url(#clipPath2)" x2="2029" y1="693"/>
            <line y2="666" fill="none" x1="58" clip-path="url(#clipPath2)" x2="62" y1="666"/>
            <line y2="666" fill="none" x1="2033" clip-path="url(#clipPath2)" x2="2029" y1="666"/>
            <text x="25" xml:space="preserve" font-size="16px" y="672" clip-path="url(#clipPath2)" stroke="none">0,18</text>
            <text x="2036" xml:space="preserve" font-size="16px" y="672" clip-path="url(#clipPath2)" stroke="none">0,18</text>
            <line y2="638" fill="none" x1="60" clip-path="url(#clipPath2)" x2="62" y1="638"/>
            <line y2="638" fill="none" x1="2031" clip-path="url(#clipPath2)" x2="2029" y1="638"/>
            <line y2="611" fill="none" x1="58" clip-path="url(#clipPath2)" x2="62" y1="611"/>
            <line y2="611" fill="none" x1="2033" clip-path="url(#clipPath2)" x2="2029" y1="611"/>
            <text x="34" xml:space="preserve" font-size="16px" y="617" clip-path="url(#clipPath2)" stroke="none">0,2</text>
            <text x="2036" xml:space="preserve" font-size="16px" y="617" clip-path="url(#clipPath2)" stroke="none">0,2</text>
            <line y2="583" fill="none" x1="60" clip-path="url(#clipPath2)" x2="62" y1="583"/>
            <line y2="583" fill="none" x1="2031" clip-path="url(#clipPath2)" x2="2029" y1="583"/>
            <line y2="556" fill="none" x1="58" clip-path="url(#clipPath2)" x2="62" y1="556"/>
            <line y2="556" fill="none" x1="2033" clip-path="url(#clipPath2)" x2="2029" y1="556"/>
            <text x="25" xml:space="preserve" font-size="16px" y="562" clip-path="url(#clipPath2)" stroke="none">0,22</text>
            <text x="2036" xml:space="preserve" font-size="16px" y="562" clip-path="url(#clipPath2)" stroke="none">0,22</text>
            <line y2="529" fill="none" x1="60" clip-path="url(#clipPath2)" x2="62" y1="529"/>
            <line y2="529" fill="none" x1="2031" clip-path="url(#clipPath2)" x2="2029" y1="529"/>
            <line y2="501" fill="none" x1="58" clip-path="url(#clipPath2)" x2="62" y1="501"/>
            <line y2="501" fill="none" x1="2033" clip-path="url(#clipPath2)" x2="2029" y1="501"/>
            <text x="25" xml:space="preserve" font-size="16px" y="507" clip-path="url(#clipPath2)" stroke="none">0,24</text>
            <text x="2036" xml:space="preserve" font-size="16px" y="507" clip-path="url(#clipPath2)" stroke="none">0,24</text>
            <line y2="474" fill="none" x1="60" clip-path="url(#clipPath2)" x2="62" y1="474"/>
            <line y2="474" fill="none" x1="2031" clip-path="url(#clipPath2)" x2="2029" y1="474"/>
            <line y2="446" fill="none" x1="58" clip-path="url(#clipPath2)" x2="62" y1="446"/>
            <line y2="446" fill="none" x1="2033" clip-path="url(#clipPath2)" x2="2029" y1="446"/>
            <text x="25" xml:space="preserve" font-size="16px" y="452" clip-path="url(#clipPath2)" stroke="none">0,26</text>
            <text x="2036" xml:space="preserve" font-size="16px" y="452" clip-path="url(#clipPath2)" stroke="none">0,26</text>
            <line y2="419" fill="none" x1="60" clip-path="url(#clipPath2)" x2="62" y1="419"/>
            <line y2="419" fill="none" x1="2031" clip-path="url(#clipPath2)" x2="2029" y1="419"/>
            <line y2="391" fill="none" x1="58" clip-path="url(#clipPath2)" x2="62" y1="391"/>
            <line y2="391" fill="none" x1="2033" clip-path="url(#clipPath2)" x2="2029" y1="391"/>
            <text x="25" xml:space="preserve" font-size="16px" y="397" clip-path="url(#clipPath2)" stroke="none">0,28</text>
            <text x="2036" xml:space="preserve" font-size="16px" y="397" clip-path="url(#clipPath2)" stroke="none">0,28</text>
            <line y2="364" fill="none" x1="60" clip-path="url(#clipPath2)" x2="62" y1="364"/>
            <line y2="364" fill="none" x1="2031" clip-path="url(#clipPath2)" x2="2029" y1="364"/>
            <line y2="337" fill="none" x1="58" clip-path="url(#clipPath2)" x2="62" y1="337"/>
            <line y2="337" fill="none" x1="2033" clip-path="url(#clipPath2)" x2="2029" y1="337"/>
            <text x="34" xml:space="preserve" font-size="16px" y="343" clip-path="url(#clipPath2)" stroke="none">0,3</text>
            <text x="2036" xml:space="preserve" font-size="16px" y="343" clip-path="url(#clipPath2)" stroke="none">0,3</text>
            <line y2="309" fill="none" x1="60" clip-path="url(#clipPath2)" x2="62" y1="309"/>
            <line y2="309" fill="none" x1="2031" clip-path="url(#clipPath2)" x2="2029" y1="309"/>
            <line y2="282" fill="none" x1="58" clip-path="url(#clipPath2)" x2="62" y1="282"/>
            <line y2="282" fill="none" x1="2033" clip-path="url(#clipPath2)" x2="2029" y1="282"/>
            <text x="25" xml:space="preserve" font-size="16px" y="288" clip-path="url(#clipPath2)" stroke="none">0,32</text>
            <text x="2036" xml:space="preserve" font-size="16px" y="288" clip-path="url(#clipPath2)" stroke="none">0,32</text>
            <line y2="254" fill="none" x1="60" clip-path="url(#clipPath2)" x2="62" y1="254"/>
            <line y2="254" fill="none" x1="2031" clip-path="url(#clipPath2)" x2="2029" y1="254"/>
            <line y2="227" fill="none" x1="58" clip-path="url(#clipPath2)" x2="62" y1="227"/>
            <line y2="227" fill="none" x1="2033" clip-path="url(#clipPath2)" x2="2029" y1="227"/>
            <text x="25" xml:space="preserve" font-size="16px" y="233" clip-path="url(#clipPath2)" stroke="none">0,34</text>
            <text x="2036" xml:space="preserve" font-size="16px" y="233" clip-path="url(#clipPath2)" stroke="none">0,34</text>
            <line y2="199" fill="none" x1="60" clip-path="url(#clipPath2)" x2="62" y1="199"/>
            <line y2="199" fill="none" x1="2031" clip-path="url(#clipPath2)" x2="2029" y1="199"/>
            <line y2="172" fill="none" x1="58" clip-path="url(#clipPath2)" x2="62" y1="172"/>
            <line y2="172" fill="none" x1="2033" clip-path="url(#clipPath2)" x2="2029" y1="172"/>
            <text x="25" xml:space="preserve" font-size="16px" y="178" clip-path="url(#clipPath2)" stroke="none">0,36</text>
            <text x="2036" xml:space="preserve" font-size="16px" y="178" clip-path="url(#clipPath2)" stroke="none">0,36</text>
            <line y2="145" fill="none" x1="60" clip-path="url(#clipPath2)" x2="62" y1="145"/>
            <line y2="145" fill="none" x1="2031" clip-path="url(#clipPath2)" x2="2029" y1="145"/>
            <line y2="117" fill="none" x1="58" clip-path="url(#clipPath2)" x2="62" y1="117"/>
            <line y2="117" fill="none" x1="2033" clip-path="url(#clipPath2)" x2="2029" y1="117"/>
            <text x="25" xml:space="preserve" font-size="16px" y="123" clip-path="url(#clipPath2)" stroke="none">0,38</text>
            <text x="2036" xml:space="preserve" font-size="16px" y="123" clip-path="url(#clipPath2)" stroke="none">0,38</text>
            <line y2="90" fill="none" x1="60" clip-path="url(#clipPath2)" x2="62" y1="90"/>
            <line y2="90" fill="none" x1="2031" clip-path="url(#clipPath2)" x2="2029" y1="90"/>
            <line y2="62" fill="none" x1="58" clip-path="url(#clipPath2)" x2="62" y1="62"/>
            <line y2="62" fill="none" x1="2033" clip-path="url(#clipPath2)" x2="2029" y1="62"/>
            <text x="34" xml:space="preserve" font-size="16px" y="68" clip-path="url(#clipPath2)" stroke="none">0,4</text>
            <text x="2036" xml:space="preserve" font-size="16px" y="68" clip-path="url(#clipPath2)" stroke="none">0,4</text>
            <line y2="35" fill="none" x1="60" clip-path="url(#clipPath2)" x2="62" y1="35"/>
            <line y2="35" fill="none" x1="2031" clip-path="url(#clipPath2)" x2="2029" y1="35"/>
            <line y2="1141" fill="none" x1="194" clip-path="url(#clipPath4)" x2="1895" y1="1141"/>
            <text x="194" xml:space="preserve" font-size="16px" y="1157" clip-path="url(#clipPath4)" stroke="none">channel utilization, last</text>
            <text x="1033" xml:space="preserve" font-size="16px" y="1180" clip-path="url(#clipPath4)" stroke="none">title</text>
        </g>
    </g>
</svg>
