<?xml version="1.0" encoding="UTF-8"?><svg xmlns="http://www.w3.org/2000/svg" xmlns:xlink="http://www.w3.org/1999/xlink" stroke-dasharray="none" shape-rendering="auto" font-family="'Dialog'" width="2293" text-rendering="auto" fill-opacity="1" contentScriptType="text/ecmascript" color-interpolation="auto" color-rendering="auto" preserveAspectRatio="xMidYMid meet" font-size="12px" fill="black" stroke="black" image-rendering="auto" stroke-miterlimit="10" zoomAndPan="magnify" version="1.0" stroke-linecap="square" stroke-linejoin="miter" contentStyleType="text/css" font-style="normal" height="1333" stroke-width="1" stroke-dashoffset="0" font-weight="normal" stroke-opacity="1">
    <!--Generated by the Batik Graphics2D SVG Generator-->
    <defs id="genericDefs"/>
    <g>
        <defs id="defs1">
            <clipPath clipPathUnits="userSpaceOnUse" id="clipPath1">
                <path d="M63 32 L2248 32 L2248 1286 L63 1286 L63 32 Z"/>
            </clipPath>
            <clipPath clipPathUnits="userSpaceOnUse" id="clipPath2">
                <path d="M-1 -1 L2294 -1 L2294 1334 L-1 1334 L-1 -1 Z"/>
            </clipPath>
            <clipPath clipPathUnits="userSpaceOnUse" id="clipPath3">
                <path d="M2115 37 L2244 37 L2244 114 L2115 114 L2115 37 Z"/>
            </clipPath>
            <clipPath clipPathUnits="userSpaceOnUse" id="clipPath4">
                <path d="M63 1284 L2248 1284 L2248 1334 L63 1334 L63 1284 Z"/>
            </clipPath>
        </defs>
        <g font-size="18px" fill="white" text-rendering="optimizeLegibility" font-family="'Segoe UI'" stroke-linejoin="round" stroke="white" stroke-width="0" stroke-miterlimit="0">
            <rect x="64" width="2183" height="1252" y="33" clip-path="url(#clipPath1)" stroke="none"/>
        </g>
        <g stroke-linecap="butt" font-size="18px" fill="rgb(204,204,204)" text-rendering="optimizeLegibility" font-family="'Segoe UI'" stroke-dasharray="3,3" stroke="rgb(204,204,204)">
            <line y2="1245" fill="none" x1="64" clip-path="url(#clipPath1)" x2="2247" y1="1245"/>
            <line y2="1182" fill="none" x1="64" clip-path="url(#clipPath1)" x2="2247" y1="1182"/>
            <line y2="1119" fill="none" x1="64" clip-path="url(#clipPath1)" x2="2247" y1="1119"/>
            <line y2="1057" fill="none" x1="64" clip-path="url(#clipPath1)" x2="2247" y1="1057"/>
            <line y2="994" fill="none" x1="64" clip-path="url(#clipPath1)" x2="2247" y1="994"/>
            <line y2="931" fill="none" x1="64" clip-path="url(#clipPath1)" x2="2247" y1="931"/>
            <line y2="868" fill="none" x1="64" clip-path="url(#clipPath1)" x2="2247" y1="868"/>
            <line y2="806" fill="none" x1="64" clip-path="url(#clipPath1)" x2="2247" y1="806"/>
            <line y2="743" fill="none" x1="64" clip-path="url(#clipPath1)" x2="2247" y1="743"/>
            <line y2="680" fill="none" x1="64" clip-path="url(#clipPath1)" x2="2247" y1="680"/>
            <line y2="617" fill="none" x1="64" clip-path="url(#clipPath1)" x2="2247" y1="617"/>
            <line y2="555" fill="none" x1="64" clip-path="url(#clipPath1)" x2="2247" y1="555"/>
            <line y2="492" fill="none" x1="64" clip-path="url(#clipPath1)" x2="2247" y1="492"/>
            <line y2="429" fill="none" x1="64" clip-path="url(#clipPath1)" x2="2247" y1="429"/>
            <line y2="366" fill="none" x1="64" clip-path="url(#clipPath1)" x2="2247" y1="366"/>
            <line y2="304" fill="none" x1="64" clip-path="url(#clipPath1)" x2="2247" y1="304"/>
            <line y2="241" fill="none" x1="64" clip-path="url(#clipPath1)" x2="2247" y1="241"/>
            <line y2="178" fill="none" x1="64" clip-path="url(#clipPath1)" x2="2247" y1="178"/>
            <line y2="115" fill="none" x1="64" clip-path="url(#clipPath1)" x2="2247" y1="115"/>
            <line y2="53" fill="none" x1="64" clip-path="url(#clipPath1)" x2="2247" y1="53"/>
            <rect x="1519" y="373" clip-path="url(#clipPath1)" fill="rgb(44,160,44)" width="363" height="934" stroke="none"/>
            <rect x="1519" y="373" clip-path="url(#clipPath1)" fill="none" width="363" stroke-dasharray="none" height="934" stroke="black"/>
            <rect x="973" y="148" clip-path="url(#clipPath1)" fill="rgb(255,127,14)" width="363" stroke-dasharray="none" height="1159" stroke="none"/>
            <rect x="973" y="148" clip-path="url(#clipPath1)" fill="none" width="363" stroke-dasharray="none" height="1159" stroke="black"/>
            <rect x="427" y="679" clip-path="url(#clipPath1)" fill="rgb(31,119,180)" width="363" stroke-dasharray="none" height="628" stroke="none"/>
            <rect x="427" y="679" clip-path="url(#clipPath1)" fill="none" width="363" stroke-dasharray="none" height="628" stroke="black"/>
            <rect x="64" y="33" clip-path="url(#clipPath2)" fill="none" width="2183" stroke-dasharray="none" height="1252" stroke="black"/>
            <line clip-path="url(#clipPath2)" fill="none" x1="65" x2="2246" y1="1308" y2="1308" stroke-dasharray="none"/>
        </g>
        <g text-rendering="optimizeLegibility" font-size="20px" font-family="'Arial'" stroke-linecap="butt">
            <text x="1003" xml:space="preserve" y="19" clip-path="url(#clipPath2)" stroke="none">Valor medio de channelUtilization</text>
            <rect x="2116" y="38" clip-path="url(#clipPath3)" fill="white" width="126" opacity="0.753" height="74" stroke="none"/>
            <polygon fill="rgb(31,119,180)" clip-path="url(#clipPath3)" points=" 2125 48 2125 56 2133 56 2133 48" stroke="none"/>
            <text x="2138" xml:space="preserve" font-size="16px" y="58" clip-path="url(#clipPath3)" stroke="none">replication=#0</text>
            <polygon fill="rgb(255,127,14)" clip-path="url(#clipPath3)" points=" 2125 71 2125 79 2133 79 2133 71" stroke="none"/>
            <text x="2138" xml:space="preserve" font-size="16px" y="81" clip-path="url(#clipPath3)" stroke="none">replication=#1</text>
            <polygon fill="rgb(44,160,44)" clip-path="url(#clipPath3)" points=" 2125 94 2125 102 2133 102 2133 94" stroke="none"/>
            <text x="2138" xml:space="preserve" font-size="16px" y="104" clip-path="url(#clipPath3)" stroke="none">replication=#2</text>
            <line y2="1285" fill="none" x1="62" clip-path="url(#clipPath2)" x2="62" y1="33"/>
            <line y2="1285" fill="none" x1="2249" clip-path="url(#clipPath2)" x2="2249" y1="33"/>
            <line y2="1282" fill="none" x1="60" clip-path="url(#clipPath2)" x2="62" y1="1282"/>
            <line y2="1282" fill="none" x1="2251" clip-path="url(#clipPath2)" x2="2249" y1="1282"/>
            <line y2="1270" fill="none" x1="60" clip-path="url(#clipPath2)" x2="62" y1="1270"/>
            <line y2="1270" fill="none" x1="2251" clip-path="url(#clipPath2)" x2="2249" y1="1270"/>
            <line y2="1257" fill="none" x1="60" clip-path="url(#clipPath2)" x2="62" y1="1257"/>
            <line y2="1257" fill="none" x1="2251" clip-path="url(#clipPath2)" x2="2249" y1="1257"/>
            <line y2="1245" fill="none" x1="58" clip-path="url(#clipPath2)" x2="62" y1="1245"/>
            <line y2="1245" fill="none" x1="2253" clip-path="url(#clipPath2)" x2="2249" y1="1245"/>
            <text x="25" xml:space="preserve" font-size="16px" y="1251" clip-path="url(#clipPath2)" stroke="none">0,01</text>
            <text x="2256" xml:space="preserve" font-size="16px" y="1251" clip-path="url(#clipPath2)" stroke="none">0,01</text>
            <line y2="1232" fill="none" x1="60" clip-path="url(#clipPath2)" x2="62" y1="1232"/>
            <line y2="1232" fill="none" x1="2251" clip-path="url(#clipPath2)" x2="2249" y1="1232"/>
            <line y2="1220" fill="none" x1="60" clip-path="url(#clipPath2)" x2="62" y1="1220"/>
            <line y2="1220" fill="none" x1="2251" clip-path="url(#clipPath2)" x2="2249" y1="1220"/>
            <line y2="1207" fill="none" x1="60" clip-path="url(#clipPath2)" x2="62" y1="1207"/>
            <line y2="1207" fill="none" x1="2251" clip-path="url(#clipPath2)" x2="2249" y1="1207"/>
            <line y2="1195" fill="none" x1="60" clip-path="url(#clipPath2)" x2="62" y1="1195"/>
            <line y2="1195" fill="none" x1="2251" clip-path="url(#clipPath2)" x2="2249" y1="1195"/>
            <line y2="1182" fill="none" x1="58" clip-path="url(#clipPath2)" x2="62" y1="1182"/>
            <line y2="1182" fill="none" x1="2253" clip-path="url(#clipPath2)" x2="2249" y1="1182"/>
            <text x="25" xml:space="preserve" font-size="16px" y="1188" clip-path="url(#clipPath2)" stroke="none">0,02</text>
            <text x="2256" xml:space="preserve" font-size="16px" y="1188" clip-path="url(#clipPath2)" stroke="none">0,02</text>
            <line y2="1169" fill="none" x1="60" clip-path="url(#clipPath2)" x2="62" y1="1169"/>
            <line y2="1169" fill="none" x1="2251" clip-path="url(#clipPath2)" x2="2249" y1="1169"/>
            <line y2="1157" fill="none" x1="60" clip-path="url(#clipPath2)" x2="62" y1="1157"/>
            <line y2="1157" fill="none" x1="2251" clip-path="url(#clipPath2)" x2="2249" y1="1157"/>
            <line y2="1144" fill="none" x1="60" clip-path="url(#clipPath2)" x2="62" y1="1144"/>
            <line y2="1144" fill="none" x1="2251" clip-path="url(#clipPath2)" x2="2249" y1="1144"/>
            <line y2="1132" fill="none" x1="60" clip-path="url(#clipPath2)" x2="62" y1="1132"/>
            <line y2="1132" fill="none" x1="2251" clip-path="url(#clipPath2)" x2="2249" y1="1132"/>
            <line y2="1119" fill="none" x1="58" clip-path="url(#clipPath2)" x2="62" y1="1119"/>
            <line y2="1119" fill="none" x1="2253" clip-path="url(#clipPath2)" x2="2249" y1="1119"/>
            <text x="25" xml:space="preserve" font-size="16px" y="1125" clip-path="url(#clipPath2)" stroke="none">0,03</text>
            <text x="2256" xml:space="preserve" font-size="16px" y="1125" clip-path="url(#clipPath2)" stroke="none">0,03</text>
            <line y2="1107" fill="none" x1="60" clip-path="url(#clipPath2)" x2="62" y1="1107"/>
            <line y2="1107" fill="none" x1="2251" clip-path="url(#clipPath2)" x2="2249" y1="1107"/>
            <line y2="1094" fill="none" x1="60" clip-path="url(#clipPath2)" x2="62" y1="1094"/>
            <line y2="1094" fill="none" x1="2251" clip-path="url(#clipPath2)" x2="2249" y1="1094"/>
            <line y2="1082" fill="none" x1="60" clip-path="url(#clipPath2)" x2="62" y1="1082"/>
            <line y2="1082" fill="none" x1="2251" clip-path="url(#clipPath2)" x2="2249" y1="1082"/>
            <line y2="1069" fill="none" x1="60" clip-path="url(#clipPath2)" x2="62" y1="1069"/>
            <line y2="1069" fill="none" x1="2251" clip-path="url(#clipPath2)" x2="2249" y1="1069"/>
            <line y2="1057" fill="none" x1="58" clip-path="url(#clipPath2)" x2="62" y1="1057"/>
            <line y2="1057" fill="none" x1="2253" clip-path="url(#clipPath2)" x2="2249" y1="1057"/>
            <text x="25" xml:space="preserve" font-size="16px" y="1063" clip-path="url(#clipPath2)" stroke="none">0,04</text>
            <text x="2256" xml:space="preserve" font-size="16px" y="1063" clip-path="url(#clipPath2)" stroke="none">0,04</text>
            <line y2="1044" fill="none" x1="60" clip-path="url(#clipPath2)" x2="62" y1="1044"/>
            <line y2="1044" fill="none" x1="2251" clip-path="url(#clipPath2)" x2="2249" y1="1044"/>
            <line y2="1031" fill="none" x1="60" clip-path="url(#clipPath2)" x2="62" y1="1031"/>
            <line y2="1031" fill="none" x1="2251" clip-path="url(#clipPath2)" x2="2249" y1="1031"/>
            <line y2="1019" fill="none" x1="60" clip-path="url(#clipPath2)" x2="62" y1="1019"/>
            <line y2="1019" fill="none" x1="2251" clip-path="url(#clipPath2)" x2="2249" y1="1019"/>
            <line y2="1006" fill="none" x1="60" clip-path="url(#clipPath2)" x2="62" y1="1006"/>
            <line y2="1006" fill="none" x1="2251" clip-path="url(#clipPath2)" x2="2249" y1="1006"/>
            <line y2="994" fill="none" x1="58" clip-path="url(#clipPath2)" x2="62" y1="994"/>
            <line y2="994" fill="none" x1="2253" clip-path="url(#clipPath2)" x2="2249" y1="994"/>
            <text x="25" xml:space="preserve" font-size="16px" y="1000" clip-path="url(#clipPath2)" stroke="none">0,05</text>
            <text x="2256" xml:space="preserve" font-size="16px" y="1000" clip-path="url(#clipPath2)" stroke="none">0,05</text>
            <line y2="981" fill="none" x1="60" clip-path="url(#clipPath2)" x2="62" y1="981"/>
            <line y2="981" fill="none" x1="2251" clip-path="url(#clipPath2)" x2="2249" y1="981"/>
            <line y2="969" fill="none" x1="60" clip-path="url(#clipPath2)" x2="62" y1="969"/>
            <line y2="969" fill="none" x1="2251" clip-path="url(#clipPath2)" x2="2249" y1="969"/>
            <line y2="956" fill="none" x1="60" clip-path="url(#clipPath2)" x2="62" y1="956"/>
            <line y2="956" fill="none" x1="2251" clip-path="url(#clipPath2)" x2="2249" y1="956"/>
            <line y2="944" fill="none" x1="60" clip-path="url(#clipPath2)" x2="62" y1="944"/>
            <line y2="944" fill="none" x1="2251" clip-path="url(#clipPath2)" x2="2249" y1="944"/>
            <line y2="931" fill="none" x1="58" clip-path="url(#clipPath2)" x2="62" y1="931"/>
            <line y2="931" fill="none" x1="2253" clip-path="url(#clipPath2)" x2="2249" y1="931"/>
            <text x="25" xml:space="preserve" font-size="16px" y="937" clip-path="url(#clipPath2)" stroke="none">0,06</text>
            <text x="2256" xml:space="preserve" font-size="16px" y="937" clip-path="url(#clipPath2)" stroke="none">0,06</text>
            <line y2="918" fill="none" x1="60" clip-path="url(#clipPath2)" x2="62" y1="918"/>
            <line y2="918" fill="none" x1="2251" clip-path="url(#clipPath2)" x2="2249" y1="918"/>
            <line y2="906" fill="none" x1="60" clip-path="url(#clipPath2)" x2="62" y1="906"/>
            <line y2="906" fill="none" x1="2251" clip-path="url(#clipPath2)" x2="2249" y1="906"/>
            <line y2="893" fill="none" x1="60" clip-path="url(#clipPath2)" x2="62" y1="893"/>
            <line y2="893" fill="none" x1="2251" clip-path="url(#clipPath2)" x2="2249" y1="893"/>
            <line y2="881" fill="none" x1="60" clip-path="url(#clipPath2)" x2="62" y1="881"/>
            <line y2="881" fill="none" x1="2251" clip-path="url(#clipPath2)" x2="2249" y1="881"/>
            <line y2="868" fill="none" x1="58" clip-path="url(#clipPath2)" x2="62" y1="868"/>
            <line y2="868" fill="none" x1="2253" clip-path="url(#clipPath2)" x2="2249" y1="868"/>
            <text x="25" xml:space="preserve" font-size="16px" y="874" clip-path="url(#clipPath2)" stroke="none">0,07</text>
            <text x="2256" xml:space="preserve" font-size="16px" y="874" clip-path="url(#clipPath2)" stroke="none">0,07</text>
            <line y2="856" fill="none" x1="60" clip-path="url(#clipPath2)" x2="62" y1="856"/>
            <line y2="856" fill="none" x1="2251" clip-path="url(#clipPath2)" x2="2249" y1="856"/>
            <line y2="843" fill="none" x1="60" clip-path="url(#clipPath2)" x2="62" y1="843"/>
            <line y2="843" fill="none" x1="2251" clip-path="url(#clipPath2)" x2="2249" y1="843"/>
            <line y2="831" fill="none" x1="60" clip-path="url(#clipPath2)" x2="62" y1="831"/>
            <line y2="831" fill="none" x1="2251" clip-path="url(#clipPath2)" x2="2249" y1="831"/>
            <line y2="818" fill="none" x1="60" clip-path="url(#clipPath2)" x2="62" y1="818"/>
            <line y2="818" fill="none" x1="2251" clip-path="url(#clipPath2)" x2="2249" y1="818"/>
            <line y2="806" fill="none" x1="58" clip-path="url(#clipPath2)" x2="62" y1="806"/>
            <line y2="806" fill="none" x1="2253" clip-path="url(#clipPath2)" x2="2249" y1="806"/>
            <text x="25" xml:space="preserve" font-size="16px" y="812" clip-path="url(#clipPath2)" stroke="none">0,08</text>
            <text x="2256" xml:space="preserve" font-size="16px" y="812" clip-path="url(#clipPath2)" stroke="none">0,08</text>
            <line y2="793" fill="none" x1="60" clip-path="url(#clipPath2)" x2="62" y1="793"/>
            <line y2="793" fill="none" x1="2251" clip-path="url(#clipPath2)" x2="2249" y1="793"/>
            <line y2="780" fill="none" x1="60" clip-path="url(#clipPath2)" x2="62" y1="780"/>
            <line y2="780" fill="none" x1="2251" clip-path="url(#clipPath2)" x2="2249" y1="780"/>
            <line y2="768" fill="none" x1="60" clip-path="url(#clipPath2)" x2="62" y1="768"/>
            <line y2="768" fill="none" x1="2251" clip-path="url(#clipPath2)" x2="2249" y1="768"/>
            <line y2="755" fill="none" x1="60" clip-path="url(#clipPath2)" x2="62" y1="755"/>
            <line y2="755" fill="none" x1="2251" clip-path="url(#clipPath2)" x2="2249" y1="755"/>
            <line y2="743" fill="none" x1="58" clip-path="url(#clipPath2)" x2="62" y1="743"/>
            <line y2="743" fill="none" x1="2253" clip-path="url(#clipPath2)" x2="2249" y1="743"/>
            <text x="25" xml:space="preserve" font-size="16px" y="749" clip-path="url(#clipPath2)" stroke="none">0,09</text>
            <text x="2256" xml:space="preserve" font-size="16px" y="749" clip-path="url(#clipPath2)" stroke="none">0,09</text>
            <line y2="730" fill="none" x1="60" clip-path="url(#clipPath2)" x2="62" y1="730"/>
            <line y2="730" fill="none" x1="2251" clip-path="url(#clipPath2)" x2="2249" y1="730"/>
            <line y2="718" fill="none" x1="60" clip-path="url(#clipPath2)" x2="62" y1="718"/>
            <line y2="718" fill="none" x1="2251" clip-path="url(#clipPath2)" x2="2249" y1="718"/>
            <line y2="705" fill="none" x1="60" clip-path="url(#clipPath2)" x2="62" y1="705"/>
            <line y2="705" fill="none" x1="2251" clip-path="url(#clipPath2)" x2="2249" y1="705"/>
            <line y2="693" fill="none" x1="60" clip-path="url(#clipPath2)" x2="62" y1="693"/>
            <line y2="693" fill="none" x1="2251" clip-path="url(#clipPath2)" x2="2249" y1="693"/>
            <line y2="680" fill="none" x1="58" clip-path="url(#clipPath2)" x2="62" y1="680"/>
            <line y2="680" fill="none" x1="2253" clip-path="url(#clipPath2)" x2="2249" y1="680"/>
            <text x="34" xml:space="preserve" font-size="16px" y="686" clip-path="url(#clipPath2)" stroke="none">0,1</text>
            <text x="2256" xml:space="preserve" font-size="16px" y="686" clip-path="url(#clipPath2)" stroke="none">0,1</text>
            <line y2="668" fill="none" x1="60" clip-path="url(#clipPath2)" x2="62" y1="668"/>
            <line y2="668" fill="none" x1="2251" clip-path="url(#clipPath2)" x2="2249" y1="668"/>
            <line y2="655" fill="none" x1="60" clip-path="url(#clipPath2)" x2="62" y1="655"/>
            <line y2="655" fill="none" x1="2251" clip-path="url(#clipPath2)" x2="2249" y1="655"/>
            <line y2="642" fill="none" x1="60" clip-path="url(#clipPath2)" x2="62" y1="642"/>
            <line y2="642" fill="none" x1="2251" clip-path="url(#clipPath2)" x2="2249" y1="642"/>
            <line y2="630" fill="none" x1="60" clip-path="url(#clipPath2)" x2="62" y1="630"/>
            <line y2="630" fill="none" x1="2251" clip-path="url(#clipPath2)" x2="2249" y1="630"/>
            <line y2="617" fill="none" x1="58" clip-path="url(#clipPath2)" x2="62" y1="617"/>
            <line y2="617" fill="none" x1="2253" clip-path="url(#clipPath2)" x2="2249" y1="617"/>
            <text x="25" xml:space="preserve" font-size="16px" y="623" clip-path="url(#clipPath2)" stroke="none">0,11</text>
            <text x="2256" xml:space="preserve" font-size="16px" y="623" clip-path="url(#clipPath2)" stroke="none">0,11</text>
            <line y2="605" fill="none" x1="60" clip-path="url(#clipPath2)" x2="62" y1="605"/>
            <line y2="605" fill="none" x1="2251" clip-path="url(#clipPath2)" x2="2249" y1="605"/>
            <line y2="592" fill="none" x1="60" clip-path="url(#clipPath2)" x2="62" y1="592"/>
            <line y2="592" fill="none" x1="2251" clip-path="url(#clipPath2)" x2="2249" y1="592"/>
            <line y2="580" fill="none" x1="60" clip-path="url(#clipPath2)" x2="62" y1="580"/>
            <line y2="580" fill="none" x1="2251" clip-path="url(#clipPath2)" x2="2249" y1="580"/>
            <line y2="567" fill="none" x1="60" clip-path="url(#clipPath2)" x2="62" y1="567"/>
            <line y2="567" fill="none" x1="2251" clip-path="url(#clipPath2)" x2="2249" y1="567"/>
            <line y2="555" fill="none" x1="58" clip-path="url(#clipPath2)" x2="62" y1="555"/>
            <line y2="555" fill="none" x1="2253" clip-path="url(#clipPath2)" x2="2249" y1="555"/>
            <text x="25" xml:space="preserve" font-size="16px" y="561" clip-path="url(#clipPath2)" stroke="none">0,12</text>
            <text x="2256" xml:space="preserve" font-size="16px" y="561" clip-path="url(#clipPath2)" stroke="none">0,12</text>
            <line y2="542" fill="none" x1="60" clip-path="url(#clipPath2)" x2="62" y1="542"/>
            <line y2="542" fill="none" x1="2251" clip-path="url(#clipPath2)" x2="2249" y1="542"/>
            <line y2="529" fill="none" x1="60" clip-path="url(#clipPath2)" x2="62" y1="529"/>
            <line y2="529" fill="none" x1="2251" clip-path="url(#clipPath2)" x2="2249" y1="529"/>
            <line y2="517" fill="none" x1="60" clip-path="url(#clipPath2)" x2="62" y1="517"/>
            <line y2="517" fill="none" x1="2251" clip-path="url(#clipPath2)" x2="2249" y1="517"/>
            <line y2="504" fill="none" x1="60" clip-path="url(#clipPath2)" x2="62" y1="504"/>
            <line y2="504" fill="none" x1="2251" clip-path="url(#clipPath2)" x2="2249" y1="504"/>
            <line y2="492" fill="none" x1="58" clip-path="url(#clipPath2)" x2="62" y1="492"/>
            <line y2="492" fill="none" x1="2253" clip-path="url(#clipPath2)" x2="2249" y1="492"/>
            <text x="25" xml:space="preserve" font-size="16px" y="498" clip-path="url(#clipPath2)" stroke="none">0,13</text>
            <text x="2256" xml:space="preserve" font-size="16px" y="498" clip-path="url(#clipPath2)" stroke="none">0,13</text>
            <line y2="479" fill="none" x1="60" clip-path="url(#clipPath2)" x2="62" y1="479"/>
            <line y2="479" fill="none" x1="2251" clip-path="url(#clipPath2)" x2="2249" y1="479"/>
            <line y2="467" fill="none" x1="60" clip-path="url(#clipPath2)" x2="62" y1="467"/>
            <line y2="467" fill="none" x1="2251" clip-path="url(#clipPath2)" x2="2249" y1="467"/>
            <line y2="454" fill="none" x1="60" clip-path="url(#clipPath2)" x2="62" y1="454"/>
            <line y2="454" fill="none" x1="2251" clip-path="url(#clipPath2)" x2="2249" y1="454"/>
            <line y2="442" fill="none" x1="60" clip-path="url(#clipPath2)" x2="62" y1="442"/>
            <line y2="442" fill="none" x1="2251" clip-path="url(#clipPath2)" x2="2249" y1="442"/>
            <line y2="429" fill="none" x1="58" clip-path="url(#clipPath2)" x2="62" y1="429"/>
            <line y2="429" fill="none" x1="2253" clip-path="url(#clipPath2)" x2="2249" y1="429"/>
            <text x="25" xml:space="preserve" font-size="16px" y="435" clip-path="url(#clipPath2)" stroke="none">0,14</text>
            <text x="2256" xml:space="preserve" font-size="16px" y="435" clip-path="url(#clipPath2)" stroke="none">0,14</text>
            <line y2="417" fill="none" x1="60" clip-path="url(#clipPath2)" x2="62" y1="417"/>
            <line y2="417" fill="none" x1="2251" clip-path="url(#clipPath2)" x2="2249" y1="417"/>
            <line y2="404" fill="none" x1="60" clip-path="url(#clipPath2)" x2="62" y1="404"/>
            <line y2="404" fill="none" x1="2251" clip-path="url(#clipPath2)" x2="2249" y1="404"/>
            <line y2="391" fill="none" x1="60" clip-path="url(#clipPath2)" x2="62" y1="391"/>
            <line y2="391" fill="none" x1="2251" clip-path="url(#clipPath2)" x2="2249" y1="391"/>
            <line y2="379" fill="none" x1="60" clip-path="url(#clipPath2)" x2="62" y1="379"/>
            <line y2="379" fill="none" x1="2251" clip-path="url(#clipPath2)" x2="2249" y1="379"/>
            <line y2="366" fill="none" x1="58" clip-path="url(#clipPath2)" x2="62" y1="366"/>
            <line y2="366" fill="none" x1="2253" clip-path="url(#clipPath2)" x2="2249" y1="366"/>
            <text x="25" xml:space="preserve" font-size="16px" y="372" clip-path="url(#clipPath2)" stroke="none">0,15</text>
            <text x="2256" xml:space="preserve" font-size="16px" y="372" clip-path="url(#clipPath2)" stroke="none">0,15</text>
            <line y2="354" fill="none" x1="60" clip-path="url(#clipPath2)" x2="62" y1="354"/>
            <line y2="354" fill="none" x1="2251" clip-path="url(#clipPath2)" x2="2249" y1="354"/>
            <line y2="341" fill="none" x1="60" clip-path="url(#clipPath2)" x2="62" y1="341"/>
            <line y2="341" fill="none" x1="2251" clip-path="url(#clipPath2)" x2="2249" y1="341"/>
            <line y2="329" fill="none" x1="60" clip-path="url(#clipPath2)" x2="62" y1="329"/>
            <line y2="329" fill="none" x1="2251" clip-path="url(#clipPath2)" x2="2249" y1="329"/>
            <line y2="316" fill="none" x1="60" clip-path="url(#clipPath2)" x2="62" y1="316"/>
            <line y2="316" fill="none" x1="2251" clip-path="url(#clipPath2)" x2="2249" y1="316"/>
            <line y2="304" fill="none" x1="58" clip-path="url(#clipPath2)" x2="62" y1="304"/>
            <line y2="304" fill="none" x1="2253" clip-path="url(#clipPath2)" x2="2249" y1="304"/>
            <text x="25" xml:space="preserve" font-size="16px" y="310" clip-path="url(#clipPath2)" stroke="none">0,16</text>
            <text x="2256" xml:space="preserve" font-size="16px" y="310" clip-path="url(#clipPath2)" stroke="none">0,16</text>
            <line y2="291" fill="none" x1="60" clip-path="url(#clipPath2)" x2="62" y1="291"/>
            <line y2="291" fill="none" x1="2251" clip-path="url(#clipPath2)" x2="2249" y1="291"/>
            <line y2="278" fill="none" x1="60" clip-path="url(#clipPath2)" x2="62" y1="278"/>
            <line y2="278" fill="none" x1="2251" clip-path="url(#clipPath2)" x2="2249" y1="278"/>
            <line y2="266" fill="none" x1="60" clip-path="url(#clipPath2)" x2="62" y1="266"/>
            <line y2="266" fill="none" x1="2251" clip-path="url(#clipPath2)" x2="2249" y1="266"/>
            <line y2="253" fill="none" x1="60" clip-path="url(#clipPath2)" x2="62" y1="253"/>
            <line y2="253" fill="none" x1="2251" clip-path="url(#clipPath2)" x2="2249" y1="253"/>
            <line y2="241" fill="none" x1="58" clip-path="url(#clipPath2)" x2="62" y1="241"/>
            <line y2="241" fill="none" x1="2253" clip-path="url(#clipPath2)" x2="2249" y1="241"/>
            <text x="25" xml:space="preserve" font-size="16px" y="247" clip-path="url(#clipPath2)" stroke="none">0,17</text>
            <text x="2256" xml:space="preserve" font-size="16px" y="247" clip-path="url(#clipPath2)" stroke="none">0,17</text>
            <line y2="228" fill="none" x1="60" clip-path="url(#clipPath2)" x2="62" y1="228"/>
            <line y2="228" fill="none" x1="2251" clip-path="url(#clipPath2)" x2="2249" y1="228"/>
            <line y2="216" fill="none" x1="60" clip-path="url(#clipPath2)" x2="62" y1="216"/>
            <line y2="216" fill="none" x1="2251" clip-path="url(#clipPath2)" x2="2249" y1="216"/>
            <line y2="203" fill="none" x1="60" clip-path="url(#clipPath2)" x2="62" y1="203"/>
            <line y2="203" fill="none" x1="2251" clip-path="url(#clipPath2)" x2="2249" y1="203"/>
            <line y2="191" fill="none" x1="60" clip-path="url(#clipPath2)" x2="62" y1="191"/>
            <line y2="191" fill="none" x1="2251" clip-path="url(#clipPath2)" x2="2249" y1="191"/>
            <line y2="178" fill="none" x1="58" clip-path="url(#clipPath2)" x2="62" y1="178"/>
            <line y2="178" fill="none" x1="2253" clip-path="url(#clipPath2)" x2="2249" y1="178"/>
            <text x="25" xml:space="preserve" font-size="16px" y="184" clip-path="url(#clipPath2)" stroke="none">0,18</text>
            <text x="2256" xml:space="preserve" font-size="16px" y="184" clip-path="url(#clipPath2)" stroke="none">0,18</text>
            <line y2="166" fill="none" x1="60" clip-path="url(#clipPath2)" x2="62" y1="166"/>
            <line y2="166" fill="none" x1="2251" clip-path="url(#clipPath2)" x2="2249" y1="166"/>
            <line y2="153" fill="none" x1="60" clip-path="url(#clipPath2)" x2="62" y1="153"/>
            <line y2="153" fill="none" x1="2251" clip-path="url(#clipPath2)" x2="2249" y1="153"/>
            <line y2="140" fill="none" x1="60" clip-path="url(#clipPath2)" x2="62" y1="140"/>
            <line y2="140" fill="none" x1="2251" clip-path="url(#clipPath2)" x2="2249" y1="140"/>
            <line y2="128" fill="none" x1="60" clip-path="url(#clipPath2)" x2="62" y1="128"/>
            <line y2="128" fill="none" x1="2251" clip-path="url(#clipPath2)" x2="2249" y1="128"/>
            <line y2="115" fill="none" x1="58" clip-path="url(#clipPath2)" x2="62" y1="115"/>
            <line y2="115" fill="none" x1="2253" clip-path="url(#clipPath2)" x2="2249" y1="115"/>
            <text x="25" xml:space="preserve" font-size="16px" y="121" clip-path="url(#clipPath2)" stroke="none">0,19</text>
            <text x="2256" xml:space="preserve" font-size="16px" y="121" clip-path="url(#clipPath2)" stroke="none">0,19</text>
            <line y2="103" fill="none" x1="60" clip-path="url(#clipPath2)" x2="62" y1="103"/>
            <line y2="103" fill="none" x1="2251" clip-path="url(#clipPath2)" x2="2249" y1="103"/>
            <line y2="90" fill="none" x1="60" clip-path="url(#clipPath2)" x2="62" y1="90"/>
            <line y2="90" fill="none" x1="2251" clip-path="url(#clipPath2)" x2="2249" y1="90"/>
            <line y2="78" fill="none" x1="60" clip-path="url(#clipPath2)" x2="62" y1="78"/>
            <line y2="78" fill="none" x1="2251" clip-path="url(#clipPath2)" x2="2249" y1="78"/>
            <line y2="65" fill="none" x1="60" clip-path="url(#clipPath2)" x2="62" y1="65"/>
            <line y2="65" fill="none" x1="2251" clip-path="url(#clipPath2)" x2="2249" y1="65"/>
            <line y2="53" fill="none" x1="58" clip-path="url(#clipPath2)" x2="62" y1="53"/>
            <line y2="53" fill="none" x1="2253" clip-path="url(#clipPath2)" x2="2249" y1="53"/>
            <text x="34" xml:space="preserve" font-size="16px" y="59" clip-path="url(#clipPath2)" stroke="none">0,2</text>
            <text x="2256" xml:space="preserve" font-size="16px" y="59" clip-path="url(#clipPath2)" stroke="none">0,2</text>
            <line y2="40" fill="none" x1="60" clip-path="url(#clipPath2)" x2="62" y1="40"/>
            <line y2="40" fill="none" x1="2251" clip-path="url(#clipPath2)" x2="2249" y1="40"/>
            <line y2="1289" fill="none" x1="427" clip-path="url(#clipPath4)" x2="1882" y1="1289"/>
            <text x="427" xml:space="preserve" font-size="16px" y="1305" clip-path="url(#clipPath4)" stroke="none">channel utilization, last</text>
            <text x="1075" xml:space="preserve" font-size="16px" y="1328" clip-path="url(#clipPath4)" stroke="none">Channel utilization last</text>
        </g>
    </g>
</svg>
