<?xml version="1.0" encoding="UTF-8"?><svg xmlns="http://www.w3.org/2000/svg" xmlns:xlink="http://www.w3.org/1999/xlink" stroke-dasharray="none" shape-rendering="auto" font-family="'Dialog'" width="2073" text-rendering="auto" fill-opacity="1" contentScriptType="text/ecmascript" color-interpolation="auto" color-rendering="auto" preserveAspectRatio="xMidYMid meet" font-size="12px" fill="black" stroke="black" image-rendering="auto" stroke-miterlimit="10" zoomAndPan="magnify" version="1.0" stroke-linecap="square" stroke-linejoin="miter" contentStyleType="text/css" font-style="normal" height="1185" stroke-width="1" stroke-dashoffset="0" font-weight="normal" stroke-opacity="1">
    <!--Generated by the Batik Graphics2D SVG Generator-->
    <defs id="genericDefs"/>
    <g>
        <defs id="defs1">
            <clipPath clipPathUnits="userSpaceOnUse" id="clipPath1">
                <path d="M63 32 L2028 32 L2028 1138 L63 1138 L63 32 Z"/>
            </clipPath>
            <clipPath clipPathUnits="userSpaceOnUse" id="clipPath2">
                <path d="M-1 -1 L2074 -1 L2074 1186 L-1 1186 L-1 -1 Z"/>
            </clipPath>
            <clipPath clipPathUnits="userSpaceOnUse" id="clipPath3">
                <path d="M1895 37 L2024 37 L2024 114 L1895 114 L1895 37 Z"/>
            </clipPath>
            <clipPath clipPathUnits="userSpaceOnUse" id="clipPath4">
                <path d="M63 1136 L2028 1136 L2028 1186 L63 1186 L63 1136 Z"/>
            </clipPath>
        </defs>
        <g font-size="18px" fill="white" text-rendering="optimizeLegibility" font-family="'Segoe UI'" stroke-linejoin="round" stroke="white" stroke-width="0" stroke-miterlimit="0">
            <rect x="64" width="1963" height="1104" y="33" clip-path="url(#clipPath1)" stroke="none"/>
        </g>
        <g stroke-linecap="butt" font-size="18px" fill="rgb(204,204,204)" text-rendering="optimizeLegibility" font-family="'Segoe UI'" stroke-dasharray="3,3" stroke="rgb(204,204,204)">
            <line y2="1089" fill="none" x1="64" clip-path="url(#clipPath1)" x2="2027" y1="1089"/>
            <line y2="1019" fill="none" x1="64" clip-path="url(#clipPath1)" x2="2027" y1="1019"/>
            <line y2="949" fill="none" x1="64" clip-path="url(#clipPath1)" x2="2027" y1="949"/>
            <line y2="879" fill="none" x1="64" clip-path="url(#clipPath1)" x2="2027" y1="879"/>
            <line y2="809" fill="none" x1="64" clip-path="url(#clipPath1)" x2="2027" y1="809"/>
            <line y2="739" fill="none" x1="64" clip-path="url(#clipPath1)" x2="2027" y1="739"/>
            <line y2="668" fill="none" x1="64" clip-path="url(#clipPath1)" x2="2027" y1="668"/>
            <line y2="598" fill="none" x1="64" clip-path="url(#clipPath1)" x2="2027" y1="598"/>
            <line y2="528" fill="none" x1="64" clip-path="url(#clipPath1)" x2="2027" y1="528"/>
            <line y2="458" fill="none" x1="64" clip-path="url(#clipPath1)" x2="2027" y1="458"/>
            <line y2="388" fill="none" x1="64" clip-path="url(#clipPath1)" x2="2027" y1="388"/>
            <line y2="318" fill="none" x1="64" clip-path="url(#clipPath1)" x2="2027" y1="318"/>
            <line y2="248" fill="none" x1="64" clip-path="url(#clipPath1)" x2="2027" y1="248"/>
            <line y2="177" fill="none" x1="64" clip-path="url(#clipPath1)" x2="2027" y1="177"/>
            <line y2="107" fill="none" x1="64" clip-path="url(#clipPath1)" x2="2027" y1="107"/>
            <line y2="37" fill="none" x1="64" clip-path="url(#clipPath1)" x2="2027" y1="37"/>
            <rect x="1372" y="135" clip-path="url(#clipPath1)" fill="rgb(44,160,44)" width="327" height="1024" stroke="none"/>
            <rect x="1372" y="135" clip-path="url(#clipPath1)" fill="none" width="327" stroke-dasharray="none" height="1024" stroke="black"/>
            <rect x="881" y="136" clip-path="url(#clipPath1)" fill="rgb(255,127,14)" width="327" stroke-dasharray="none" height="1023" stroke="none"/>
            <rect x="881" y="136" clip-path="url(#clipPath1)" fill="none" width="327" stroke-dasharray="none" height="1023" stroke="black"/>
            <rect x="391" y="139" clip-path="url(#clipPath1)" fill="rgb(31,119,180)" width="327" stroke-dasharray="none" height="1020" stroke="none"/>
            <rect x="391" y="139" clip-path="url(#clipPath1)" fill="none" width="327" stroke-dasharray="none" height="1020" stroke="black"/>
            <rect x="64" y="33" clip-path="url(#clipPath2)" fill="none" width="1963" stroke-dasharray="none" height="1104" stroke="black"/>
            <line clip-path="url(#clipPath2)" fill="none" x1="65" x2="2026" y1="1160" y2="1160" stroke-dasharray="none"/>
        </g>
        <g text-rendering="optimizeLegibility" font-size="20px" font-family="'Arial'" stroke-linecap="butt">
            <text x="877" xml:space="preserve" y="19" clip-path="url(#clipPath2)" stroke="none">Valor Medio Channel Utilization Long</text>
            <rect x="1896" y="38" clip-path="url(#clipPath3)" fill="white" width="126" opacity="0.753" height="74" stroke="none"/>
            <polygon fill="rgb(31,119,180)" clip-path="url(#clipPath3)" points=" 1905 48 1905 56 1913 56 1913 48" stroke="none"/>
            <text x="1918" xml:space="preserve" font-size="16px" y="58" clip-path="url(#clipPath3)" stroke="none">replication=#0</text>
            <polygon fill="rgb(255,127,14)" clip-path="url(#clipPath3)" points=" 1905 71 1905 79 1913 79 1913 71" stroke="none"/>
            <text x="1918" xml:space="preserve" font-size="16px" y="81" clip-path="url(#clipPath3)" stroke="none">replication=#1</text>
            <polygon fill="rgb(44,160,44)" clip-path="url(#clipPath3)" points=" 1905 94 1905 102 1913 102 1913 94" stroke="none"/>
            <text x="1918" xml:space="preserve" font-size="16px" y="104" clip-path="url(#clipPath3)" stroke="none">replication=#2</text>
            <line y2="1137" fill="none" x1="62" clip-path="url(#clipPath2)" x2="62" y1="33"/>
            <line y2="1137" fill="none" x1="2029" clip-path="url(#clipPath2)" x2="2029" y1="33"/>
            <line y2="1131" fill="none" x1="60" clip-path="url(#clipPath2)" x2="62" y1="1131"/>
            <line y2="1131" fill="none" x1="2031" clip-path="url(#clipPath2)" x2="2029" y1="1131"/>
            <line y2="1117" fill="none" x1="60" clip-path="url(#clipPath2)" x2="62" y1="1117"/>
            <line y2="1117" fill="none" x1="2031" clip-path="url(#clipPath2)" x2="2029" y1="1117"/>
            <line y2="1103" fill="none" x1="60" clip-path="url(#clipPath2)" x2="62" y1="1103"/>
            <line y2="1103" fill="none" x1="2031" clip-path="url(#clipPath2)" x2="2029" y1="1103"/>
            <line y2="1089" fill="none" x1="58" clip-path="url(#clipPath2)" x2="62" y1="1089"/>
            <line y2="1089" fill="none" x1="2033" clip-path="url(#clipPath2)" x2="2029" y1="1089"/>
            <text x="25" xml:space="preserve" font-size="16px" y="1095" clip-path="url(#clipPath2)" stroke="none">0,01</text>
            <text x="2036" xml:space="preserve" font-size="16px" y="1095" clip-path="url(#clipPath2)" stroke="none">0,01</text>
            <line y2="1075" fill="none" x1="60" clip-path="url(#clipPath2)" x2="62" y1="1075"/>
            <line y2="1075" fill="none" x1="2031" clip-path="url(#clipPath2)" x2="2029" y1="1075"/>
            <line y2="1061" fill="none" x1="60" clip-path="url(#clipPath2)" x2="62" y1="1061"/>
            <line y2="1061" fill="none" x1="2031" clip-path="url(#clipPath2)" x2="2029" y1="1061"/>
            <line y2="1047" fill="none" x1="60" clip-path="url(#clipPath2)" x2="62" y1="1047"/>
            <line y2="1047" fill="none" x1="2031" clip-path="url(#clipPath2)" x2="2029" y1="1047"/>
            <line y2="1033" fill="none" x1="60" clip-path="url(#clipPath2)" x2="62" y1="1033"/>
            <line y2="1033" fill="none" x1="2031" clip-path="url(#clipPath2)" x2="2029" y1="1033"/>
            <line y2="1019" fill="none" x1="58" clip-path="url(#clipPath2)" x2="62" y1="1019"/>
            <line y2="1019" fill="none" x1="2033" clip-path="url(#clipPath2)" x2="2029" y1="1019"/>
            <text x="25" xml:space="preserve" font-size="16px" y="1025" clip-path="url(#clipPath2)" stroke="none">0,02</text>
            <text x="2036" xml:space="preserve" font-size="16px" y="1025" clip-path="url(#clipPath2)" stroke="none">0,02</text>
            <line y2="1005" fill="none" x1="60" clip-path="url(#clipPath2)" x2="62" y1="1005"/>
            <line y2="1005" fill="none" x1="2031" clip-path="url(#clipPath2)" x2="2029" y1="1005"/>
            <line y2="991" fill="none" x1="60" clip-path="url(#clipPath2)" x2="62" y1="991"/>
            <line y2="991" fill="none" x1="2031" clip-path="url(#clipPath2)" x2="2029" y1="991"/>
            <line y2="977" fill="none" x1="60" clip-path="url(#clipPath2)" x2="62" y1="977"/>
            <line y2="977" fill="none" x1="2031" clip-path="url(#clipPath2)" x2="2029" y1="977"/>
            <line y2="963" fill="none" x1="60" clip-path="url(#clipPath2)" x2="62" y1="963"/>
            <line y2="963" fill="none" x1="2031" clip-path="url(#clipPath2)" x2="2029" y1="963"/>
            <line y2="949" fill="none" x1="58" clip-path="url(#clipPath2)" x2="62" y1="949"/>
            <line y2="949" fill="none" x1="2033" clip-path="url(#clipPath2)" x2="2029" y1="949"/>
            <text x="25" xml:space="preserve" font-size="16px" y="955" clip-path="url(#clipPath2)" stroke="none">0,03</text>
            <text x="2036" xml:space="preserve" font-size="16px" y="955" clip-path="url(#clipPath2)" stroke="none">0,03</text>
            <line y2="935" fill="none" x1="60" clip-path="url(#clipPath2)" x2="62" y1="935"/>
            <line y2="935" fill="none" x1="2031" clip-path="url(#clipPath2)" x2="2029" y1="935"/>
            <line y2="921" fill="none" x1="60" clip-path="url(#clipPath2)" x2="62" y1="921"/>
            <line y2="921" fill="none" x1="2031" clip-path="url(#clipPath2)" x2="2029" y1="921"/>
            <line y2="907" fill="none" x1="60" clip-path="url(#clipPath2)" x2="62" y1="907"/>
            <line y2="907" fill="none" x1="2031" clip-path="url(#clipPath2)" x2="2029" y1="907"/>
            <line y2="893" fill="none" x1="60" clip-path="url(#clipPath2)" x2="62" y1="893"/>
            <line y2="893" fill="none" x1="2031" clip-path="url(#clipPath2)" x2="2029" y1="893"/>
            <line y2="879" fill="none" x1="58" clip-path="url(#clipPath2)" x2="62" y1="879"/>
            <line y2="879" fill="none" x1="2033" clip-path="url(#clipPath2)" x2="2029" y1="879"/>
            <text x="25" xml:space="preserve" font-size="16px" y="885" clip-path="url(#clipPath2)" stroke="none">0,04</text>
            <text x="2036" xml:space="preserve" font-size="16px" y="885" clip-path="url(#clipPath2)" stroke="none">0,04</text>
            <line y2="865" fill="none" x1="60" clip-path="url(#clipPath2)" x2="62" y1="865"/>
            <line y2="865" fill="none" x1="2031" clip-path="url(#clipPath2)" x2="2029" y1="865"/>
            <line y2="851" fill="none" x1="60" clip-path="url(#clipPath2)" x2="62" y1="851"/>
            <line y2="851" fill="none" x1="2031" clip-path="url(#clipPath2)" x2="2029" y1="851"/>
            <line y2="837" fill="none" x1="60" clip-path="url(#clipPath2)" x2="62" y1="837"/>
            <line y2="837" fill="none" x1="2031" clip-path="url(#clipPath2)" x2="2029" y1="837"/>
            <line y2="823" fill="none" x1="60" clip-path="url(#clipPath2)" x2="62" y1="823"/>
            <line y2="823" fill="none" x1="2031" clip-path="url(#clipPath2)" x2="2029" y1="823"/>
            <line y2="809" fill="none" x1="58" clip-path="url(#clipPath2)" x2="62" y1="809"/>
            <line y2="809" fill="none" x1="2033" clip-path="url(#clipPath2)" x2="2029" y1="809"/>
            <text x="25" xml:space="preserve" font-size="16px" y="815" clip-path="url(#clipPath2)" stroke="none">0,05</text>
            <text x="2036" xml:space="preserve" font-size="16px" y="815" clip-path="url(#clipPath2)" stroke="none">0,05</text>
            <line y2="795" fill="none" x1="60" clip-path="url(#clipPath2)" x2="62" y1="795"/>
            <line y2="795" fill="none" x1="2031" clip-path="url(#clipPath2)" x2="2029" y1="795"/>
            <line y2="781" fill="none" x1="60" clip-path="url(#clipPath2)" x2="62" y1="781"/>
            <line y2="781" fill="none" x1="2031" clip-path="url(#clipPath2)" x2="2029" y1="781"/>
            <line y2="767" fill="none" x1="60" clip-path="url(#clipPath2)" x2="62" y1="767"/>
            <line y2="767" fill="none" x1="2031" clip-path="url(#clipPath2)" x2="2029" y1="767"/>
            <line y2="753" fill="none" x1="60" clip-path="url(#clipPath2)" x2="62" y1="753"/>
            <line y2="753" fill="none" x1="2031" clip-path="url(#clipPath2)" x2="2029" y1="753"/>
            <line y2="739" fill="none" x1="58" clip-path="url(#clipPath2)" x2="62" y1="739"/>
            <line y2="739" fill="none" x1="2033" clip-path="url(#clipPath2)" x2="2029" y1="739"/>
            <text x="25" xml:space="preserve" font-size="16px" y="745" clip-path="url(#clipPath2)" stroke="none">0,06</text>
            <text x="2036" xml:space="preserve" font-size="16px" y="745" clip-path="url(#clipPath2)" stroke="none">0,06</text>
            <line y2="725" fill="none" x1="60" clip-path="url(#clipPath2)" x2="62" y1="725"/>
            <line y2="725" fill="none" x1="2031" clip-path="url(#clipPath2)" x2="2029" y1="725"/>
            <line y2="711" fill="none" x1="60" clip-path="url(#clipPath2)" x2="62" y1="711"/>
            <line y2="711" fill="none" x1="2031" clip-path="url(#clipPath2)" x2="2029" y1="711"/>
            <line y2="697" fill="none" x1="60" clip-path="url(#clipPath2)" x2="62" y1="697"/>
            <line y2="697" fill="none" x1="2031" clip-path="url(#clipPath2)" x2="2029" y1="697"/>
            <line y2="683" fill="none" x1="60" clip-path="url(#clipPath2)" x2="62" y1="683"/>
            <line y2="683" fill="none" x1="2031" clip-path="url(#clipPath2)" x2="2029" y1="683"/>
            <line y2="668" fill="none" x1="58" clip-path="url(#clipPath2)" x2="62" y1="668"/>
            <line y2="668" fill="none" x1="2033" clip-path="url(#clipPath2)" x2="2029" y1="668"/>
            <text x="25" xml:space="preserve" font-size="16px" y="674" clip-path="url(#clipPath2)" stroke="none">0,07</text>
            <text x="2036" xml:space="preserve" font-size="16px" y="674" clip-path="url(#clipPath2)" stroke="none">0,07</text>
            <line y2="654" fill="none" x1="60" clip-path="url(#clipPath2)" x2="62" y1="654"/>
            <line y2="654" fill="none" x1="2031" clip-path="url(#clipPath2)" x2="2029" y1="654"/>
            <line y2="640" fill="none" x1="60" clip-path="url(#clipPath2)" x2="62" y1="640"/>
            <line y2="640" fill="none" x1="2031" clip-path="url(#clipPath2)" x2="2029" y1="640"/>
            <line y2="626" fill="none" x1="60" clip-path="url(#clipPath2)" x2="62" y1="626"/>
            <line y2="626" fill="none" x1="2031" clip-path="url(#clipPath2)" x2="2029" y1="626"/>
            <line y2="612" fill="none" x1="60" clip-path="url(#clipPath2)" x2="62" y1="612"/>
            <line y2="612" fill="none" x1="2031" clip-path="url(#clipPath2)" x2="2029" y1="612"/>
            <line y2="598" fill="none" x1="58" clip-path="url(#clipPath2)" x2="62" y1="598"/>
            <line y2="598" fill="none" x1="2033" clip-path="url(#clipPath2)" x2="2029" y1="598"/>
            <text x="25" xml:space="preserve" font-size="16px" y="604" clip-path="url(#clipPath2)" stroke="none">0,08</text>
            <text x="2036" xml:space="preserve" font-size="16px" y="604" clip-path="url(#clipPath2)" stroke="none">0,08</text>
            <line y2="584" fill="none" x1="60" clip-path="url(#clipPath2)" x2="62" y1="584"/>
            <line y2="584" fill="none" x1="2031" clip-path="url(#clipPath2)" x2="2029" y1="584"/>
            <line y2="570" fill="none" x1="60" clip-path="url(#clipPath2)" x2="62" y1="570"/>
            <line y2="570" fill="none" x1="2031" clip-path="url(#clipPath2)" x2="2029" y1="570"/>
            <line y2="556" fill="none" x1="60" clip-path="url(#clipPath2)" x2="62" y1="556"/>
            <line y2="556" fill="none" x1="2031" clip-path="url(#clipPath2)" x2="2029" y1="556"/>
            <line y2="542" fill="none" x1="60" clip-path="url(#clipPath2)" x2="62" y1="542"/>
            <line y2="542" fill="none" x1="2031" clip-path="url(#clipPath2)" x2="2029" y1="542"/>
            <line y2="528" fill="none" x1="58" clip-path="url(#clipPath2)" x2="62" y1="528"/>
            <line y2="528" fill="none" x1="2033" clip-path="url(#clipPath2)" x2="2029" y1="528"/>
            <text x="25" xml:space="preserve" font-size="16px" y="534" clip-path="url(#clipPath2)" stroke="none">0,09</text>
            <text x="2036" xml:space="preserve" font-size="16px" y="534" clip-path="url(#clipPath2)" stroke="none">0,09</text>
            <line y2="514" fill="none" x1="60" clip-path="url(#clipPath2)" x2="62" y1="514"/>
            <line y2="514" fill="none" x1="2031" clip-path="url(#clipPath2)" x2="2029" y1="514"/>
            <line y2="500" fill="none" x1="60" clip-path="url(#clipPath2)" x2="62" y1="500"/>
            <line y2="500" fill="none" x1="2031" clip-path="url(#clipPath2)" x2="2029" y1="500"/>
            <line y2="486" fill="none" x1="60" clip-path="url(#clipPath2)" x2="62" y1="486"/>
            <line y2="486" fill="none" x1="2031" clip-path="url(#clipPath2)" x2="2029" y1="486"/>
            <line y2="472" fill="none" x1="60" clip-path="url(#clipPath2)" x2="62" y1="472"/>
            <line y2="472" fill="none" x1="2031" clip-path="url(#clipPath2)" x2="2029" y1="472"/>
            <line y2="458" fill="none" x1="58" clip-path="url(#clipPath2)" x2="62" y1="458"/>
            <line y2="458" fill="none" x1="2033" clip-path="url(#clipPath2)" x2="2029" y1="458"/>
            <text x="34" xml:space="preserve" font-size="16px" y="464" clip-path="url(#clipPath2)" stroke="none">0,1</text>
            <text x="2036" xml:space="preserve" font-size="16px" y="464" clip-path="url(#clipPath2)" stroke="none">0,1</text>
            <line y2="444" fill="none" x1="60" clip-path="url(#clipPath2)" x2="62" y1="444"/>
            <line y2="444" fill="none" x1="2031" clip-path="url(#clipPath2)" x2="2029" y1="444"/>
            <line y2="430" fill="none" x1="60" clip-path="url(#clipPath2)" x2="62" y1="430"/>
            <line y2="430" fill="none" x1="2031" clip-path="url(#clipPath2)" x2="2029" y1="430"/>
            <line y2="416" fill="none" x1="60" clip-path="url(#clipPath2)" x2="62" y1="416"/>
            <line y2="416" fill="none" x1="2031" clip-path="url(#clipPath2)" x2="2029" y1="416"/>
            <line y2="402" fill="none" x1="60" clip-path="url(#clipPath2)" x2="62" y1="402"/>
            <line y2="402" fill="none" x1="2031" clip-path="url(#clipPath2)" x2="2029" y1="402"/>
            <line y2="388" fill="none" x1="58" clip-path="url(#clipPath2)" x2="62" y1="388"/>
            <line y2="388" fill="none" x1="2033" clip-path="url(#clipPath2)" x2="2029" y1="388"/>
            <text x="25" xml:space="preserve" font-size="16px" y="394" clip-path="url(#clipPath2)" stroke="none">0,11</text>
            <text x="2036" xml:space="preserve" font-size="16px" y="394" clip-path="url(#clipPath2)" stroke="none">0,11</text>
            <line y2="374" fill="none" x1="60" clip-path="url(#clipPath2)" x2="62" y1="374"/>
            <line y2="374" fill="none" x1="2031" clip-path="url(#clipPath2)" x2="2029" y1="374"/>
            <line y2="360" fill="none" x1="60" clip-path="url(#clipPath2)" x2="62" y1="360"/>
            <line y2="360" fill="none" x1="2031" clip-path="url(#clipPath2)" x2="2029" y1="360"/>
            <line y2="346" fill="none" x1="60" clip-path="url(#clipPath2)" x2="62" y1="346"/>
            <line y2="346" fill="none" x1="2031" clip-path="url(#clipPath2)" x2="2029" y1="346"/>
            <line y2="332" fill="none" x1="60" clip-path="url(#clipPath2)" x2="62" y1="332"/>
            <line y2="332" fill="none" x1="2031" clip-path="url(#clipPath2)" x2="2029" y1="332"/>
            <line y2="318" fill="none" x1="58" clip-path="url(#clipPath2)" x2="62" y1="318"/>
            <line y2="318" fill="none" x1="2033" clip-path="url(#clipPath2)" x2="2029" y1="318"/>
            <text x="25" xml:space="preserve" font-size="16px" y="324" clip-path="url(#clipPath2)" stroke="none">0,12</text>
            <text x="2036" xml:space="preserve" font-size="16px" y="324" clip-path="url(#clipPath2)" stroke="none">0,12</text>
            <line y2="304" fill="none" x1="60" clip-path="url(#clipPath2)" x2="62" y1="304"/>
            <line y2="304" fill="none" x1="2031" clip-path="url(#clipPath2)" x2="2029" y1="304"/>
            <line y2="290" fill="none" x1="60" clip-path="url(#clipPath2)" x2="62" y1="290"/>
            <line y2="290" fill="none" x1="2031" clip-path="url(#clipPath2)" x2="2029" y1="290"/>
            <line y2="276" fill="none" x1="60" clip-path="url(#clipPath2)" x2="62" y1="276"/>
            <line y2="276" fill="none" x1="2031" clip-path="url(#clipPath2)" x2="2029" y1="276"/>
            <line y2="262" fill="none" x1="60" clip-path="url(#clipPath2)" x2="62" y1="262"/>
            <line y2="262" fill="none" x1="2031" clip-path="url(#clipPath2)" x2="2029" y1="262"/>
            <line y2="248" fill="none" x1="58" clip-path="url(#clipPath2)" x2="62" y1="248"/>
            <line y2="248" fill="none" x1="2033" clip-path="url(#clipPath2)" x2="2029" y1="248"/>
            <text x="25" xml:space="preserve" font-size="16px" y="254" clip-path="url(#clipPath2)" stroke="none">0,13</text>
            <text x="2036" xml:space="preserve" font-size="16px" y="254" clip-path="url(#clipPath2)" stroke="none">0,13</text>
            <line y2="234" fill="none" x1="60" clip-path="url(#clipPath2)" x2="62" y1="234"/>
            <line y2="234" fill="none" x1="2031" clip-path="url(#clipPath2)" x2="2029" y1="234"/>
            <line y2="220" fill="none" x1="60" clip-path="url(#clipPath2)" x2="62" y1="220"/>
            <line y2="220" fill="none" x1="2031" clip-path="url(#clipPath2)" x2="2029" y1="220"/>
            <line y2="206" fill="none" x1="60" clip-path="url(#clipPath2)" x2="62" y1="206"/>
            <line y2="206" fill="none" x1="2031" clip-path="url(#clipPath2)" x2="2029" y1="206"/>
            <line y2="191" fill="none" x1="60" clip-path="url(#clipPath2)" x2="62" y1="191"/>
            <line y2="191" fill="none" x1="2031" clip-path="url(#clipPath2)" x2="2029" y1="191"/>
            <line y2="177" fill="none" x1="58" clip-path="url(#clipPath2)" x2="62" y1="177"/>
            <line y2="177" fill="none" x1="2033" clip-path="url(#clipPath2)" x2="2029" y1="177"/>
            <text x="25" xml:space="preserve" font-size="16px" y="183" clip-path="url(#clipPath2)" stroke="none">0,14</text>
            <text x="2036" xml:space="preserve" font-size="16px" y="183" clip-path="url(#clipPath2)" stroke="none">0,14</text>
            <line y2="163" fill="none" x1="60" clip-path="url(#clipPath2)" x2="62" y1="163"/>
            <line y2="163" fill="none" x1="2031" clip-path="url(#clipPath2)" x2="2029" y1="163"/>
            <line y2="149" fill="none" x1="60" clip-path="url(#clipPath2)" x2="62" y1="149"/>
            <line y2="149" fill="none" x1="2031" clip-path="url(#clipPath2)" x2="2029" y1="149"/>
            <line y2="135" fill="none" x1="60" clip-path="url(#clipPath2)" x2="62" y1="135"/>
            <line y2="135" fill="none" x1="2031" clip-path="url(#clipPath2)" x2="2029" y1="135"/>
            <line y2="121" fill="none" x1="60" clip-path="url(#clipPath2)" x2="62" y1="121"/>
            <line y2="121" fill="none" x1="2031" clip-path="url(#clipPath2)" x2="2029" y1="121"/>
            <line y2="107" fill="none" x1="58" clip-path="url(#clipPath2)" x2="62" y1="107"/>
            <line y2="107" fill="none" x1="2033" clip-path="url(#clipPath2)" x2="2029" y1="107"/>
            <text x="25" xml:space="preserve" font-size="16px" y="113" clip-path="url(#clipPath2)" stroke="none">0,15</text>
            <text x="2036" xml:space="preserve" font-size="16px" y="113" clip-path="url(#clipPath2)" stroke="none">0,15</text>
            <line y2="93" fill="none" x1="60" clip-path="url(#clipPath2)" x2="62" y1="93"/>
            <line y2="93" fill="none" x1="2031" clip-path="url(#clipPath2)" x2="2029" y1="93"/>
            <line y2="79" fill="none" x1="60" clip-path="url(#clipPath2)" x2="62" y1="79"/>
            <line y2="79" fill="none" x1="2031" clip-path="url(#clipPath2)" x2="2029" y1="79"/>
            <line y2="65" fill="none" x1="60" clip-path="url(#clipPath2)" x2="62" y1="65"/>
            <line y2="65" fill="none" x1="2031" clip-path="url(#clipPath2)" x2="2029" y1="65"/>
            <line y2="51" fill="none" x1="60" clip-path="url(#clipPath2)" x2="62" y1="51"/>
            <line y2="51" fill="none" x1="2031" clip-path="url(#clipPath2)" x2="2029" y1="51"/>
            <line y2="37" fill="none" x1="58" clip-path="url(#clipPath2)" x2="62" y1="37"/>
            <line y2="37" fill="none" x1="2033" clip-path="url(#clipPath2)" x2="2029" y1="37"/>
            <text x="25" xml:space="preserve" font-size="16px" y="43" clip-path="url(#clipPath2)" stroke="none">0,16</text>
            <text x="2036" xml:space="preserve" font-size="16px" y="43" clip-path="url(#clipPath2)" stroke="none">0,16</text>
            <line y2="1141" fill="none" x1="391" clip-path="url(#clipPath4)" x2="1699" y1="1141"/>
            <text x="391" xml:space="preserve" font-size="16px" y="1157" clip-path="url(#clipPath4)" stroke="none">channel utilization, last</text>
            <text x="964" xml:space="preserve" font-size="16px" y="1180" clip-path="url(#clipPath4)" stroke="none">Channel Utilization last</text>
        </g>
    </g>
</svg>
